<svg width="15" height="15" viewBox="0 0 15 15" fill="none" xmlns="http://www.w3.org/2000/svg">
<g id="search (1) 1" clip-path="url(#clip0_5_972)">
<path id="Vector" d="M3.32432 9.06465L2.80219 11.0138L0.893818 11.0542C0.323496 9.99638 0 8.78609 0 7.49996C0 6.25628 0.302461 5.08347 0.838594 4.05078H0.839004L2.53799 4.36227L3.28225 6.05105C3.12647 6.50519 3.04157 6.99269 3.04157 7.49996C3.04163 8.05051 3.14136 8.578 3.32432 9.06465Z" fill="#FBBB00"/>
<path id="Vector_2" d="M14.869 6.09888C14.9551 6.55257 15 7.02111 15 7.49997C15 8.03692 14.9435 8.56069 14.836 9.06592C14.4709 10.7851 13.5169 12.2864 12.1954 13.3487L12.1949 13.3483L10.055 13.2391L9.75211 11.3485C10.629 10.8342 11.3143 10.0294 11.6753 9.06592H7.66489V6.09888H11.7338H14.869Z" fill="#518EF8"/>
<path id="Vector_3" d="M12.1949 13.3483L12.1953 13.3488C10.9101 14.3818 9.27734 15 7.50001 15C4.64383 15 2.1606 13.4036 0.893829 11.0542L3.32433 9.0647C3.9577 10.7551 5.58833 11.9584 7.50001 11.9584C8.3217 11.9584 9.09151 11.7363 9.75206 11.3485L12.1949 13.3483Z" fill="#28B446"/>
<path id="Vector_4" d="M12.2872 1.72664L9.85755 3.71578C9.17391 3.28846 8.36578 3.0416 7.5 3.0416C5.54505 3.0416 3.88391 4.30011 3.28227 6.05109L0.839003 4.05082H0.838593C2.08682 1.64423 4.60137 0 7.5 0C9.31977 0 10.9883 0.648223 12.2872 1.72664Z" fill="#F14336"/>
</g>
<defs>
<clipPath id="clip0_5_972">
<rect width="15" height="15" fill="white"/>
</clipPath>
</defs>
</svg>
