<svg width="19" height="19" viewBox="0 0 19 19" fill="none" xmlns="http://www.w3.org/2000/svg">
<g id="facebook (3) 1">
<g id="_x30_1._Facebook">
<path id="Icon_11_" d="M7.68303 10.4816C7.62337 10.4816 6.37184 10.4819 5.79462 10.4814C5.49746 10.4812 5.39144 10.3744 5.39144 10.0753C5.39106 9.30717 5.39087 8.539 5.39144 7.77083C5.39163 7.47557 5.50373 7.3629 5.79709 7.36271C6.37431 7.36233 7.619 7.36252 7.68303 7.36252C7.68303 7.30989 7.68284 6.20086 7.68303 5.69014C7.68341 4.93508 7.81812 4.21232 8.20173 3.55055C8.59446 2.8732 9.16598 2.40922 9.89843 2.14094C10.3675 1.96899 10.8545 1.9004 11.3523 1.90002C11.9751 1.89964 12.598 1.90021 13.221 1.90135C13.4887 1.90173 13.6074 2.0201 13.608 2.28971C13.6091 3.01228 13.6091 3.73485 13.608 4.45723C13.6076 4.72969 13.4938 4.83913 13.22 4.84217C12.7095 4.84768 12.1986 4.84426 11.6886 4.86478C11.1735 4.86478 10.9026 5.11634 10.9026 5.64948C10.8902 6.2134 10.8975 6.77789 10.8975 7.36233C10.9457 7.36233 12.4116 7.36214 13.0967 7.36233C13.4079 7.36233 13.5143 7.4693 13.5143 7.78223C13.5143 8.54622 13.5141 9.3104 13.5136 10.0744C13.5134 10.3828 13.4134 10.4812 13.1003 10.4814C12.4152 10.4817 10.955 10.4816 10.8912 10.4816V16.6651C10.8912 16.9948 10.7874 17.0998 10.4622 17.0998C9.6691 17.0998 8.87585 17.1 8.08279 17.0998C7.79532 17.0998 7.68322 16.9881 7.68322 16.7006C7.68303 14.6868 7.68303 10.5522 7.68303 10.4816Z" fill="#3D6AD6"/>
</g>
</g>
</svg>
