<svg width="18" height="18" viewBox="0 0 18 18" fill="none" xmlns="http://www.w3.org/2000/svg">
<g id="reddit 1" clip-path="url(#clip0_5_1027)">
<path id="Vector" d="M18 9.14557C18 8.05682 17.1193 7.17613 16.0306 7.17613C15.4984 7.17613 15.0175 7.3868 14.6637 7.72998C13.3183 6.75742 11.4624 6.13065 9.39578 6.05772L10.2927 1.83527L13.2238 2.45943C13.259 3.20499 13.8694 3.79935 14.6232 3.79935C15.4012 3.79935 16.0307 3.16983 16.0307 2.39186C16.0307 1.61389 15.4012 0.984375 14.6232 0.984375C14.0694 0.984375 13.5965 1.30586 13.3669 1.77045L10.0927 1.0735C10.0009 1.05455 9.90637 1.07089 9.82796 1.12212C9.74968 1.17348 9.69557 1.25175 9.67676 1.34363C9.67676 1.34363 8.69334 6.02806 8.69334 6.05511C6.58891 6.10909 4.69789 6.7386 3.33092 7.72462C2.97702 7.38419 2.49884 7.17613 1.96944 7.17613C0.880692 7.17613 0 8.05943 0 9.14557C0 9.9451 0.47818 10.6341 1.16428 10.942C1.13461 11.1366 1.11841 11.3364 1.11841 11.5391C1.11841 14.5701 4.64653 17.0258 8.99863 17.0258C13.3507 17.0258 16.8788 14.5701 16.8788 11.5391C16.8788 11.3391 16.8626 11.1419 16.833 10.9475C17.5165 10.6394 18 9.95059 18 9.14557Z" fill="#FF4500"/>
<g id="Group">
<path id="Vector_2" d="M12.0918 11.9605C11.3165 11.9605 10.6843 11.3284 10.6843 10.553C10.6843 9.77763 11.3165 9.14551 12.0918 9.14551C12.8672 9.14551 13.4993 9.77763 13.4993 10.553C13.4993 11.3284 12.8672 11.9605 12.0918 11.9605Z" fill="white"/>
<path id="Vector_3" d="M12.3404 14.2704C11.3787 15.2293 9.53888 15.305 8.99863 15.305C8.45837 15.305 6.61597 15.2293 5.65686 14.2704C5.51376 14.1271 5.51376 13.8975 5.65686 13.7543C5.80009 13.6112 6.02971 13.6112 6.17294 13.7543C6.77802 14.3595 8.07207 14.5757 8.99863 14.5757C9.92258 14.5757 11.2192 14.3595 11.8244 13.7543C11.9675 13.6112 12.1972 13.6112 12.3404 13.7543C12.4809 13.8975 12.4809 14.1271 12.3404 14.2704Z" fill="white"/>
<path id="Vector_4" d="M4.49258 10.5532C4.49258 9.77788 5.12471 9.14575 5.90007 9.14575C6.67543 9.14575 7.30756 9.77788 7.30756 10.5532C7.30756 11.3285 6.67543 11.9607 5.90007 11.9607C5.12471 11.9606 4.49258 11.3285 4.49258 10.5532Z" fill="white"/>
</g>
</g>
<defs>
<clipPath id="clip0_5_1027">
<rect width="18" height="18" fill="white"/>
</clipPath>
</defs>
</svg>
