<svg width="24" height="23" viewBox="0 0 24 23" fill="none" xmlns="http://www.w3.org/2000/svg">
<g id="PHP" clip-path="url(#clip0_115_847)">
<path id="Vector" d="M11.5675 22.2356C17.5014 22.2356 22.3118 17.4252 22.3118 11.4913C22.3118 5.55735 17.5014 0.746948 11.5675 0.746948C5.63358 0.746948 0.823181 5.55735 0.823181 11.4913C0.823181 17.4252 5.63358 22.2356 11.5675 22.2356Z" fill="white"/>
<path id="Vector_2" d="M11.5675 6.32019H8.98199V7.18203H13.4809C13.0154 6.64765 12.3259 6.32019 11.5675 6.32019Z" fill="#906399"/>
<path id="Vector_3" d="M8.98199 8.90564H14.1531V9.76748H8.98199V8.90564Z" fill="#906399"/>
<path id="Vector_4" d="M8.98199 12.3531H11.5675C12.3259 12.3531 13.0154 12.0256 13.4809 11.4912H8.98199V12.3531Z" fill="#906399"/>
<path id="Vector_5" d="M19.5159 3.5429C17.3794 1.40647 14.5567 0.229736 11.5676 0.229736C8.57851 0.229736 5.75575 1.40647 3.61932 3.5429C1.48288 5.67933 0.306152 8.5021 0.306152 11.4912C0.306152 14.4802 1.48288 17.303 3.61932 19.4394C5.75575 21.5759 8.57851 22.7526 11.5676 22.7526C14.5567 22.7526 17.3794 21.5759 19.5159 19.4394C21.6523 17.303 22.829 14.4802 22.829 11.4912C22.829 8.5021 21.6523 5.67933 19.5159 3.5429ZM17.6005 8.90564H15.8768V9.76748H17.6005V11.4912H15.5148C14.8599 13.0079 13.3431 14.0767 11.5676 14.0767H8.98205V18.3859H7.25836V11.4912H5.53467V9.76748H7.25836V8.90564H5.53467V7.18195H7.25836V4.59641H11.5676C13.3431 4.59641 14.8599 5.66519 15.5148 7.18195H17.6005V8.90564Z" fill="#906399"/>
</g>
<defs>
<clipPath id="clip0_115_847">
<rect width="22.9825" height="22.9825" fill="white" transform="translate(0.0762939)"/>
</clipPath>
</defs>
</svg>
