<svg width="24" height="24" viewBox="0 0 24 24" fill="none" xmlns="http://www.w3.org/2000/svg">
<g id="UAH" clip-path="url(#clip0_115_853)">
<path id="Vector" d="M11.5502 22.303C17.4841 22.303 22.2945 17.4926 22.2945 11.5587C22.2945 5.62473 17.4841 0.814331 11.5502 0.814331C5.61625 0.814331 0.805847 5.62473 0.805847 11.5587C0.805847 17.4926 5.61625 22.303 11.5502 22.303Z" fill="white"/>
<path id="Vector_2" d="M19.4984 3.61028C17.362 1.47385 14.5392 0.297119 11.5501 0.297119C8.56106 0.297119 5.73829 1.47385 3.60186 3.61028C1.46543 5.74671 0.288696 8.56948 0.288696 11.5586C0.288696 14.5476 1.46543 17.3704 3.60186 19.5068C5.73829 21.6433 8.56106 22.82 11.5501 22.82C14.5392 22.82 17.362 21.6433 19.4984 19.5068C21.6351 17.3704 22.8116 14.5476 22.8116 11.5586C22.8116 8.56948 21.6351 5.74671 19.4984 3.61028ZM17.583 10.6967H13.9806C13.4808 11.0931 12.0329 12.2826 11.8603 12.4204H17.583V14.1441H9.72297C9.34367 14.4372 8.99916 14.7128 8.68876 14.9541C8.18894 15.3334 8.01657 15.7127 8.13732 16.0918C8.39564 16.8158 9.67135 17.5915 11.5501 17.5915C12.9291 17.5915 14.3597 17.0571 14.8251 16.3849L16.2557 17.3675C15.325 18.7119 13.222 19.3152 11.5501 19.3152C9.06806 19.3152 7.05126 18.2464 6.51709 16.6434C6.22398 15.7816 6.41363 14.8852 7.05126 14.1441H5.51722V12.4204H9.11968C9.80916 11.8687 10.5332 11.2654 11.24 10.6967H5.51722V8.97302H13.3773C13.7736 8.64556 14.1357 8.38701 14.3942 8.18008C14.894 7.801 15.0837 7.4217 14.9629 7.02534C14.7217 6.3013 13.4462 5.52564 11.5501 5.52564C10.1712 5.52564 8.74061 6.06003 8.27512 6.73222L6.86183 5.74963C7.7753 4.40524 9.87829 3.80195 11.5501 3.80195C14.0322 3.80195 16.0663 4.88779 16.6004 6.49095C16.8763 7.37008 16.6866 8.23192 16.0663 8.97302H17.583V10.6967Z" fill="#FFB015"/>
</g>
<defs>
<clipPath id="clip0_115_853">
<rect width="22.9825" height="22.9825" fill="white" transform="translate(0.0588379 0.0673828)"/>
</clipPath>
</defs>
</svg>
