<svg width="24" height="24" viewBox="0 0 24 24" fill="none" xmlns="http://www.w3.org/2000/svg">
<g id="EUR (1)" clip-path="url(#clip0_115_856)">
<path id="Vector" d="M11.5327 22.303C17.4666 22.303 22.277 17.4926 22.277 11.5587C22.277 5.62473 17.4666 0.814331 11.5327 0.814331C5.59873 0.814331 0.78833 5.62473 0.78833 11.5587C0.78833 17.4926 5.59873 22.303 11.5327 22.303Z" fill="white"/>
<path id="Vector_2" d="M19.4809 3.61028C17.3444 1.47385 14.5217 0.297119 11.5326 0.297119C8.54354 0.297119 5.72077 1.47385 3.58434 3.61028C1.44791 5.74671 0.271179 8.56948 0.271179 11.5586C0.271179 14.5476 1.44791 17.3704 3.58434 19.5068C5.72077 21.6433 8.54354 22.82 11.5326 22.82C14.5217 22.82 17.3444 21.6433 19.4809 19.5068C21.6173 17.3704 22.794 14.5476 22.794 11.5586C22.794 8.56948 21.6173 5.74671 19.4809 3.61028ZM13.2563 8.97302V10.6967H8.15414C8.10252 10.9725 8.08523 11.2654 8.08523 11.5586C8.08523 11.8517 8.10252 12.1446 8.15414 12.4204H13.2563V14.1441H8.65396C8.86089 14.5404 9.10217 14.9197 9.39528 15.2645C10.2053 16.2125 11.2741 16.7296 12.3945 16.7296C13.7734 16.7296 15.0835 15.9194 15.8937 14.5577L17.3759 15.4541C16.2555 17.3329 14.394 18.4533 12.3945 18.4533C10.757 18.4533 9.22291 17.7122 8.08523 16.3849C7.51651 15.73 7.08558 14.9714 6.80975 14.1441H4.63786V12.4204H6.41339C6.37883 12.1446 6.36155 11.8517 6.36155 11.5586C6.36155 11.2654 6.37883 10.9725 6.41339 10.6967H4.63786V8.97302H6.80975C7.08536 8.14551 7.51628 7.38714 8.08523 6.73222C9.22291 5.40489 10.757 4.6638 12.3945 4.6638C14.394 4.6638 16.2555 5.78419 17.3759 7.66297L15.8935 8.55938C15.0835 7.19748 13.7734 6.38749 12.3945 6.38749C11.2741 6.38749 10.2053 6.90459 9.39528 7.85262C9.10217 8.19736 8.86089 8.57644 8.65396 8.97302H13.2563Z" fill="#2B7FFF"/>
</g>
<defs>
<clipPath id="clip0_115_856">
<rect width="22.9825" height="22.9825" fill="white" transform="translate(0.0413818 0.0673828)"/>
</clipPath>
</defs>
</svg>
