<svg width="23" height="24" viewBox="0 0 23 24" fill="none" xmlns="http://www.w3.org/2000/svg">
<g id="RUB" clip-path="url(#clip0_115_859)">
<path id="Vector" d="M11.5152 22.303C17.4491 22.303 22.2595 17.4926 22.2595 11.5587C22.2595 5.62473 17.4491 0.814331 11.5152 0.814331C5.58127 0.814331 0.770874 5.62473 0.770874 11.5587C0.770874 17.4926 5.58127 22.303 11.5152 22.303Z" fill="white"/>
<path id="Vector_2" d="M14.1007 6.38757H10.6533V9.83495H14.1007C15.0487 9.83495 15.8244 9.05929 15.8244 8.11126C15.8244 7.16323 15.0487 6.38757 14.1007 6.38757Z" fill="#FD4B4B"/>
<path id="Vector_3" d="M19.3826 3.57657C17.2679 1.46188 14.4738 0.297119 11.5152 0.297119C8.55653 0.297119 5.76249 1.46188 3.6478 3.57657C1.5331 5.69126 0.368347 8.4853 0.368347 11.444C0.368347 14.4026 1.5331 17.1967 3.6478 19.3113C5.76249 21.426 8.55653 22.5908 11.5152 22.5908C14.4738 22.5908 17.2679 21.426 19.3826 19.3113C21.4975 17.1967 22.662 14.4026 22.662 11.444C22.662 8.4853 21.4975 5.69126 19.3826 3.57657ZM14.0744 11.444H10.6621V13.1501H14.9275V14.8563H10.6621V18.2685H8.95596V14.8563H7.24981V13.1501H8.95596V11.444H7.24981V9.73781H8.95596V4.61936H14.0744C15.9512 4.61936 17.4867 6.15489 17.4867 8.03166C17.4867 9.90842 15.9512 11.444 14.0744 11.444Z" fill="#FD4B4B"/>
</g>
<defs>
<clipPath id="clip0_115_859">
<rect width="22.9825" height="22.9825" fill="white" transform="translate(0.0239258 0.0673828)"/>
</clipPath>
</defs>
</svg>
