<svg width="24" height="23" viewBox="0 0 24 23" fill="none" xmlns="http://www.w3.org/2000/svg">
<g id="INR" clip-path="url(#clip0_115_882)">
<path id="Vector" d="M12.2267 21.8907C18.0421 21.8907 22.7564 17.1764 22.7564 11.361C22.7564 5.54561 18.0421 0.831299 12.2267 0.831299C6.41131 0.831299 1.69699 5.54561 1.69699 11.361C1.69699 17.1764 6.41131 21.8907 12.2267 21.8907Z" fill="white"/>
<path id="Vector_2" d="M20.0162 3.57157C17.9225 1.47781 15.1561 0.324585 12.2267 0.324585C9.29737 0.324585 6.53099 1.47781 4.43723 3.57157C2.34347 5.66533 1.19025 8.43171 1.19025 11.3611C1.19025 14.2904 2.34347 17.0568 4.43723 19.1506C6.53099 21.2443 9.29737 22.3976 12.2267 22.3976C15.1561 22.3976 17.9225 21.2443 20.0162 19.1506C22.11 17.0568 23.2632 14.2904 23.2632 11.3611C23.2632 8.43171 22.11 5.66533 20.0162 3.57157ZM17.2945 6.2933H13.916C14.2877 6.78314 14.5411 7.35745 14.6762 7.98256H17.2945V9.67182H14.6762C14.3552 11.2091 13.2403 12.4252 11.7538 12.8814L17.0073 17.4763L15.8925 18.7599L9.37193 13.0503H7.15896V11.3611H10.5375C11.6355 11.3611 12.5815 10.6515 12.9194 9.67182H7.15896V7.98256H12.9194C12.5815 7.00288 11.6355 6.2933 10.5375 6.2933H7.15896V4.60404H17.2945V6.2933Z" fill="#B83CFA"/>
</g>
<defs>
<clipPath id="clip0_115_882">
<rect width="22.5235" height="22.5235" fill="white" transform="translate(0.965088 0.0993652)"/>
</clipPath>
</defs>
</svg>
