<svg width="23" height="23" viewBox="0 0 23 23" fill="none" xmlns="http://www.w3.org/2000/svg">
<g id="JET (1)" clip-path="url(#clip0_115_828)">
<path id="Vector" d="M11.302 22.1202C17.3659 22.1202 22.2816 17.2044 22.2816 11.1406C22.2816 5.07674 17.3659 0.161011 11.302 0.161011C5.23817 0.161011 0.322449 5.07674 0.322449 11.1406C0.322449 17.2044 5.23817 22.1202 11.302 22.1202Z" fill="white"/>
<path id="Vector_2" d="M7.78416 9.40272C7.75563 10.176 6.66399 10.1655 6.61444 9.40272C6.65648 8.64143 7.81569 8.60689 7.78416 9.40272Z" fill="#FF562D"/>
<path id="Vector_3" d="M9.77682 10.3997C9.76331 11.1505 8.63113 11.131 8.61011 10.3907C8.64464 9.63243 9.76631 9.63994 9.77682 10.3997Z" fill="#FF562D"/>
<path id="Vector_4" d="M5.24195 10.8127C6.00474 10.8728 5.93116 11.9825 5.17588 11.972C4.40858 11.8999 4.45212 10.7812 5.24195 10.8188V10.8127Z" fill="#FF562D"/>
<path id="Vector_5" d="M17.2079 4.04358C17.2079 4.04358 17.2079 4.04358 17.2079 4.03307C17.2043 3.37598 16.9398 2.74722 16.4727 2.28512C16.0055 1.82302 15.3739 1.56542 14.7168 1.56901C14.0597 1.57259 13.4309 1.83706 12.9688 2.30423C12.5067 2.7714 12.2491 3.40301 12.2527 4.0601V13.7752C12.3684 14.7227 11.2992 15.481 10.4418 15.0711C10.1949 14.9619 9.9882 14.7784 9.85063 14.546C9.71307 14.3137 9.65151 14.0442 9.67455 13.7752V12.4418C9.68544 12.346 9.66689 12.2492 9.62137 12.1642C9.57586 12.0792 9.50554 12.0101 9.41977 11.9661C9.33401 11.9221 9.23687 11.9052 9.14128 11.9178C9.0457 11.9303 8.95621 11.9717 8.88473 12.0364C8.78956 12.1234 8.73195 12.244 8.72406 12.3728C8.6655 12.8232 8.31413 13.0154 7.95976 12.8488C7.85996 12.7987 7.77777 12.7195 7.72412 12.6216C7.67047 12.5237 7.64791 12.4117 7.65945 12.3007V11.3607C7.66273 11.2884 7.64855 11.2164 7.6181 11.1508C7.58766 11.0851 7.54185 11.0278 7.48454 10.9836C7.42724 10.9394 7.36014 10.9096 7.28891 10.8969C7.21768 10.8841 7.14443 10.8887 7.07534 10.9102C6.96551 10.9401 6.8702 11.0087 6.807 11.1034C6.7438 11.198 6.71698 11.3124 6.73149 11.4253V13.2782C6.73149 13.6386 6.57232 13.8548 6.25549 13.8788C5.80502 13.9104 5.72994 13.5785 5.63685 13.1611C5.47017 12.7827 4.85003 12.8307 4.74792 13.2332C4.72038 13.7314 4.73948 14.2311 4.80498 14.7257C5.2134 17.9586 8.3787 20.4316 11.6161 20.0743C14.6657 19.81 17.1944 17.0847 17.2154 14.023L17.2079 4.04358Z" fill="#FF562D"/>
</g>
<defs>
<clipPath id="clip0_115_828">
<rect width="22.5235" height="22.5235" fill="white"/>
</clipPath>
</defs>
</svg>
