<svg width="23" height="23" viewBox="0 0 23 23" fill="none" xmlns="http://www.w3.org/2000/svg">
<g id="AZN" clip-path="url(#clip0_115_869)">
<path id="Vector" d="M11.2736 21.8907C17.089 21.8907 21.8033 17.1764 21.8033 11.361C21.8033 5.54561 17.089 0.831299 11.2736 0.831299C5.45821 0.831299 0.743896 5.54561 0.743896 11.361C0.743896 17.1764 5.45821 21.8907 11.2736 21.8907Z" fill="white"/>
<path id="Vector_2" d="M19.0631 3.57157C16.9694 1.47781 14.203 0.324585 11.2736 0.324585C8.34424 0.324585 5.57786 1.47781 3.48411 3.57157C1.39035 5.66533 0.237122 8.43171 0.237122 11.3611C0.237122 14.2904 1.39035 17.0568 3.48411 19.1506C5.57786 21.2443 8.34424 22.3976 11.2736 22.3976C14.203 22.3976 16.9694 21.2443 19.0631 19.1506C21.1569 17.0568 22.3101 14.2904 22.3101 11.3611C22.3101 8.43171 21.1569 5.66533 19.0631 3.57157ZM17.186 15.5842H15.4968V13.0503C15.4968 11.0063 14.044 9.30009 12.1182 8.91165V13.895H10.429V8.91165C8.50327 9.30009 7.05047 11.0063 7.05047 13.0503V15.5842H5.36121V13.0503C5.36121 10.0772 7.57418 7.61083 10.429 7.20546V5.44867H12.1182V7.20546C14.973 7.61083 17.186 10.0772 17.186 13.0503V15.5842Z" fill="#F25E03"/>
</g>
<defs>
<clipPath id="clip0_115_869">
<rect width="22.5235" height="22.5235" fill="white" transform="translate(0.0119629 0.0993652)"/>
</clipPath>
</defs>
</svg>
