<svg width="24" height="24" viewBox="0 0 24 24" fill="none" xmlns="http://www.w3.org/2000/svg">
<g id="CAD" clip-path="url(#clip0_115_872)">
<path id="Vector" d="M11.5502 22.335C17.4841 22.335 22.2945 17.5246 22.2945 11.5906C22.2945 5.65671 17.4841 0.846313 11.5502 0.846313C5.61625 0.846313 0.805847 5.65671 0.805847 11.5906C0.805847 17.5246 5.61625 22.335 11.5502 22.335Z" fill="white"/>
<path id="Vector_2" d="M12.412 12.4523H14.1357V15.8996H12.412V12.4523Z" fill="#D62718"/>
<path id="Vector_3" d="M8.96454 7.28149H10.6882V10.7289H8.96454V7.28149Z" fill="#D62718"/>
<path id="Vector_4" d="M19.4985 3.64226C17.362 1.50583 14.5393 0.329102 11.5502 0.329102C8.56112 0.329102 5.73835 1.50583 3.60192 3.64226C1.46549 5.7787 0.288757 8.60146 0.288757 11.5905C0.288757 14.5796 1.46549 17.4024 3.60192 19.5388C5.73835 21.6752 8.56112 22.852 11.5502 22.852C14.5393 22.852 17.362 21.6752 19.4985 19.5388C21.6349 17.4024 22.8116 14.5796 22.8116 11.5905C22.8116 8.60146 21.6349 5.7787 19.4985 3.64226ZM15.8594 9.005H14.1357V7.28131H12.412V10.7287H15.8594V17.6234H12.412V19.3471H10.6883V17.6234H7.24097V14.1761H8.96466V15.8998H10.6883V12.4524H7.24097V5.55762H10.6883V3.83394H12.412V5.55762H15.8594V9.005Z" fill="#D62718"/>
</g>
<defs>
<clipPath id="clip0_115_872">
<rect width="22.9825" height="22.9825" fill="white" transform="translate(0.0588379 0.0993652)"/>
</clipPath>
</defs>
</svg>
