<svg width="25" height="26" viewBox="0 0 25 26" fill="none" xmlns="http://www.w3.org/2000/svg">
<g id="DOT">
<path id="Vector" d="M12.0958 24.3017C18.3309 24.3017 23.3854 19.2472 23.3854 13.0121C23.3854 6.77709 18.3309 1.7226 12.0958 1.7226C5.8608 1.7226 0.806305 6.77709 0.806305 13.0121C0.806305 19.2472 5.8608 24.3017 12.0958 24.3017Z" fill="#262964"/>
<path id="Vector_2" d="M12.096 22.6889C17.4403 22.6889 21.7727 18.3565 21.7727 13.0121C21.7727 7.66781 17.4403 3.33539 12.096 3.33539C6.75165 3.33539 2.41922 7.66781 2.41922 13.0121C2.41922 18.3565 6.75165 22.6889 12.096 22.6889Z" fill="#555ABE"/>
<g id="Group">
<path id="Vector_3" d="M12.0969 9.03056C13.4631 9.03056 14.5707 8.38642 14.5707 7.59182C14.5707 6.79722 13.4631 6.15308 12.0969 6.15308C10.7306 6.15308 9.62308 6.79722 9.62308 7.59182C9.62308 8.38642 10.7306 9.03056 12.0969 9.03056Z" fill="white"/>
<path id="Vector_4" d="M12.0969 19.8713C13.4631 19.8713 14.5707 19.2271 14.5707 18.4325C14.5707 17.6379 13.4631 16.9938 12.0969 16.9938C10.7306 16.9938 9.62308 17.6379 9.62308 18.4325C9.62308 19.2271 10.7306 19.8713 12.0969 19.8713Z" fill="white"/>
<path id="Vector_5" d="M8.64929 11.0221C9.3324 9.83894 9.32797 8.55753 8.6394 8.15997C7.95083 7.76242 6.83887 8.39926 6.15576 9.5824C5.47265 10.7655 5.47708 12.047 6.16565 12.4445C6.85422 12.8421 7.96619 12.2052 8.64929 11.0221Z" fill="white"/>
<path id="Vector_6" d="M18.0364 16.442C18.7195 15.2588 18.7154 13.9776 18.0273 13.5803C17.3392 13.183 16.2276 13.8201 15.5445 15.0032C14.8614 16.1864 14.8654 17.4676 15.5536 17.8649C16.2417 18.2622 17.3533 17.6251 18.0364 16.442Z" fill="white"/>
<path id="Vector_7" d="M8.63968 17.8641C9.32825 17.4666 9.33268 16.1852 8.64957 15.002C7.96646 13.8189 6.8545 13.182 6.16593 13.5796C5.47736 13.9772 5.47293 15.2586 6.15603 16.4417C6.83914 17.6249 7.95111 18.2617 8.63968 17.8641Z" fill="white"/>
<path id="Vector_8" d="M18.028 12.4448C18.7161 12.0475 18.7202 10.7663 18.0371 9.58316C17.354 8.40002 16.2424 7.76297 15.5542 8.16027C14.8661 8.55757 14.8621 9.83877 15.5452 11.0219C16.2283 12.2051 17.3399 12.8421 18.028 12.4448Z" fill="white"/>
</g>
</g>
</svg>
