<svg width="26" height="26" viewBox="0 0 26 26" fill="none" xmlns="http://www.w3.org/2000/svg">
<path d="M24.0453 12.9303C24.0453 19.1869 18.9736 24.2582 12.7174 24.2582C6.46119 24.2582 1.38947 19.1869 1.38947 12.9303C1.38947 6.67408 6.46119 1.60236 12.7174 1.60236C18.9736 1.60236 24.0453 6.67408 24.0453 12.9303Z" fill="#EA9455"/>
<path fill-rule="evenodd" clip-rule="evenodd" d="M12.7174 22.1342C17.8005 22.1342 21.9213 18.0137 21.9213 12.9303C21.9213 7.84723 17.8005 3.72634 12.7174 3.72634C7.63399 3.72634 3.51345 7.84723 3.51345 12.9303C3.51345 18.0137 7.63399 22.1342 12.7174 22.1342ZM12.7174 24.2582C18.9736 24.2582 24.0453 19.1869 24.0453 12.9303C24.0453 6.67408 18.9736 1.60236 12.7174 1.60236C6.46119 1.60236 1.38947 6.67408 1.38947 12.9303C1.38947 19.1869 6.46119 24.2582 12.7174 24.2582Z" fill="#FFB167"/>
<path d="M7.89306 8.74125H8.71674V11.8301L11.5212 8.74125H12.5508L9.98168 11.5457L12.943 15.4288H11.9134L9.41295 12.1537L8.71674 12.9185V15.4288H7.89306V8.74125ZM13.7344 8.74125H17.8332V9.4963H14.5581V11.6339H17.5978V12.3694H14.5581V14.6737H17.9312V15.4288H13.7344V8.74125Z" fill="white"/>
<path d="M7.89306 8.74125V8.56425H7.71606V8.74125H7.89306ZM8.71674 8.74125H8.89374V8.56425H8.71674V8.74125ZM8.71674 11.8301H8.53974V12.2883L8.84778 11.949L8.71674 11.8301ZM11.5212 8.74125V8.56425H11.4428L11.3901 8.62227L11.5212 8.74125ZM12.5508 8.74125L12.6813 8.86082L12.953 8.56425H12.5508V8.74125ZM9.98168 11.5457L9.85117 11.4261L9.75116 11.5353L9.84094 11.653L9.98168 11.5457ZM12.943 15.4288V15.6058H13.3006L13.0838 15.3214L12.943 15.4288ZM11.9134 15.4288L11.7727 15.5362L11.8259 15.6058H11.9134V15.4288ZM9.41295 12.1537L9.55363 12.0462L9.42488 11.8776L9.28205 12.0345L9.41295 12.1537ZM8.71674 12.9185L8.58585 12.7994L8.53974 12.85V12.9185H8.71674ZM8.71674 15.4288V15.6058H8.89374V15.4288H8.71674ZM7.89306 15.4288H7.71606V15.6058H7.89306V15.4288ZM7.89306 8.91825H8.71674V8.56425H7.89306V8.91825ZM8.53974 8.74125V11.8301H8.89374V8.74125H8.53974ZM8.84778 11.949L11.6522 8.86023L11.3901 8.62227L8.5857 11.7111L8.84778 11.949ZM11.5212 8.91825H12.5508V8.56425H11.5212V8.91825ZM12.4203 8.62169L9.85117 11.4261L10.1122 11.6653L12.6813 8.86082L12.4203 8.62169ZM9.84094 11.653L12.8023 15.5361L13.0838 15.3214L10.1224 11.4384L9.84094 11.653ZM12.943 15.2518H11.9134V15.6058H12.943V15.2518ZM12.0541 15.3214L9.55363 12.0462L9.27226 12.2611L11.7727 15.5362L12.0541 15.3214ZM9.28205 12.0345L8.58585 12.7994L8.84763 13.0376L9.54384 12.2728L9.28205 12.0345ZM8.53974 12.9185V15.4288H8.89374V12.9185H8.53974ZM8.71674 15.2518H7.89306V15.6058H8.71674V15.2518ZM8.07006 15.4288V8.74125H7.71606V15.4288H8.07006ZM13.7344 8.74125V8.56425H13.5574V8.74125H13.7344ZM17.8332 8.74125H18.0102V8.56425H17.8332V8.74125ZM17.8332 9.4963V9.6733H18.0102V9.4963H17.8332ZM14.5581 9.4963V9.3193H14.3811V9.4963H14.5581ZM14.5581 11.6339H14.3811V11.8109H14.5581V11.6339ZM17.5978 11.6339H17.7748V11.4569H17.5978V11.6339ZM17.5978 12.3694V12.5464H17.7748V12.3694H17.5978ZM14.5581 12.3694V12.1924H14.3811V12.3694H14.5581ZM14.5581 14.6737H14.3811V14.8507H14.5581V14.6737ZM17.9312 14.6737H18.1082V14.4967H17.9312V14.6737ZM17.9312 15.4288V15.6058H18.1082V15.4288H17.9312ZM13.7344 15.4288H13.5574V15.6058H13.7344V15.4288ZM13.7344 8.91825H17.8332V8.56425H13.7344V8.91825ZM17.6562 8.74125V9.4963H18.0102V8.74125H17.6562ZM17.8332 9.3193H14.5581V9.6733H17.8332V9.3193ZM14.3811 9.4963V11.6339H14.7351V9.4963H14.3811ZM14.5581 11.8109H17.5978V11.4569H14.5581V11.8109ZM17.4208 11.6339V12.3694H17.7748V11.6339H17.4208ZM17.5978 12.1924H14.5581V12.5464H17.5978V12.1924ZM14.3811 12.3694V14.6737H14.7351V12.3694H14.3811ZM14.5581 14.8507H17.9312V14.4967H14.5581V14.8507ZM17.7542 14.6737V15.4288H18.1082V14.6737H17.7542ZM17.9312 15.2518H13.7344V15.6058H17.9312V15.2518ZM13.9114 15.4288V8.74125H13.5574V15.4288H13.9114Z" fill="#DC8400"/>
</svg>
