<svg width="23" height="23" viewBox="0 0 23 23" fill="none" xmlns="http://www.w3.org/2000/svg">
<g id="NZD" clip-path="url(#clip0_115_942)">
<path id="Vector" d="M22.5235 11.2617C22.5235 17.4814 17.4814 22.5235 11.2617 22.5235C5.04205 22.5235 0 17.4814 0 11.2617C0 5.04205 5.04205 0 11.2617 0C17.4814 0 22.5235 5.04205 22.5235 11.2617Z" fill="#8EC849"/>
<path id="Vector_2" fill-rule="evenodd" clip-rule="evenodd" d="M11.2617 20.4119C16.3152 20.4119 20.4119 16.3152 20.4119 11.2617C20.4119 6.20824 16.3152 2.11157 11.2617 2.11157C6.20824 2.11157 2.11157 6.20824 2.11157 11.2617C2.11157 16.3152 6.20824 20.4119 11.2617 20.4119ZM11.2617 22.5235C17.4814 22.5235 22.5235 17.4814 22.5235 11.2617C22.5235 5.04205 17.4814 0 11.2617 0C5.04205 0 0 5.04205 0 11.2617C0 17.4814 5.04205 22.5235 11.2617 22.5235Z" fill="#9DE352"/>
<path id="Vector_3" d="M13.7316 8.53703C13.2862 8.18236 12.7995 8.00502 12.2716 8.00502C11.2777 8.00502 10.7808 8.38239 10.7808 9.1371C10.7808 9.47116 11.0447 9.83822 11.5726 10.2383C12.2242 10.729 12.6779 11.0878 12.9336 11.3147C13.1893 11.5374 13.4017 11.8281 13.5707 12.1869C13.744 12.5416 13.8306 12.9334 13.8306 13.3623C13.8306 14.1088 13.6017 14.7088 13.1439 15.1625C12.6861 15.612 12.0489 15.8884 11.2324 15.9915L11.0529 16.9565H9.64867L9.82809 15.9605C9.27545 15.8739 8.76818 15.7193 8.30627 15.4966L8.8259 13.8943C9.37853 14.315 10.0199 14.5253 10.7498 14.5253C11.6901 14.5253 12.1603 14.1603 12.1603 13.4304C12.1603 13.2283 12.0964 13.0282 11.9685 12.8303C11.8407 12.6282 11.6571 12.4323 11.418 12.2426C11.1829 12.0529 10.6797 11.6611 9.9085 11.0672C9.38061 10.5517 9.11666 9.964 9.11666 9.30413C9.11666 8.5989 9.31874 8.01121 9.72293 7.54104C10.1271 7.06678 10.6859 6.7657 11.3994 6.63785L11.6283 5.4068H13.0325L12.8098 6.60691C13.4408 6.65228 13.9131 6.75335 14.2265 6.91006L13.7316 8.53703Z" fill="white"/>
<path id="Vector_4" fill-rule="evenodd" clip-rule="evenodd" d="M13.9176 9.13506L13.5124 8.81241C13.1241 8.50317 12.7135 8.35701 12.2717 8.35701C11.8092 8.35701 11.5268 8.44654 11.3663 8.56838C11.2242 8.67635 11.1327 8.84405 11.1327 9.13717C11.1327 9.29022 11.2665 9.56465 11.7848 9.95751C12.4353 10.4475 12.8985 10.8133 13.166 11.0504C13.463 11.3095 13.7021 11.6408 13.8881 12.0348C14.0861 12.441 14.1825 12.8855 14.1825 13.3624C14.1825 14.1866 13.9267 14.8823 13.3916 15.4126L13.3905 15.4137C12.9165 15.8792 12.2887 16.1687 11.5326 16.3021L11.3455 17.3085H9.22772L9.4197 16.2428C8.96986 16.1463 8.54741 16.0036 8.15342 15.8136L7.87677 15.6802L8.64426 13.3138L9.03909 13.6144C9.52718 13.9859 10.0927 14.1734 10.7498 14.1734C11.1842 14.1734 11.4453 14.0875 11.5919 13.9737C11.7216 13.8729 11.8084 13.714 11.8084 13.4304C11.8084 13.3067 11.7702 13.172 11.6729 13.0213L11.6711 13.0185C11.5693 12.8576 11.4157 12.69 11.1993 12.5184L11.1969 12.5165C10.9655 12.3298 10.4657 11.9405 9.69381 11.3461L9.67741 11.3335L9.66263 11.3191C9.07572 10.7459 8.76476 10.0705 8.76476 9.30419C8.76476 8.52738 8.98932 7.85491 9.45556 7.31227C9.87207 6.82376 10.4258 6.50396 11.0965 6.34201L11.3358 5.05493H13.4558L13.226 6.29319C13.6958 6.35021 14.0872 6.44699 14.3839 6.59532L14.6497 6.72825L13.9176 9.13506ZM13.1617 6.63998C13.6194 6.69397 13.9744 6.78403 14.2265 6.91013L13.7316 8.53709C13.6324 8.45808 13.5311 8.38787 13.4279 8.32646C13.0674 8.11221 12.682 8.00508 12.2717 8.00508C11.2777 8.00508 10.7808 8.38246 10.7808 9.13717C10.7808 9.47122 11.0447 9.83828 11.5726 10.2383C12.2243 10.7291 12.6779 11.0879 12.9336 11.3147C13.1893 11.5374 13.4017 11.8282 13.5708 12.187C13.744 12.5417 13.8306 12.9335 13.8306 13.3624C13.8306 14.1088 13.6017 14.7089 13.1439 15.1626C12.6862 15.6121 12.049 15.8884 11.2324 15.9915L11.053 16.9566H9.6487L9.82811 15.9606C9.73429 15.9459 9.6418 15.9293 9.55061 15.9106C9.10458 15.8195 8.6898 15.6815 8.30626 15.4966L8.82592 13.8944C8.92432 13.9693 9.0255 14.0375 9.12953 14.0991C9.6097 14.3833 10.1498 14.5254 10.7498 14.5254C11.6902 14.5254 12.1603 14.1604 12.1603 13.4304C12.1603 13.2283 12.0964 13.0283 11.9685 12.8303C11.8407 12.6283 11.6572 12.4324 11.4179 12.2427C11.1829 12.0529 10.6797 11.6612 9.90853 11.0673C9.38063 10.5517 9.11669 9.96406 9.11669 9.30419C9.11669 8.59896 9.31876 8.01128 9.72292 7.5411C10.1271 7.06684 10.6859 6.76576 11.3994 6.63791L11.6283 5.40686H13.0326L12.8099 6.60697C12.9332 6.61584 13.0505 6.62686 13.1617 6.63998Z" fill="#7DB13F"/>
</g>
<defs>
<clipPath id="clip0_115_942">
<rect width="22.5235" height="22.5235" fill="white"/>
</clipPath>
</defs>
</svg>
