<svg width="23" height="23" viewBox="0 0 23 23" fill="none" xmlns="http://www.w3.org/2000/svg">
<g id="USDC" clip-path="url(#clip0_115_947)">
<path id="Vector" d="M21.8242 13.8767C20.3448 19.8106 14.3337 23.422 8.39866 21.9422C2.46574 20.4628 -1.14593 14.4523 0.334183 8.51872C1.81326 2.58408 7.82406 -1.02759 13.7577 0.451828C19.6923 1.93125 23.3036 7.94239 21.8242 13.8767Z" fill="#2775CA"/>
<path id="Vector_2" d="M1.34025 8.7702C2.68052 3.39181 8.1278 0.118663 13.5048 1.45928C18.8832 2.7999 22.156 8.24717 20.8154 13.6252C19.4744 19.0026 14.0275 22.2754 8.6484 20.9344C3.27174 19.5941 -0.00105603 14.1472 1.34025 8.7702Z" stroke="white" stroke-opacity="0.24" stroke-width="2.07687"/>
<path id="Vector_3" opacity="0.3" d="M21.4931 7.43382L0.143599 12.9732C-0.0970713 11.4912 -0.0327608 9.97562 0.332593 8.51933C1.81098 2.58468 7.82212 -1.02734 13.7557 0.452429C17.4733 1.37906 20.2792 4.08314 21.4931 7.43382Z" fill="white"/>
<g id="Group">
<path id="Vector_4" d="M19.8074 13.3748C18.6052 18.1959 13.7215 21.1301 8.89898 19.9273C4.07857 18.7262 1.14396 13.8427 2.34646 9.0213C3.54828 4.19951 8.43237 1.26489 13.2535 2.46705C18.0749 3.66887 21.0095 8.55297 19.8074 13.3748Z" fill="#2775CA"/>
</g>
<g id="Group_2">
<path id="Vector_5" d="M6.24345 9.48991C5.2424 12.1483 6.62317 15.1515 9.31582 16.1179C9.41932 16.1871 9.52282 16.3249 9.52282 16.4287V16.9119C9.52282 16.9812 9.52282 17.0158 9.4882 17.0501C9.45359 17.1882 9.31582 17.257 9.17771 17.1882C7.2445 16.5668 5.76023 15.0822 5.13855 13.149C4.10324 9.86963 5.89834 6.38327 9.17771 5.3476C9.21233 5.31299 9.28121 5.31299 9.31582 5.31299C9.45394 5.3476 9.52282 5.4511 9.52282 5.58921V6.07243C9.52282 6.24516 9.45359 6.34865 9.31582 6.41754C7.90044 6.93537 6.76128 8.04026 6.24345 9.48991ZM12.6644 5.48571C12.699 5.34726 12.8368 5.27837 12.9749 5.34726C14.8735 5.96893 16.3924 7.4532 17.0141 9.42103C18.0494 12.7004 16.2543 16.1871 12.9749 17.2228C12.9403 17.2574 12.8714 17.2574 12.8368 17.2574C12.6987 17.2228 12.6298 17.1189 12.6298 16.9812V16.4976C12.6298 16.3252 12.699 16.2214 12.8368 16.1525C14.2522 15.6347 15.3914 14.5301 15.9092 13.0801C16.9102 10.4217 15.5295 7.41859 12.8368 6.45215C12.7333 6.38292 12.6298 6.24516 12.6298 6.10704V5.62383C12.6298 5.5546 12.6298 5.52033 12.6644 5.48571Z" fill="white"/>
<path id="Vector_6" d="M11.1803 10.6987C12.6299 10.8711 13.3548 11.2854 13.3548 12.4938C13.3548 13.4257 12.6645 14.1508 11.6289 14.3232V15.1519C11.5943 15.3243 11.4904 15.4281 11.3527 15.4281H10.8348C10.6621 15.3935 10.5586 15.2896 10.5586 15.1519V14.3232C9.41944 14.1508 8.86699 13.5292 8.72888 12.6662V12.6316C8.72888 12.4938 8.83273 12.39 8.97049 12.39H9.55755C9.66139 12.39 9.76455 12.4592 9.79916 12.5973C9.903 13.1152 10.2135 13.4949 11.111 13.4949C11.767 13.4949 12.2499 13.1152 12.2499 12.5627C12.2499 12.0103 11.9394 11.8033 10.9726 11.6309C9.52294 11.4578 8.83272 11.0092 8.83272 9.87006C8.83272 9.00712 9.48832 8.31656 10.524 8.17845V7.38474C10.5586 7.21202 10.6624 7.10852 10.8002 7.10852H11.318C11.4908 7.14313 11.5943 7.24663 11.5943 7.38474V8.21307C11.973 8.24491 12.3306 8.40097 12.6116 8.65698C12.8925 8.91299 13.081 9.25463 13.1478 9.6288V9.66307C13.1478 9.80118 13.0439 9.90468 12.9062 9.90468H12.3537C12.3006 9.90405 12.249 9.88716 12.2058 9.85628C12.1626 9.82539 12.1299 9.782 12.1121 9.73195C11.9394 9.21412 11.5943 9.00712 10.9729 9.00712C10.2824 9.00712 9.93727 9.31761 9.93727 9.80118C9.93727 10.2844 10.1446 10.5606 11.1803 10.6987Z" fill="white"/>
</g>
</g>
<defs>
<clipPath id="clip0_115_947">
<rect width="22.1532" height="22.1532" fill="white" transform="translate(0 0.120605)"/>
</clipPath>
</defs>
</svg>
