<svg width="23" height="23" viewBox="0 0 23 23" fill="none" xmlns="http://www.w3.org/2000/svg">
<g id="BNB (1)" clip-path="url(#clip0_115_956)">
<g id="Clip path group">
<mask id="mask0_115_956" style="mask-type:luminance" maskUnits="userSpaceOnUse" x="0" y="0" width="23" height="23">
<g id="clip0123321">
<path id="Vector" d="M0 0H22.5235V22.5235H0V0Z" fill="white"/>
</g>
</mask>
<g mask="url(#mask0_115_956)">
<g id="Group">
<path id="Vector_2" d="M22.1883 13.986C20.6842 20.0191 14.5726 23.6908 8.53842 22.1863C2.50636 20.6821 -1.16567 14.5712 0.339178 8.53847C1.84297 2.50464 7.95422 -1.16738 13.987 0.336762C20.0208 1.84091 23.6925 7.95251 22.1883 13.986Z" fill="#F0B90B"/>
<path id="Vector_3" d="M1.36273 8.79418C2.7254 3.32591 8.26371 -0.00193185 13.7306 1.36109C19.1988 2.72411 22.5263 8.26242 21.1633 13.7303C19.7999 19.1976 14.262 22.525 8.79301 21.1617C3.3265 19.799 -0.000990937 14.261 1.36273 8.79418Z" stroke="white" stroke-opacity="0.24" stroke-width="2.11157"/>
<path id="Vector_4" opacity="0.3" d="M21.8513 7.43524L0.145006 13.0672C-0.0996853 11.5604 -0.0343002 10.0195 0.33716 8.53889C1.84025 2.50506 7.95185 -1.16731 13.9846 0.337182C17.7643 1.2793 20.6171 4.02856 21.8513 7.43524Z" fill="white"/>
<g id="Group_2">
<path id="Vector_5" d="M20.1376 13.4754C18.9154 18.3771 13.95 21.3604 9.04692 20.1374C4.14596 18.9162 1.1623 13.9512 2.3849 9.04921C3.6068 4.14684 8.57252 1.16318 13.4742 2.38543C18.3762 3.60733 21.3599 8.57305 20.1376 13.4754Z" fill="#F0B90B"/>
</g>
<g id="Group_3">
<path id="Vector_6" d="M7.58857 11.2618L6.08864 12.7635L4.57465 11.2618L6.08829 9.74679L7.58857 11.2618ZM11.255 7.59193L13.8381 10.1776L15.3521 8.66285L11.255 4.5752L7.1578 8.67622L8.6718 10.1909L11.255 7.59193ZM16.4213 9.74679L14.9214 11.2618L16.4347 12.7769L17.9479 11.2618L16.4213 9.74679ZM11.255 14.9318L8.6718 12.3328L7.1578 13.8478L11.255 17.9485L15.3521 13.8475L13.8378 12.3328L11.255 14.9318ZM11.255 12.7639L12.7683 11.2485L11.255 9.7475L9.74096 11.2618L11.2543 12.7635V12.7642L11.255 12.7639Z" fill="white"/>
</g>
</g>
</g>
</g>
</g>
<defs>
<clipPath id="clip0_115_956">
<rect width="22.5235" height="22.5235" fill="white"/>
</clipPath>
</defs>
</svg>
