<svg width="23" height="23" viewBox="0 0 23 23" fill="none" xmlns="http://www.w3.org/2000/svg">
<g id="TRX (1)" clip-path="url(#clip0_115_980)">
<path id="Vector" d="M11.2617 22.5235C14.2485 22.5235 17.113 21.337 19.225 19.225C21.337 17.113 22.5235 14.2485 22.5235 11.2617C22.5235 8.27493 21.337 5.41047 19.225 3.29848C17.113 1.1865 14.2485 0 11.2617 0C8.27493 0 5.41047 1.1865 3.29848 3.29848C1.1865 5.41047 0 8.27493 0 11.2617C0 14.2485 1.1865 17.113 3.29848 19.225C5.41047 21.337 8.27493 22.5235 11.2617 22.5235Z" fill="#EC0928"/>
<path id="Vector_2" d="M20.4111 11.2619C20.4111 13.6887 19.4471 16.0161 17.7311 17.732C16.0151 19.448 13.6878 20.4121 11.261 20.4121C8.83422 20.4121 6.50684 19.448 4.79086 17.732C3.07487 16.0161 2.11084 13.6887 2.11084 11.2619C2.11084 8.83514 3.07487 6.50776 4.79086 4.79177C6.50684 3.07579 8.83422 2.11176 11.261 2.11176C13.6878 2.11176 16.0151 3.07579 17.7311 4.79177C19.4471 6.50776 20.4111 8.83514 20.4111 11.2619Z" fill="black" stroke="white" stroke-opacity="0.24" stroke-width="4.22315"/>
<path id="Vector_3" opacity="0.3" d="M21.8582 7.43567L0.151261 13.0665C-0.296958 10.2975 0.304363 7.46083 1.83753 5.1118C3.37069 2.76276 5.72532 1.07046 8.44055 0.36612C11.1558 -0.338219 14.0361 -0.00388684 16.5178 1.30368C18.9995 2.61124 20.9039 4.79791 21.8582 7.43567Z" fill="white"/>
<g id="Group">
<path id="Vector_4" d="M11.261 20.4121C13.6878 20.4121 16.0151 19.448 17.7311 17.732C19.4471 16.0161 20.4111 13.6887 20.4111 11.2619C20.4111 8.83514 19.4471 6.50776 17.7311 4.79177C16.0151 3.07579 13.6878 2.11176 11.261 2.11176C8.83422 2.11176 6.50684 3.07579 4.79086 4.79177C3.07487 6.50776 2.11084 8.83514 2.11084 11.2619C2.11084 13.6887 3.07487 16.0161 4.79086 17.732C6.50684 19.448 8.83422 20.4121 11.261 20.4121Z" fill="#EC0928"/>
</g>
<g id="Group_2">
<path id="Vector_5" fill-rule="evenodd" clip-rule="evenodd" d="M17.4342 10.34L15.0622 8.12284L6.10913 6.50397L10.8531 18.2162L17.4342 10.333V10.34ZM13.0703 10.5863L14.851 9.12936L15.8787 10.0866L13.0632 10.5863H13.0703ZM8.46002 7.82018L11.7681 10.5089L13.8656 8.79854L8.46002 7.81314V7.82018ZM7.8547 8.45365L11.3458 11.3043L10.8039 15.7386L7.84766 8.45365H7.8547ZM11.6837 15.8442L12.2045 11.6351L15.7309 11.0016L11.6837 15.8512V15.8442Z" fill="white"/>
</g>
</g>
<defs>
<clipPath id="clip0_115_980">
<rect width="22.5235" height="22.5235" fill="white"/>
</clipPath>
</defs>
</svg>
