<svg width="23" height="24" viewBox="0 0 23 24" fill="none" xmlns="http://www.w3.org/2000/svg">
<g id="ADA" clip-path="url(#clip0_115_988)">
<g id="Clip path group">
<mask id="mask0_115_988" style="mask-type:luminance" maskUnits="userSpaceOnUse" x="0" y="0" width="23" height="24">
<g id="a">
<path id="Vector" d="M0 0.750488H22.5235V23.2739H0V0.750488Z" fill="white"/>
</g>
</mask>
<g mask="url(#mask0_115_988)">
<g id="Group">
<path id="Vector_2" d="M22.1887 14.7357C20.6846 20.7689 14.573 24.4405 8.53878 22.936C2.50672 21.4319 -1.1653 15.321 0.339544 9.28822C1.84334 3.2544 7.95458 -0.417627 13.9874 1.08652C20.0212 2.59066 23.6928 8.70226 22.1887 14.7357Z" fill="#0033AD"/>
<path id="Vector_3" d="M1.36261 9.54443C2.72528 4.07616 8.26359 0.748671 13.7305 2.11134C19.1987 3.47436 22.5262 9.01267 21.1632 14.4806C19.7998 19.9478 14.2619 23.2753 8.79289 21.9119C3.32638 20.5493 -0.00111301 15.0113 1.36261 9.54443Z" stroke="white" stroke-opacity="0.24" stroke-width="2.11157"/>
<g id="Vector_4" style="mix-blend-mode:screen" opacity="0.3">
<path d="M21.8513 8.18561L0.145067 13.8175C-0.0996243 12.3107 -0.0342391 10.7699 0.337221 9.28926C1.84031 3.25543 7.95191 -0.416949 13.9847 1.08755C17.7644 2.02966 20.6171 4.77893 21.8513 8.18561Z" fill="white"/>
</g>
<g id="Group_2">
<path id="Vector_5" d="M20.1375 14.2258C18.9152 19.1275 13.9499 22.1108 9.0468 20.8885C4.14583 19.6663 1.16218 14.7009 2.38478 9.79958C3.60668 4.8972 8.5724 1.91355 13.4741 3.1358C18.3764 4.35805 21.3597 9.32342 20.1375 14.2258Z" fill="#0033AD"/>
</g>
</g>
</g>
</g>
<g id="Clip path group_2">
<mask id="mask1_115_988" style="mask-type:luminance" maskUnits="userSpaceOnUse" x="5" y="6" width="13" height="12">
<g id="c">
<path id="Vector_6" d="M5.27893 6.38129H17.5964V17.5441H5.27893V6.38129Z" fill="white"/>
</g>
</mask>
<g mask="url(#mask1_115_988)">
<g id="Group_3">
<path id="Vector_7" d="M8.65664 11.9212C8.63025 12.3688 8.98183 12.7524 9.43828 12.7781H9.48755C9.94752 12.7781 10.3185 12.4142 10.3153 11.9631C10.3153 11.5119 9.944 11.148 9.48438 11.1512C9.04447 11.1512 8.67952 11.4894 8.65664 11.9212ZM5.56213 11.7118C5.52726 11.7093 5.49224 11.7138 5.45911 11.7249C5.42597 11.7361 5.39539 11.7537 5.36913 11.7768C5.34287 11.7999 5.32146 11.828 5.30614 11.8594C5.29082 11.8908 5.28189 11.925 5.27988 11.9599C5.27828 11.9947 5.28354 12.0294 5.29537 12.0622C5.3072 12.0949 5.32537 12.125 5.34883 12.1507C5.3723 12.1765 5.40061 12.1973 5.43213 12.2121C5.46366 12.2269 5.49779 12.2353 5.53257 12.2369C5.60291 12.2413 5.67215 12.2177 5.72512 12.1712C5.77809 12.1247 5.81047 12.0591 5.81517 11.9887C5.82502 11.8438 5.70994 11.7213 5.56213 11.7118ZM8.60421 7.19829C8.63533 7.18288 8.66309 7.16146 8.6859 7.13528C8.7087 7.10909 8.7261 7.07865 8.7371 7.04571C8.74809 7.01277 8.75245 6.97798 8.74994 6.94334C8.74743 6.9087 8.73809 6.87491 8.72245 6.8439C8.68897 6.78151 8.63259 6.73455 8.56518 6.71289C8.49777 6.69123 8.42458 6.69656 8.36102 6.72776C8.32998 6.74282 8.30225 6.76391 8.27945 6.7898C8.25665 6.8157 8.23924 6.84587 8.22823 6.87857C8.21722 6.91127 8.21284 6.94583 8.21534 6.98024C8.21783 7.01465 8.22716 7.04822 8.24278 7.07899C8.25851 7.1107 8.28037 7.13899 8.30711 7.1622C8.33384 7.18541 8.36491 7.20309 8.39853 7.21422C8.43214 7.22535 8.46762 7.2297 8.50293 7.22703C8.53823 7.22435 8.57265 7.21435 8.60421 7.19829C8.60421 7.19829 8.60069 7.19829 8.60421 7.19829ZM9.44496 8.63838C9.64873 8.53844 9.73073 8.29349 9.62902 8.09395C9.57832 7.99744 9.49192 7.92455 9.38824 7.89082C9.28456 7.8571 9.17182 7.8652 9.07403 7.91341C8.86991 8.01336 8.78827 8.2583 8.88997 8.45784C8.99203 8.65774 9.24155 8.73833 9.44496 8.63838ZM6.61334 9.6273C6.68936 9.6757 6.78119 9.6927 6.8695 9.67471C6.9578 9.65672 7.03566 9.60515 7.08669 9.53088C7.11104 9.49403 7.12783 9.45272 7.13606 9.40933C7.14429 9.36594 7.1438 9.32134 7.13463 9.27814C7.12546 9.23494 7.10779 9.194 7.08264 9.15769C7.05749 9.12139 7.02537 9.09045 6.98815 9.06668C6.91209 9.01832 6.82023 9.00138 6.73192 9.01943C6.64362 9.03749 6.56577 9.08913 6.5148 9.16346C6.49008 9.20015 6.47298 9.24145 6.46455 9.28488C6.45611 9.32831 6.4565 9.373 6.46569 9.41628C6.47489 9.45956 6.4927 9.50055 6.51807 9.5368C6.54343 9.57306 6.57583 9.60384 6.61334 9.6273ZM7.1159 11.5668C7.062 11.5632 7.00792 11.5702 6.95677 11.5876C6.90561 11.6049 6.85838 11.6322 6.8178 11.6678C6.77721 11.7035 6.74407 11.7468 6.72028 11.7953C6.69649 11.8438 6.68251 11.8965 6.67915 11.9504C6.66578 12.1756 6.83999 12.3657 7.0698 12.3787C7.12372 12.3824 7.17784 12.3753 7.22903 12.358C7.28023 12.3407 7.3275 12.3134 7.36813 12.2778C7.40875 12.2421 7.44192 12.1988 7.46574 12.1503C7.48955 12.1018 7.50354 12.049 7.50689 11.9951C7.5094 11.9413 7.50127 11.8875 7.48296 11.8368C7.46466 11.7862 7.43655 11.7396 7.40023 11.6998C7.36391 11.6601 7.3201 11.6278 7.27131 11.605C7.22252 11.5822 7.16971 11.5692 7.1159 11.5668ZM6.65909 14.2956C6.61928 14.315 6.58372 14.3421 6.5545 14.3754C6.52529 14.4086 6.503 14.4474 6.48894 14.4893C6.47488 14.5313 6.46933 14.5757 6.47263 14.6198C6.47592 14.664 6.48799 14.707 6.50812 14.7465C6.55029 14.8263 6.622 14.8865 6.70794 14.9142C6.79389 14.9419 6.88725 14.9348 6.96809 14.8946C7.00791 14.8753 7.04346 14.8482 7.07268 14.8149C7.1019 14.7817 7.12419 14.7429 7.13825 14.7009C7.1523 14.6589 7.15785 14.6146 7.15456 14.5704C7.15126 14.5263 7.1392 14.4832 7.11907 14.4438C7.07676 14.3641 7.00504 14.304 6.91915 14.2764C6.83326 14.2487 6.73997 14.2556 6.65909 14.2956ZM8.26882 10.726C8.49546 10.871 8.79777 10.8098 8.94206 10.5874C8.97731 10.5351 9.00168 10.4763 9.0137 10.4145C9.02571 10.3526 9.02513 10.289 9.01199 10.2273C8.99885 10.1657 8.97342 10.1074 8.93721 10.0558C8.90101 10.0042 8.85478 9.96045 8.80129 9.92715C8.57429 9.78215 8.27199 9.84339 8.12769 10.0655C8.09254 10.1178 8.06827 10.1766 8.05633 10.2385C8.04439 10.3004 8.04503 10.364 8.05819 10.4257C8.07136 10.4873 8.09679 10.5457 8.13298 10.5973C8.16916 10.6489 8.21536 10.6926 8.26882 10.726ZM13.3767 8.60636C13.4689 8.66526 13.5803 8.68607 13.6875 8.66441C13.7947 8.64274 13.8894 8.58029 13.9514 8.49022C13.9811 8.44558 14.0016 8.39547 14.0117 8.34282C14.0219 8.29017 14.0214 8.23603 14.0104 8.18355C13.9994 8.13108 13.9781 8.08132 13.9476 8.03717C13.9172 7.99303 13.8783 7.95538 13.8332 7.92643C13.741 7.86753 13.6296 7.84672 13.5224 7.86838C13.4151 7.89005 13.3205 7.9525 13.2585 8.04257C13.2279 8.08693 13.2067 8.13704 13.1961 8.18985C13.1855 8.24267 13.1857 8.29709 13.1967 8.34981C13.2078 8.40253 13.2295 8.45246 13.2604 8.49656C13.2913 8.54066 13.3309 8.57801 13.3767 8.60636ZM14.2238 7.1726C14.2834 7.21111 14.3558 7.22458 14.4253 7.21008C14.4948 7.19559 14.5558 7.15431 14.5951 7.09518C14.6144 7.0663 14.6278 7.03382 14.6343 6.99968C14.6408 6.96555 14.6403 6.93045 14.633 6.89648C14.6256 6.86252 14.6115 6.83039 14.5914 6.802C14.5714 6.77362 14.5458 6.74957 14.5163 6.73128C14.4569 6.69297 14.3849 6.67926 14.3157 6.69306C14.2464 6.70685 14.1852 6.74706 14.145 6.80519C14.1074 6.86454 14.0945 6.9363 14.1093 7.00501C14.124 7.07372 14.1651 7.1339 14.2238 7.1726ZM13.4387 11.1448C12.9822 11.1191 12.588 11.4637 12.5648 11.9113C12.5384 12.3593 12.89 12.7457 13.3464 12.7686H13.3926C13.849 12.7686 14.2203 12.4044 14.2203 11.9536C14.2238 11.5249 13.8789 11.1673 13.4387 11.1448ZM9.71736 10.668C9.78808 10.8035 9.89474 10.917 10.0257 10.9959C10.1566 11.0749 10.3067 11.1163 10.4596 11.1156C10.916 11.1156 11.2873 10.7517 11.2873 10.3005C11.2873 10.1749 11.2578 10.0496 11.1986 9.93348C10.9917 9.53088 10.4923 9.36969 10.0851 9.57276C9.67442 9.77863 9.51042 10.2685 9.71736 10.668ZM16.2175 9.6273C16.2571 9.6077 16.2923 9.58042 16.3213 9.54704C16.3502 9.51366 16.3722 9.47485 16.3859 9.43289C16.3997 9.39092 16.4049 9.34663 16.4014 9.30261C16.3979 9.25859 16.3856 9.21571 16.3653 9.17648C16.3227 9.09722 16.2508 9.03773 16.1649 9.01065C16.0791 8.98357 15.9861 8.99105 15.9057 9.03149C15.8662 9.05082 15.831 9.07777 15.802 9.11078C15.7731 9.14378 15.7509 9.1822 15.7368 9.22381C15.7228 9.26542 15.7171 9.30941 15.7201 9.35323C15.7231 9.39705 15.7347 9.43984 15.7543 9.47914C15.843 9.64349 16.0464 9.71142 16.2175 9.6273ZM14.1158 9.88527C14.059 9.91263 14.0083 9.95104 13.9666 9.99824C13.9249 10.0454 13.893 10.1005 13.8728 10.1602C13.8526 10.2198 13.8445 10.283 13.849 10.3458C13.8535 10.4086 13.8705 10.4699 13.899 10.5261C13.9585 10.64 14.0602 10.726 14.1824 10.7658C14.3045 10.8056 14.4374 10.796 14.5525 10.739C14.6093 10.7117 14.6601 10.6733 14.7018 10.626C14.7436 10.5788 14.7755 10.5237 14.7957 10.464C14.8159 10.4043 14.8239 10.3411 14.8194 10.2783C14.8149 10.2154 14.7978 10.154 14.7693 10.0978C14.7092 9.98458 14.6074 9.89911 14.4855 9.85946C14.3636 9.8198 14.231 9.82905 14.1158 9.88527ZM11.4059 7.05013C11.4954 7.05501 11.5833 7.02474 11.6508 6.96577C11.7183 6.9068 11.7601 6.8238 11.7673 6.73445C11.7804 6.55074 11.6326 6.39308 11.4453 6.38006C11.3562 6.3745 11.2684 6.40411 11.2008 6.46254C11.1333 6.52096 11.0913 6.60355 11.0839 6.69257C11.0744 6.87909 11.2187 7.03746 11.4059 7.05013ZM11.4024 9.15396C11.4657 9.1583 11.5293 9.15004 11.5894 9.12967C11.6496 9.10929 11.705 9.0772 11.7527 9.03524C11.8003 8.99329 11.8392 8.94231 11.867 8.88524C11.8949 8.82818 11.9111 8.76616 11.9148 8.70279C11.9313 8.43884 11.7244 8.21325 11.4552 8.20023C11.3918 8.19589 11.3283 8.20415 11.2681 8.22453C11.208 8.2449 11.1525 8.277 11.1049 8.31895C11.0572 8.3609 11.0184 8.41189 10.9905 8.46895C10.9627 8.52601 10.9465 8.58803 10.9428 8.65141C10.9398 8.71463 10.9493 8.77783 10.9708 8.83736C10.9923 8.8969 11.0253 8.9516 11.068 8.9983C11.1107 9.04501 11.1623 9.08281 11.2197 9.10953C11.2771 9.13624 11.3392 9.15134 11.4024 9.15396ZM8.76152 14.038C8.81834 14.0107 8.86914 13.9723 8.91092 13.9251C8.9527 13.8779 8.98463 13.8228 9.00482 13.763C9.02502 13.7033 9.03307 13.6401 9.02852 13.5772C9.02397 13.5144 9.0069 13.453 8.97831 13.3968C8.91878 13.283 8.81707 13.197 8.69493 13.1572C8.57279 13.1174 8.43993 13.127 8.32477 13.1839C8.26795 13.2112 8.21715 13.2496 8.17537 13.2968C8.13359 13.3441 8.10167 13.3992 8.08147 13.4589C8.06128 13.5186 8.05322 13.5818 8.05777 13.6447C8.06233 13.7076 8.0794 13.7689 8.10799 13.8251C8.16757 13.9389 8.26931 14.0248 8.39144 14.0645C8.51358 14.1043 8.6464 14.095 8.76152 14.038ZM11.7177 9.85289C11.4682 10.2298 11.5734 10.7327 11.9577 10.9773C12.342 11.2222 12.8545 11.1191 13.104 10.7422C13.3538 10.3653 13.2483 9.86239 12.8643 9.6178C12.7291 9.53111 12.5717 9.48529 12.411 9.48583C12.1316 9.48583 11.8726 9.62414 11.7177 9.85289ZM13.1596 13.255C12.9526 12.8524 12.4536 12.6912 12.0461 12.8943C11.6357 13.097 11.4714 13.5869 11.6783 13.9863C11.8852 14.3889 12.3846 14.5501 12.7918 14.347C13.199 14.1471 13.3665 13.6643 13.1631 13.2613C13.1631 13.2578 13.1631 13.2578 13.1596 13.255ZM14.6085 13.1969C14.3818 13.0519 14.0795 13.1132 13.9352 13.3356C13.9 13.3878 13.8756 13.4467 13.8637 13.5085C13.8517 13.5704 13.8523 13.6341 13.8654 13.6957C13.8786 13.7573 13.9041 13.8157 13.9403 13.8672C13.9766 13.9188 14.0228 13.9625 14.0764 13.9958C14.303 14.1408 14.6053 14.0796 14.7496 13.8575C14.7847 13.8052 14.809 13.7463 14.821 13.6845C14.8329 13.6226 14.8323 13.5589 14.8191 13.4973C14.8059 13.4356 14.7805 13.3773 14.7443 13.3257C14.7081 13.2741 14.6619 13.2303 14.6085 13.1969ZM16.1978 11.9757C16.2005 11.9219 16.1926 11.868 16.1744 11.8173C16.1562 11.7666 16.1281 11.7199 16.0918 11.6801C16.0555 11.6403 16.0116 11.608 15.9627 11.5853C15.9139 11.5625 15.861 11.5496 15.8071 11.5474C15.7532 11.5438 15.6991 11.5508 15.6479 11.5681C15.5967 11.5854 15.5494 11.6127 15.5088 11.6483C15.4682 11.684 15.435 11.7273 15.4112 11.7758C15.3874 11.8243 15.3734 11.8771 15.37 11.931C15.357 12.1563 15.5309 12.3463 15.7607 12.3593C15.8693 12.3656 15.9761 12.3289 16.0579 12.2571C16.1397 12.1853 16.1899 12.0843 16.1978 11.9757ZM17.3444 11.6861C17.3095 11.6836 17.2744 11.688 17.2412 11.6991C17.2081 11.7103 17.1774 11.7279 17.1511 11.751C17.1248 11.7741 17.1034 11.8022 17.088 11.8336C17.0727 11.8651 17.0638 11.8993 17.0618 11.9342C17.0602 11.969 17.0654 12.0038 17.0773 12.0366C17.0891 12.0693 17.1073 12.0994 17.1308 12.1252C17.1543 12.1509 17.1827 12.1717 17.2143 12.1865C17.2458 12.2012 17.28 12.2096 17.3148 12.2112C17.3852 12.2157 17.4545 12.1921 17.5074 12.1456C17.5604 12.0991 17.5928 12.0334 17.5974 11.9631C17.6001 11.8929 17.575 11.8245 17.5277 11.7727C17.4803 11.7208 17.4145 11.6897 17.3444 11.6861ZM16.2639 14.2956C16.188 14.2474 16.0962 14.2304 16.008 14.2484C15.9198 14.2664 15.842 14.3179 15.7909 14.3921C15.7666 14.4289 15.7499 14.4702 15.7417 14.5135C15.7335 14.5569 15.734 14.6014 15.7432 14.6446C15.7523 14.6878 15.77 14.7287 15.7951 14.7649C15.8202 14.8012 15.8523 14.8321 15.8895 14.8559C15.9655 14.9042 16.0572 14.9211 16.1454 14.9032C16.2337 14.8852 16.3115 14.8337 16.3625 14.7595C16.3873 14.7228 16.4044 14.6815 16.4129 14.638C16.4213 14.5945 16.421 14.5498 16.4118 14.5065C16.4026 14.4631 16.3847 14.4221 16.3593 14.3858C16.3339 14.3496 16.3015 14.3191 16.2639 14.2956ZM8.64996 16.7503C8.59059 16.712 8.51865 16.6983 8.44935 16.7121C8.38006 16.7259 8.31885 16.7661 8.27867 16.8243C8.25938 16.853 8.24601 16.8854 8.23937 16.9194C8.23273 16.9534 8.23293 16.9884 8.23998 17.0223C8.24703 17.0562 8.26077 17.0884 8.28041 17.1169C8.30004 17.1455 8.32518 17.1698 8.35434 17.1885C8.4137 17.2268 8.48565 17.2405 8.55494 17.2267C8.62424 17.2129 8.68545 17.1727 8.72562 17.1146C8.74555 17.086 8.75944 17.0537 8.76643 17.0196C8.77343 16.9855 8.77338 16.9503 8.76629 16.9162C8.75921 16.8821 8.74524 16.8498 8.72523 16.8213C8.70523 16.7927 8.67961 16.7686 8.64996 16.7503ZM14.2731 16.7247C14.242 16.7401 14.2142 16.7615 14.1914 16.7877C14.1686 16.8139 14.1512 16.8443 14.1402 16.8772C14.1292 16.9102 14.1248 16.945 14.1273 16.9796C14.1299 17.0142 14.1392 17.048 14.1548 17.079C14.1883 17.1414 14.2447 17.1884 14.3121 17.2101C14.3795 17.2317 14.4527 17.2264 14.5163 17.1952C14.5473 17.1801 14.5751 17.159 14.598 17.1331C14.6208 17.1072 14.6382 17.077 14.6492 17.0442C14.6602 17.0115 14.6646 16.9769 14.6621 16.9424C14.6596 16.908 14.6502 16.8744 14.6345 16.8436C14.6187 16.812 14.5967 16.7838 14.57 16.7607C14.5432 16.7376 14.5121 16.72 14.4785 16.7089C14.445 16.6979 14.4095 16.6936 14.3742 16.6963C14.339 16.699 14.3046 16.7086 14.2731 16.7247C14.2766 16.7247 14.2731 16.7247 14.2731 16.7247ZM11.1592 14.0697C11.2187 13.9803 11.2597 13.88 11.2799 13.7746C11.3001 13.6691 11.299 13.5607 11.2767 13.4557C11.2544 13.3507 11.2114 13.2512 11.1501 13.1631C11.0888 13.075 11.0106 13 10.9199 12.9425C10.5352 12.6975 10.0228 12.8006 9.7698 13.1776C9.51711 13.5545 9.6255 14.0574 10.0098 14.3051C10.1446 14.3921 10.3019 14.4371 10.4631 14.4371C10.7457 14.4406 11.0051 14.302 11.1596 14.0701L11.1592 14.0697ZM9.50057 15.3166C9.40837 15.2576 9.29686 15.2367 9.18956 15.2584C9.08226 15.28 8.98759 15.3426 8.92552 15.4327C8.89583 15.4774 8.87532 15.5275 8.86519 15.5801C8.85506 15.6328 8.85551 15.6869 8.86651 15.7394C8.87752 15.7919 8.89886 15.8416 8.92929 15.8858C8.95972 15.9299 8.99864 15.9676 9.04377 15.9965C9.13596 16.0555 9.24748 16.0764 9.35478 16.0547C9.46207 16.0331 9.55675 15.9705 9.61882 15.8804C9.64928 15.836 9.67043 15.7859 9.68098 15.7331C9.69154 15.6803 9.69128 15.6259 9.68023 15.5732C9.66918 15.5205 9.64756 15.4706 9.61668 15.4265C9.5858 15.3824 9.5463 15.345 9.50057 15.3166ZM11.4355 16.8728C11.346 16.8679 11.2581 16.8982 11.1906 16.9572C11.1231 17.0161 11.0813 17.0991 11.074 17.1885C11.061 17.3722 11.2088 17.5299 11.3961 17.5429C11.4852 17.5484 11.5728 17.5187 11.6403 17.4603C11.7078 17.4019 11.7498 17.3193 11.7571 17.2304C11.7612 17.1405 11.7297 17.0526 11.6695 16.9857C11.6094 16.9188 11.5253 16.8783 11.4355 16.8728ZM11.439 14.769C11.3757 14.7646 11.3121 14.7729 11.252 14.7933C11.1918 14.8137 11.1363 14.8457 11.0887 14.8877C11.041 14.9297 11.0022 14.9806 10.9744 15.0377C10.9465 15.0948 10.9303 15.1568 10.9266 15.2202C10.91 15.4841 11.1166 15.7097 11.3862 15.7227C11.6558 15.7354 11.8856 15.5358 11.8986 15.2715C11.9152 15.0108 11.7082 14.782 11.439 14.769ZM13.4327 15.2846C13.3844 15.3082 13.3414 15.3413 13.3062 15.3818C13.2709 15.4222 13.244 15.4694 13.2272 15.5204C13.2104 15.5714 13.2039 15.6253 13.2082 15.6788C13.2125 15.7323 13.2274 15.7845 13.2521 15.8322C13.3035 15.9288 13.3907 16.0015 13.4951 16.0346C13.5994 16.0678 13.7125 16.0588 13.8103 16.0095C14.0141 15.9096 14.0961 15.6646 13.9944 15.4651C13.9427 15.3678 13.8551 15.2945 13.7502 15.2608C13.6453 15.227 13.5314 15.2356 13.4327 15.2846Z" fill="white"/>
</g>
</g>
</g>
</g>
<defs>
<clipPath id="clip0_115_988">
<rect width="22.5235" height="22.5235" fill="white" transform="translate(0 0.750488)"/>
</clipPath>
</defs>
</svg>
