<svg width="23" height="23" viewBox="0 0 23 23" fill="none" xmlns="http://www.w3.org/2000/svg">
<g id="XRP" clip-path="url(#clip0_115_1003)">
<g id="Clip path group">
<mask id="mask0_115_1003" style="mask-type:luminance" maskUnits="userSpaceOnUse" x="0" y="0" width="23" height="23">
<g id="clip0">
<path id="Vector" d="M0 0.0385742H22.1532V22.1918H0V0.0385742Z" fill="white"/>
</g>
</mask>
<g mask="url(#mask0_115_1003)">
<g id="Group">
<path id="Vector_2" d="M21.8238 13.794C20.3444 19.7279 14.3333 23.3393 8.39826 21.8595C2.46534 20.3801 -1.14633 14.3696 0.333787 8.43602C1.81286 2.50137 7.82366 -1.1103 13.7573 0.369125C19.6919 1.84855 23.3032 7.85969 21.8238 13.794Z" fill="#24292E"/>
<path id="Vector_3" d="M1.34093 8.68805C2.6812 3.30966 8.12847 0.0368646 13.5055 1.37714C18.8839 2.71775 22.1567 8.16503 20.8161 13.5431C19.4751 18.9204 14.0282 22.1932 8.64907 20.8523C3.27241 19.512 -0.000384639 14.0651 1.34093 8.68805Z" stroke="white" stroke-opacity="0.24" stroke-width="2.07687"/>
<path id="Vector_4" opacity="0.3" d="M21.4928 7.35154L0.143263 12.8909C-0.097407 11.4089 -0.0330965 9.89335 0.332258 8.43705C1.81064 2.5024 7.82178 -1.10961 13.7554 0.370154C17.473 1.29678 20.2788 4.00086 21.4928 7.35154Z" fill="white"/>
<g id="Group_2">
<path id="Vector_5" d="M19.8072 13.2924C18.6051 18.1135 13.7213 21.0478 8.89883 19.8456C4.07842 18.6435 1.14381 13.7597 2.34631 8.93896C3.54812 4.11717 8.43222 1.18256 13.2533 2.38472C18.0751 3.58688 21.0094 8.47063 19.8072 13.2924Z" fill="#24292E"/>
</g>
</g>
</g>
</g>
<path id="Vector_6" d="M14.7476 6.96143H16.2485L13.1252 9.94865C11.994 11.0304 10.1601 11.0304 9.02824 9.94865L5.90359 6.96143H7.40586L9.77868 9.23075C10.1292 9.56193 10.5935 9.74593 11.0757 9.74477C11.5579 9.74593 12.0222 9.56193 12.3727 9.23075L14.7476 6.96143ZM7.38647 15.2689H5.88455L9.02824 12.263C10.1594 11.1816 11.9933 11.1816 13.1252 12.263L16.2689 15.2689H14.768L12.3748 12.9809C12.0242 12.6498 11.5599 12.466 11.0778 12.4672C10.5955 12.4659 10.1311 12.6497 9.78041 12.9809L7.38647 15.2689Z" fill="white"/>
</g>
<defs>
<clipPath id="clip0_115_1003">
<rect width="22.1532" height="22.1532" fill="white" transform="translate(0 0.0385742)"/>
</clipPath>
</defs>
</svg>
