<svg width="23" height="23" viewBox="0 0 23 23" fill="none" xmlns="http://www.w3.org/2000/svg">
<g id="LTC (1)" clip-path="url(#clip0_115_1029)">
<g id="Clip path group">
<mask id="mask0_115_1029" style="mask-type:luminance" maskUnits="userSpaceOnUse" x="0" y="0" width="23" height="23">
<g id="clip0_ltc">
<path id="Vector" d="M0 0.0385742H22.1532V22.1918H0V0.0385742Z" fill="white"/>
</g>
</mask>
<g mask="url(#mask0_115_1029)">
<g id="Group">
<path id="Vector_2" d="M21.8241 13.7942C20.3447 19.7282 14.3335 23.3395 8.39853 21.8597C2.46562 20.3803 -1.14605 14.3699 0.334061 8.43627C1.81314 2.50162 7.82394 -1.11005 13.7575 0.369369C19.6922 1.84879 23.3035 7.85994 21.8241 13.7942Z" fill="#345D9D"/>
<path id="Vector_3" d="M1.34041 8.68817C2.68068 3.30977 8.12795 0.0366316 13.505 1.37725C18.8834 2.71787 22.1561 8.16514 20.8155 13.5432C19.4746 18.9205 14.0276 22.1933 8.64855 20.8524C3.27189 19.5121 -0.000903438 14.0652 1.34041 8.68817Z" stroke="white" stroke-opacity="0.24" stroke-width="2.07687"/>
<path id="Vector_4" opacity="0.3" d="M21.4922 7.35179L0.142714 12.8911C-0.0979563 11.4091 -0.0336458 9.89359 0.331708 8.4373C1.81009 2.50265 7.82124 -1.10937 13.7548 0.370398C17.4724 1.29703 20.2783 4.00111 21.4922 7.35179Z" fill="white"/>
<g id="Group_2">
<path id="Vector_5" d="M19.8066 13.2924C18.6044 18.1135 13.7207 21.0478 8.89819 19.8449C4.07778 18.6438 1.14316 13.7604 2.34567 8.93896C3.54748 4.11717 8.43158 1.18256 13.2527 2.38472C18.0741 3.58653 21.0087 8.47063 19.8066 13.2924Z" fill="#345D9D"/>
</g>
<g id="Group_3">
<path id="Vector_6" d="M10.4274 14.4762L11.1471 11.7669L12.8501 11.1446L13.2738 9.55231L13.2596 9.5132L11.5828 10.1259L12.7909 5.57684H9.36475L7.78495 11.5132L6.46614 11.9951L6.03 13.6365L7.34812 13.155L6.41699 16.6535H15.5351L16.1198 14.4762H10.4274Z" fill="white"/>
</g>
</g>
</g>
</g>
</g>
<defs>
<clipPath id="clip0_115_1029">
<rect width="22.1532" height="22.1532" fill="white" transform="translate(0 0.0385742)"/>
</clipPath>
</defs>
</svg>
