<svg width="26" height="26" viewBox="0 0 26 26" fill="none" xmlns="http://www.w3.org/2000/svg">
<path d="M24.4 13.1851C24.4 19.3177 19.4285 24.2892 13.2959 24.2892C7.1633 24.2892 2.19177 19.3177 2.19177 13.1851C2.19177 7.05252 7.1633 2.08099 13.2959 2.08099C19.4285 2.08099 24.4 7.05252 24.4 13.1851Z" fill="#8EC849"/>
<path fill-rule="evenodd" clip-rule="evenodd" d="M13.2959 22.2072C18.2789 22.2072 22.318 18.1681 22.318 13.1851C22.318 8.20249 18.2789 4.16302 13.2959 4.16302C8.31327 4.16302 4.2738 8.20249 4.2738 13.1851C4.2738 18.1681 8.31327 22.2072 13.2959 22.2072ZM13.2959 24.2892C19.4285 24.2892 24.4 19.3177 24.4 13.1851C24.4 7.05252 19.4285 2.08099 13.2959 2.08099C7.1633 2.08099 2.19177 7.05252 2.19177 13.1851C2.19177 19.3177 7.1633 24.2892 13.2959 24.2892Z" fill="#9DE352"/>
<path d="M8.73524 8.8484H9.69422V16.6344H8.73524V8.8484ZM12.6598 15.7553H14.201C14.6196 15.7553 15.0116 15.7021 15.3769 15.5955C15.7499 15.489 16.0733 15.3177 16.3473 15.0818C16.6289 14.8382 16.8496 14.5224 17.0095 14.1342C17.1693 13.746 17.2492 13.2742 17.2492 12.7186C17.2492 12.201 17.1769 11.7558 17.0323 11.3828C16.8877 11.0023 16.6822 10.6902 16.4158 10.4467C16.157 10.2031 15.8374 10.0243 15.4568 9.91012C15.0839 9.78835 14.6653 9.72746 14.201 9.72746H12.6598V15.7553ZM11.7008 8.8484H14.201C14.8175 8.8484 15.3731 8.92451 15.8678 9.07672C16.3702 9.22894 16.8002 9.46488 17.1579 9.78454C17.5156 10.1042 17.7896 10.5076 17.9799 10.9947C18.1778 11.4818 18.2767 12.0564 18.2767 12.7186C18.2767 13.3883 18.1701 13.9706 17.957 14.4653C17.7439 14.9524 17.4547 15.3596 17.0894 15.6868C16.7241 16.0065 16.294 16.2462 15.7993 16.4061C15.3046 16.5583 14.7719 16.6344 14.201 16.6344H11.7008V8.8484Z" fill="white"/>
<path d="M8.73524 8.8484V8.67489H8.56173V8.8484H8.73524ZM9.69422 8.8484H9.86772V8.67489H9.69422V8.8484ZM9.69422 16.6344V16.8079H9.86772V16.6344H9.69422ZM8.73524 16.6344H8.56173V16.8079H8.73524V16.6344ZM8.73524 9.0219H9.69422V8.67489H8.73524V9.0219ZM9.52071 8.8484V16.6344H9.86772V8.8484H9.52071ZM9.69422 16.4609H8.73524V16.8079H9.69422V16.4609ZM8.90874 16.6344V8.8484H8.56173V16.6344H8.90874ZM12.6598 15.7553H12.4863V15.9288H12.6598V15.7553ZM15.3769 15.5955L15.3293 15.4287L15.3283 15.4289L15.3769 15.5955ZM16.3473 15.0818L16.4605 15.2132L16.4608 15.213L16.3473 15.0818ZM17.0095 14.1342L17.1699 14.2003L17.0095 14.1342ZM17.0323 11.3828L16.8701 11.4445L16.8705 11.4456L17.0323 11.3828ZM16.4158 10.4467L16.2969 10.5731L16.2987 10.5747L16.4158 10.4467ZM15.4568 9.91012L15.403 10.0751L15.407 10.0763L15.4568 9.91012ZM12.6598 9.72746V9.55396H12.4863V9.72746H12.6598ZM11.7008 8.8484V8.67489H11.5273V8.8484H11.7008ZM15.8678 9.07672L15.8168 9.24256L15.8175 9.24277L15.8678 9.07672ZM17.9799 10.9947L17.8182 11.0578L17.8191 11.06L17.9799 10.9947ZM17.957 14.4653L18.116 14.5348L18.1164 14.5339L17.957 14.4653ZM17.0894 15.6868L17.2036 15.8174L17.2052 15.8161L17.0894 15.6868ZM15.7993 16.4061L15.8504 16.5719L15.8527 16.5712L15.7993 16.4061ZM11.7008 16.6344H11.5273V16.8079H11.7008V16.6344ZM12.6598 15.9288H14.201V15.5818H12.6598V15.9288ZM14.201 15.9288C14.6344 15.9288 15.0429 15.8737 15.4255 15.7621L15.3283 15.4289C14.9803 15.5305 14.6048 15.5818 14.201 15.5818V15.9288ZM15.4246 15.7623C15.8199 15.6494 16.1661 15.4667 16.4605 15.2132L16.2341 14.9503C15.9805 15.1687 15.6798 15.3285 15.3293 15.4287L15.4246 15.7623ZM16.4608 15.213C16.7654 14.9495 17.0011 14.6103 17.1699 14.2003L16.849 14.0681C16.6982 14.4344 16.4924 14.7269 16.2338 14.9505L16.4608 15.213ZM17.1699 14.2003C17.3407 13.7856 17.4227 13.2899 17.4227 12.7186H17.0757C17.0757 13.2584 16.9979 13.7065 16.849 14.0681L17.1699 14.2003ZM17.4227 12.7186C17.4227 12.1856 17.3483 11.718 17.1941 11.3201L16.8705 11.4456C17.0055 11.7936 17.0757 12.2165 17.0757 12.7186H17.4227ZM17.1945 11.3212C17.0415 10.9186 16.8217 10.5827 16.5329 10.3186L16.2987 10.5747C16.5427 10.7978 16.7339 11.086 16.8701 11.4445L17.1945 11.3212ZM16.5347 10.3204C16.2541 10.0563 15.91 9.86492 15.5067 9.74394L15.407 10.0763C15.7648 10.1837 16.06 10.35 16.2969 10.573L16.5347 10.3204ZM15.5107 9.74519C15.1175 9.61681 14.6803 9.55396 14.201 9.55396V9.90096C14.6503 9.90096 15.0503 9.95989 15.403 10.0751L15.5107 9.74519ZM14.201 9.55396H12.6598V9.90096H14.201V9.55396ZM12.4863 9.72746V15.7553H12.8333V9.72746H12.4863ZM11.7008 9.0219H14.201V8.67489H11.7008V9.0219ZM14.201 9.0219C14.8034 9.0219 15.3414 9.09628 15.8168 9.24255L15.9189 8.91089C15.4048 8.75273 14.8316 8.67489 14.201 8.67489V9.0219ZM15.8175 9.24277C16.298 9.38836 16.7051 9.61262 17.0423 9.91392L17.2735 9.65517C16.8952 9.31715 16.4423 9.06953 15.9181 8.91068L15.8175 9.24277ZM17.0423 9.91392C17.3779 10.2138 17.637 10.5938 17.8183 11.0578L18.1415 10.9316C17.9422 10.4214 17.6533 9.99459 17.2735 9.65517L17.0423 9.91392ZM17.8191 11.06C18.0067 11.5217 18.1032 12.0732 18.1032 12.7186H18.4502C18.4502 12.0396 18.3488 11.4418 18.1406 10.9294L17.8191 11.06ZM18.1032 12.7186C18.1032 13.3703 17.9995 13.9282 17.7977 14.3966L18.1164 14.5339C18.3408 14.0129 18.4502 13.4064 18.4502 12.7186H18.1032ZM17.7981 14.3957C17.5941 14.862 17.3189 15.2483 16.9736 15.5576L17.2052 15.8161C17.5905 15.4709 17.8938 15.0427 18.116 14.5348L17.7981 14.3957ZM16.9751 15.5563C16.6288 15.8593 16.2199 16.0879 15.746 16.241L15.8527 16.5712C16.3682 16.4046 16.8193 16.1537 17.2036 15.8174L16.9751 15.5563ZM15.7483 16.2402C15.2717 16.3869 14.7563 16.4609 14.201 16.4609V16.8079C14.7874 16.8079 15.3375 16.7297 15.8504 16.5719L15.7483 16.2402ZM14.201 16.4609H11.7008V16.8079H14.201V16.4609ZM11.8743 16.6344V8.8484H11.5273V16.6344H11.8743Z" fill="#759900"/>
</svg>
