<svg width="26" height="26" viewBox="0 0 26 26" fill="none" xmlns="http://www.w3.org/2000/svg">
<path d="M24.0451 12.9296C24.0451 19.1858 18.9734 24.2576 12.7172 24.2576C6.46095 24.2576 1.38922 19.1858 1.38922 12.9296C1.38922 6.67341 6.46095 1.60168 12.7172 1.60168C18.9734 1.60168 24.0451 6.67341 24.0451 12.9296Z" fill="#F45A43"/>
<path fill-rule="evenodd" clip-rule="evenodd" d="M12.7172 22.1336C17.8006 22.1336 21.9211 18.0127 21.9211 12.9296C21.9211 7.84621 17.8006 3.72567 12.7172 3.72567C7.6341 3.72567 3.51321 7.84621 3.51321 12.9296C3.51321 18.0127 7.6341 22.1336 12.7172 22.1336ZM12.7172 24.2576C18.9734 24.2576 24.0451 19.1858 24.0451 12.9296C24.0451 6.67341 18.9734 1.60168 12.7172 1.60168C6.46095 1.60168 1.38922 6.67341 1.38922 12.9296C1.38922 19.1858 6.46095 24.2576 12.7172 24.2576Z" fill="#FF6C59"/>
<path d="M6.3552 8.80988H7.19914L10.9757 14.517H10.9968C10.9828 14.313 10.9722 14.095 10.9652 13.8629C10.9511 13.666 10.9406 13.441 10.9335 13.1878C10.9335 12.9276 10.9335 12.6638 10.9335 12.3966V8.80988H11.7775V16.0044H10.9335L7.15694 10.2762H7.13584C7.14287 10.4872 7.15342 10.7087 7.16749 10.9408C7.17452 11.1448 7.18155 11.3733 7.18859 11.6265C7.19562 11.8797 7.19914 12.1399 7.19914 12.4071V16.0044H6.3552V8.80988ZM19.1136 9.8226C18.8042 9.7593 18.4737 9.69952 18.122 9.64326C17.7774 9.587 17.3766 9.55184 16.9194 9.53777C16.4553 9.5448 16.0544 9.61513 15.7168 9.74875C15.3793 9.88238 15.1015 10.0758 14.8834 10.329C14.6725 10.5751 14.5142 10.8705 14.4087 11.2151C14.3032 11.5597 14.2505 11.9395 14.2505 12.3544C14.2505 12.8889 14.3173 13.346 14.4509 13.7258C14.5916 14.1055 14.7815 14.4185 15.0206 14.6647C15.2667 14.9038 15.5516 15.0796 15.8751 15.1921C16.1986 15.3046 16.5467 15.3609 16.9194 15.3609C17.1585 15.3609 17.373 15.3468 17.5629 15.3187C17.7598 15.2906 17.9286 15.2589 18.0693 15.2238C18.217 15.1816 18.3506 15.1358 18.4702 15.0866V13.1561H17.1515V12.3649H19.3668V15.5191C19.1207 15.6809 18.7796 15.8286 18.3436 15.9622C17.9146 16.0888 17.4399 16.1486 16.9194 16.1415C16.4412 16.1415 15.9806 16.0853 15.5375 15.9727C15.1015 15.8602 14.7111 15.6633 14.3665 15.382C14.029 15.0937 13.7582 14.7033 13.5543 14.211C13.3503 13.7187 13.2483 13.0963 13.2483 12.3438C13.2483 11.732 13.3433 11.201 13.5332 10.7509C13.723 10.2938 13.9797 9.91754 14.3032 9.62216C14.6338 9.31976 15.0135 9.09471 15.4425 8.94702C15.8786 8.7923 16.3392 8.71494 16.8245 8.71494C17.141 8.71494 17.4469 8.73252 17.7423 8.76768C18.0376 8.79581 18.3084 8.83098 18.5545 8.87317C18.8007 8.90834 19.0363 8.95405 19.2613 9.01031L19.1136 9.8226Z" fill="white"/>
<path d="M6.3552 8.80988V8.63288H6.17821V8.80988H6.3552ZM7.19914 8.80988L7.34674 8.7122L7.29425 8.63288H7.19914V8.80988ZM10.9757 14.517L10.8281 14.6146L10.8806 14.694H10.9757V14.517ZM10.9968 14.517V14.694H11.1865L11.1734 14.5048L10.9968 14.517ZM10.9652 13.8629L11.1422 13.8576L11.1417 13.8503L10.9652 13.8629ZM10.9335 13.1878H10.7565L10.7566 13.1927L10.9335 13.1878ZM10.9335 8.80988V8.63288H10.7565V8.80988H10.9335ZM11.7775 8.80988H11.9545V8.63288H11.7775V8.80988ZM11.7775 16.0044V16.1814H11.9545V16.0044H11.7775ZM10.9335 16.0044L10.7858 16.1018L10.8382 16.1814H10.9335V16.0044ZM7.15694 10.2762L7.30471 10.1788L7.25225 10.0992H7.15694V10.2762ZM7.13584 10.2762V10.0992H6.95284L6.95894 10.2821L7.13584 10.2762ZM7.16749 10.9408L7.34444 10.9347L7.34416 10.9301L7.16749 10.9408ZM7.19914 16.0044V16.1814H7.37613V16.0044H7.19914ZM6.3552 16.0044H6.17821V16.1814H6.3552V16.0044ZM6.3552 8.98688H7.19914V8.63288H6.3552V8.98688ZM7.05153 8.90756L10.8281 14.6146L11.1233 14.4193L7.34674 8.7122L7.05153 8.90756ZM10.9757 14.694H10.9968V14.34H10.9757V14.694ZM11.1734 14.5048C11.1595 14.3034 11.1491 14.0877 11.1421 13.8576L10.7883 13.8683C10.7954 14.1023 10.806 14.3226 10.8202 14.5291L11.1734 14.5048ZM11.1417 13.8503C11.1279 13.6565 11.1174 13.4341 11.1105 13.1829L10.7566 13.1927C10.7637 13.4478 10.7743 13.6755 10.7886 13.8755L11.1417 13.8503ZM11.1105 13.1878C11.1105 13.1873 11.1105 13.1868 11.1105 13.1862C11.1105 13.1857 11.1105 13.1852 11.1105 13.1847C11.1105 13.1842 11.1105 13.1837 11.1105 13.1832C11.1105 13.1827 11.1105 13.1822 11.1105 13.1817C11.1105 13.1812 11.1105 13.1807 11.1105 13.1801C11.1105 13.1796 11.1105 13.1791 11.1105 13.1786C11.1105 13.1781 11.1105 13.1776 11.1105 13.1771C11.1105 13.1766 11.1105 13.1761 11.1105 13.1756C11.1105 13.1751 11.1105 13.1746 11.1105 13.174C11.1105 13.1735 11.1105 13.173 11.1105 13.1725C11.1105 13.172 11.1105 13.1715 11.1105 13.171C11.1105 13.1705 11.1105 13.17 11.1105 13.1695C11.1105 13.169 11.1105 13.1685 11.1105 13.1679C11.1105 13.1674 11.1105 13.1669 11.1105 13.1664C11.1105 13.1659 11.1105 13.1654 11.1105 13.1649C11.1105 13.1644 11.1105 13.1639 11.1105 13.1634C11.1105 13.1629 11.1105 13.1624 11.1105 13.1618C11.1105 13.1613 11.1105 13.1608 11.1105 13.1603C11.1105 13.1598 11.1105 13.1593 11.1105 13.1588C11.1105 13.1583 11.1105 13.1578 11.1105 13.1573C11.1105 13.1568 11.1105 13.1562 11.1105 13.1557C11.1105 13.1552 11.1105 13.1547 11.1105 13.1542C11.1105 13.1537 11.1105 13.1532 11.1105 13.1527C11.1105 13.1522 11.1105 13.1517 11.1105 13.1512C11.1105 13.1506 11.1105 13.1501 11.1105 13.1496C11.1105 13.1491 11.1105 13.1486 11.1105 13.1481C11.1105 13.1476 11.1105 13.1471 11.1105 13.1466C11.1105 13.1461 11.1105 13.1456 11.1105 13.1451C11.1105 13.1445 11.1105 13.144 11.1105 13.1435C11.1105 13.143 11.1105 13.1425 11.1105 13.142C11.1105 13.1415 11.1105 13.141 11.1105 13.1405C11.1105 13.14 11.1105 13.1395 11.1105 13.1389C11.1105 13.1384 11.1105 13.1379 11.1105 13.1374C11.1105 13.1369 11.1105 13.1364 11.1105 13.1359C11.1105 13.1354 11.1105 13.1349 11.1105 13.1344C11.1105 13.1339 11.1105 13.1333 11.1105 13.1328C11.1105 13.1323 11.1105 13.1318 11.1105 13.1313C11.1105 13.1308 11.1105 13.1303 11.1105 13.1298C11.1105 13.1293 11.1105 13.1288 11.1105 13.1283C11.1105 13.1277 11.1105 13.1272 11.1105 13.1267C11.1105 13.1262 11.1105 13.1257 11.1105 13.1252C11.1105 13.1247 11.1105 13.1242 11.1105 13.1237C11.1105 13.1232 11.1105 13.1226 11.1105 13.1221C11.1105 13.1216 11.1105 13.1211 11.1105 13.1206C11.1105 13.1201 11.1105 13.1196 11.1105 13.1191C11.1105 13.1186 11.1105 13.1181 11.1105 13.1176C11.1105 13.117 11.1105 13.1165 11.1105 13.116C11.1105 13.1155 11.1105 13.115 11.1105 13.1145C11.1105 13.114 11.1105 13.1135 11.1105 13.113C11.1105 13.1125 11.1105 13.1119 11.1105 13.1114C11.1105 13.1109 11.1105 13.1104 11.1105 13.1099C11.1105 13.1094 11.1105 13.1089 11.1105 13.1084C11.1105 13.1079 11.1105 13.1074 11.1105 13.1069C11.1105 13.1063 11.1105 13.1058 11.1105 13.1053C11.1105 13.1048 11.1105 13.1043 11.1105 13.1038C11.1105 13.1033 11.1105 13.1028 11.1105 13.1023C11.1105 13.1018 11.1105 13.1012 11.1105 13.1007C11.1105 13.1002 11.1105 13.0997 11.1105 13.0992C11.1105 13.0987 11.1105 13.0982 11.1105 13.0977C11.1105 13.0972 11.1105 13.0967 11.1105 13.0961C11.1105 13.0956 11.1105 13.0951 11.1105 13.0946C11.1105 13.0941 11.1105 13.0936 11.1105 13.0931C11.1105 13.0926 11.1105 13.0921 11.1105 13.0916C11.1105 13.091 11.1105 13.0905 11.1105 13.09C11.1105 13.0895 11.1105 13.089 11.1105 13.0885C11.1105 13.088 11.1105 13.0875 11.1105 13.087C11.1105 13.0865 11.1105 13.0859 11.1105 13.0854C11.1105 13.0849 11.1105 13.0844 11.1105 13.0839C11.1105 13.0834 11.1105 13.0829 11.1105 13.0824C11.1105 13.0819 11.1105 13.0814 11.1105 13.0808C11.1105 13.0803 11.1105 13.0798 11.1105 13.0793C11.1105 13.0788 11.1105 13.0783 11.1105 13.0778C11.1105 13.0773 11.1105 13.0768 11.1105 13.0763C11.1105 13.0757 11.1105 13.0752 11.1105 13.0747C11.1105 13.0742 11.1105 13.0737 11.1105 13.0732C11.1105 13.0727 11.1105 13.0722 11.1105 13.0717C11.1105 13.0712 11.1105 13.0706 11.1105 13.0701C11.1105 13.0696 11.1105 13.0691 11.1105 13.0686C11.1105 13.0681 11.1105 13.0676 11.1105 13.0671C11.1105 13.0666 11.1105 13.0661 11.1105 13.0655C11.1105 13.065 11.1105 13.0645 11.1105 13.064C11.1105 13.0635 11.1105 13.063 11.1105 13.0625C11.1105 13.062 11.1105 13.0615 11.1105 13.0609C11.1105 13.0604 11.1105 13.0599 11.1105 13.0594C11.1105 13.0589 11.1105 13.0584 11.1105 13.0579C11.1105 13.0574 11.1105 13.0569 11.1105 13.0564C11.1105 13.0558 11.1105 13.0553 11.1105 13.0548C11.1105 13.0543 11.1105 13.0538 11.1105 13.0533C11.1105 13.0528 11.1105 13.0523 11.1105 13.0518C11.1105 13.0512 11.1105 13.0507 11.1105 13.0502C11.1105 13.0497 11.1105 13.0492 11.1105 13.0487C11.1105 13.0482 11.1105 13.0477 11.1105 13.0472C11.1105 13.0467 11.1105 13.0461 11.1105 13.0456C11.1105 13.0451 11.1105 13.0446 11.1105 13.0441C11.1105 13.0436 11.1105 13.0431 11.1105 13.0426C11.1105 13.0421 11.1105 13.0415 11.1105 13.041C11.1105 13.0405 11.1105 13.04 11.1105 13.0395C11.1105 13.039 11.1105 13.0385 11.1105 13.038C11.1105 13.0375 11.1105 13.0369 11.1105 13.0364C11.1105 13.0359 11.1105 13.0354 11.1105 13.0349C11.1105 13.0344 11.1105 13.0339 11.1105 13.0334C11.1105 13.0329 11.1105 13.0323 11.1105 13.0318C11.1105 13.0313 11.1105 13.0308 11.1105 13.0303C11.1105 13.0298 11.1105 13.0293 11.1105 13.0288C11.1105 13.0283 11.1105 13.0277 11.1105 13.0272C11.1105 13.0267 11.1105 13.0262 11.1105 13.0257C11.1105 13.0252 11.1105 13.0247 11.1105 13.0242C11.1105 13.0237 11.1105 13.0231 11.1105 13.0226C11.1105 13.0221 11.1105 13.0216 11.1105 13.0211C11.1105 13.0206 11.1105 13.0201 11.1105 13.0196C11.1105 13.0191 11.1105 13.0185 11.1105 13.018C11.1105 13.0175 11.1105 13.017 11.1105 13.0165C11.1105 13.016 11.1105 13.0155 11.1105 13.015C11.1105 13.0145 11.1105 13.0139 11.1105 13.0134C11.1105 13.0129 11.1105 13.0124 11.1105 13.0119C11.1105 13.0114 11.1105 13.0109 11.1105 13.0104C11.1105 13.0099 11.1105 13.0093 11.1105 13.0088C11.1105 13.0083 11.1105 13.0078 11.1105 13.0073C11.1105 13.0068 11.1105 13.0063 11.1105 13.0058C11.1105 13.0053 11.1105 13.0047 11.1105 13.0042C11.1105 13.0037 11.1105 13.0032 11.1105 13.0027C11.1105 13.0022 11.1105 13.0017 11.1105 13.0012C11.1105 13.0007 11.1105 13.0001 11.1105 12.9996C11.1105 12.9991 11.1105 12.9986 11.1105 12.9981C11.1105 12.9976 11.1105 12.9971 11.1105 12.9966C11.1105 12.996 11.1105 12.9955 11.1105 12.995C11.1105 12.9945 11.1105 12.994 11.1105 12.9935C11.1105 12.993 11.1105 12.9925 11.1105 12.992C11.1105 12.9914 11.1105 12.9909 11.1105 12.9904C11.1105 12.9899 11.1105 12.9894 11.1105 12.9889C11.1105 12.9884 11.1105 12.9879 11.1105 12.9873C11.1105 12.9868 11.1105 12.9863 11.1105 12.9858C11.1105 12.9853 11.1105 12.9848 11.1105 12.9843C11.1105 12.9838 11.1105 12.9833 11.1105 12.9827C11.1105 12.9822 11.1105 12.9817 11.1105 12.9812C11.1105 12.9807 11.1105 12.9802 11.1105 12.9797C11.1105 12.9792 11.1105 12.9786 11.1105 12.9781C11.1105 12.9776 11.1105 12.9771 11.1105 12.9766C11.1105 12.9761 11.1105 12.9756 11.1105 12.9751C11.1105 12.9746 11.1105 12.974 11.1105 12.9735C11.1105 12.973 11.1105 12.9725 11.1105 12.972C11.1105 12.9715 11.1105 12.971 11.1105 12.9705C11.1105 12.9699 11.1105 12.9694 11.1105 12.9689C11.1105 12.9684 11.1105 12.9679 11.1105 12.9674C11.1105 12.9669 11.1105 12.9664 11.1105 12.9658C11.1105 12.9653 11.1105 12.9648 11.1105 12.9643C11.1105 12.9638 11.1105 12.9633 11.1105 12.9628C11.1105 12.9623 11.1105 12.9618 11.1105 12.9612C11.1105 12.9607 11.1105 12.9602 11.1105 12.9597C11.1105 12.9592 11.1105 12.9587 11.1105 12.9582C11.1105 12.9577 11.1105 12.9571 11.1105 12.9566C11.1105 12.9561 11.1105 12.9556 11.1105 12.9551C11.1105 12.9546 11.1105 12.9541 11.1105 12.9536C11.1105 12.953 11.1105 12.9525 11.1105 12.952C11.1105 12.9515 11.1105 12.951 11.1105 12.9505C11.1105 12.95 11.1105 12.9495 11.1105 12.9489C11.1105 12.9484 11.1105 12.9479 11.1105 12.9474C11.1105 12.9469 11.1105 12.9464 11.1105 12.9459C11.1105 12.9454 11.1105 12.9448 11.1105 12.9443C11.1105 12.9438 11.1105 12.9433 11.1105 12.9428C11.1105 12.9423 11.1105 12.9418 11.1105 12.9413C11.1105 12.9407 11.1105 12.9402 11.1105 12.9397C11.1105 12.9392 11.1105 12.9387 11.1105 12.9382C11.1105 12.9377 11.1105 12.9372 11.1105 12.9366C11.1105 12.9361 11.1105 12.9356 11.1105 12.9351C11.1105 12.9346 11.1105 12.9341 11.1105 12.9336C11.1105 12.9331 11.1105 12.9325 11.1105 12.932C11.1105 12.9315 11.1105 12.931 11.1105 12.9305C11.1105 12.93 11.1105 12.9295 11.1105 12.929C11.1105 12.9284 11.1105 12.9279 11.1105 12.9274C11.1105 12.9269 11.1105 12.9264 11.1105 12.9259C11.1105 12.9254 11.1105 12.9249 11.1105 12.9243C11.1105 12.9238 11.1105 12.9233 11.1105 12.9228C11.1105 12.9223 11.1105 12.9218 11.1105 12.9213C11.1105 12.9207 11.1105 12.9202 11.1105 12.9197C11.1105 12.9192 11.1105 12.9187 11.1105 12.9182C11.1105 12.9177 11.1105 12.9172 11.1105 12.9166C11.1105 12.9161 11.1105 12.9156 11.1105 12.9151C11.1105 12.9146 11.1105 12.9141 11.1105 12.9136C11.1105 12.9131 11.1105 12.9125 11.1105 12.912C11.1105 12.9115 11.1105 12.911 11.1105 12.9105C11.1105 12.91 11.1105 12.9095 11.1105 12.9089C11.1105 12.9084 11.1105 12.9079 11.1105 12.9074C11.1105 12.9069 11.1105 12.9064 11.1105 12.9059C11.1105 12.9054 11.1105 12.9048 11.1105 12.9043C11.1105 12.9038 11.1105 12.9033 11.1105 12.9028C11.1105 12.9023 11.1105 12.9018 11.1105 12.9013C11.1105 12.9007 11.1105 12.9002 11.1105 12.8997C11.1105 12.8992 11.1105 12.8987 11.1105 12.8982C11.1105 12.8977 11.1105 12.8971 11.1105 12.8966C11.1105 12.8961 11.1105 12.8956 11.1105 12.8951C11.1105 12.8946 11.1105 12.8941 11.1105 12.8936C11.1105 12.893 11.1105 12.8925 11.1105 12.892C11.1105 12.8915 11.1105 12.891 11.1105 12.8905C11.1105 12.89 11.1105 12.8894 11.1105 12.8889C11.1105 12.8884 11.1105 12.8879 11.1105 12.8874C11.1105 12.8869 11.1105 12.8864 11.1105 12.8858C11.1105 12.8853 11.1105 12.8848 11.1105 12.8843C11.1105 12.8838 11.1105 12.8833 11.1105 12.8828C11.1105 12.8823 11.1105 12.8817 11.1105 12.8812C11.1105 12.8807 11.1105 12.8802 11.1105 12.8797C11.1105 12.8792 11.1105 12.8787 11.1105 12.8781C11.1105 12.8776 11.1105 12.8771 11.1105 12.8766C11.1105 12.8761 11.1105 12.8756 11.1105 12.8751C11.1105 12.8746 11.1105 12.874 11.1105 12.8735C11.1105 12.873 11.1105 12.8725 11.1105 12.872C11.1105 12.8715 11.1105 12.871 11.1105 12.8704C11.1105 12.8699 11.1105 12.8694 11.1105 12.8689C11.1105 12.8684 11.1105 12.8679 11.1105 12.8674C11.1105 12.8668 11.1105 12.8663 11.1105 12.8658C11.1105 12.8653 11.1105 12.8648 11.1105 12.8643C11.1105 12.8638 11.1105 12.8632 11.1105 12.8627C11.1105 12.8622 11.1105 12.8617 11.1105 12.8612C11.1105 12.8607 11.1105 12.8602 11.1105 12.8596C11.1105 12.8591 11.1105 12.8586 11.1105 12.8581C11.1105 12.8576 11.1105 12.8571 11.1105 12.8566C11.1105 12.8561 11.1105 12.8555 11.1105 12.855C11.1105 12.8545 11.1105 12.854 11.1105 12.8535C11.1105 12.853 11.1105 12.8525 11.1105 12.8519C11.1105 12.8514 11.1105 12.8509 11.1105 12.8504C11.1105 12.8499 11.1105 12.8494 11.1105 12.8489C11.1105 12.8483 11.1105 12.8478 11.1105 12.8473C11.1105 12.8468 11.1105 12.8463 11.1105 12.8458C11.1105 12.8453 11.1105 12.8447 11.1105 12.8442C11.1105 12.8437 11.1105 12.8432 11.1105 12.8427C11.1105 12.8422 11.1105 12.8417 11.1105 12.8411C11.1105 12.8406 11.1105 12.8401 11.1105 12.8396C11.1105 12.8391 11.1105 12.8386 11.1105 12.8381C11.1105 12.8375 11.1105 12.837 11.1105 12.8365C11.1105 12.836 11.1105 12.8355 11.1105 12.835C11.1105 12.8345 11.1105 12.8339 11.1105 12.8334C11.1105 12.8329 11.1105 12.8324 11.1105 12.8319C11.1105 12.8314 11.1105 12.8309 11.1105 12.8303C11.1105 12.8298 11.1105 12.8293 11.1105 12.8288C11.1105 12.8283 11.1105 12.8278 11.1105 12.8273C11.1105 12.8267 11.1105 12.8262 11.1105 12.8257C11.1105 12.8252 11.1105 12.8247 11.1105 12.8242C11.1105 12.8236 11.1105 12.8231 11.1105 12.8226C11.1105 12.8221 11.1105 12.8216 11.1105 12.8211C11.1105 12.8206 11.1105 12.82 11.1105 12.8195C11.1105 12.819 11.1105 12.8185 11.1105 12.818C11.1105 12.8175 11.1105 12.817 11.1105 12.8164C11.1105 12.8159 11.1105 12.8154 11.1105 12.8149C11.1105 12.8144 11.1105 12.8139 11.1105 12.8134C11.1105 12.8128 11.1105 12.8123 11.1105 12.8118C11.1105 12.8113 11.1105 12.8108 11.1105 12.8103C11.1105 12.8098 11.1105 12.8092 11.1105 12.8087C11.1105 12.8082 11.1105 12.8077 11.1105 12.8072C11.1105 12.8067 11.1105 12.8061 11.1105 12.8056C11.1105 12.8051 11.1105 12.8046 11.1105 12.8041C11.1105 12.8036 11.1105 12.8031 11.1105 12.8025C11.1105 12.802 11.1105 12.8015 11.1105 12.801C11.1105 12.8005 11.1105 12.8 11.1105 12.7995C11.1105 12.7989 11.1105 12.7984 11.1105 12.7979C11.1105 12.7974 11.1105 12.7969 11.1105 12.7964C11.1105 12.7958 11.1105 12.7953 11.1105 12.7948C11.1105 12.7943 11.1105 12.7938 11.1105 12.7933C11.1105 12.7928 11.1105 12.7922 11.1105 12.7917C11.1105 12.7912 11.1105 12.7907 11.1105 12.7902C11.1105 12.7897 11.1105 12.7892 11.1105 12.7886C11.1105 12.7881 11.1105 12.7876 11.1105 12.7871C11.1105 12.7866 11.1105 12.7861 11.1105 12.7855C11.1105 12.785 11.1105 12.7845 11.1105 12.784C11.1105 12.7835 11.1105 12.783 11.1105 12.7825C11.1105 12.7819 11.1105 12.7814 11.1105 12.7809C11.1105 12.7804 11.1105 12.7799 11.1105 12.7794C11.1105 12.7788 11.1105 12.7783 11.1105 12.7778C11.1105 12.7773 11.1105 12.7768 11.1105 12.7763C11.1105 12.7758 11.1105 12.7752 11.1105 12.7747C11.1105 12.7742 11.1105 12.7737 11.1105 12.7732C11.1105 12.7727 11.1105 12.7721 11.1105 12.7716C11.1105 12.7711 11.1105 12.7706 11.1105 12.7701C11.1105 12.7696 11.1105 12.7691 11.1105 12.7685C11.1105 12.768 11.1105 12.7675 11.1105 12.767C11.1105 12.7665 11.1105 12.766 11.1105 12.7654C11.1105 12.7649 11.1105 12.7644 11.1105 12.7639C11.1105 12.7634 11.1105 12.7629 11.1105 12.7623C11.1105 12.7618 11.1105 12.7613 11.1105 12.7608C11.1105 12.7603 11.1105 12.7598 11.1105 12.7593C11.1105 12.7587 11.1105 12.7582 11.1105 12.7577C11.1105 12.7572 11.1105 12.7567 11.1105 12.7562C11.1105 12.7556 11.1105 12.7551 11.1105 12.7546C11.1105 12.7541 11.1105 12.7536 11.1105 12.7531C11.1105 12.7526 11.1105 12.752 11.1105 12.7515C11.1105 12.751 11.1105 12.7505 11.1105 12.75C11.1105 12.7495 11.1105 12.7489 11.1105 12.7484C11.1105 12.7479 11.1105 12.7474 11.1105 12.7469C11.1105 12.7464 11.1105 12.7458 11.1105 12.7453C11.1105 12.7448 11.1105 12.7443 11.1105 12.7438C11.1105 12.7433 11.1105 12.7427 11.1105 12.7422C11.1105 12.7417 11.1105 12.7412 11.1105 12.7407C11.1105 12.7402 11.1105 12.7397 11.1105 12.7391C11.1105 12.7386 11.1105 12.7381 11.1105 12.7376C11.1105 12.7371 11.1105 12.7366 11.1105 12.736C11.1105 12.7355 11.1105 12.735 11.1105 12.7345C11.1105 12.734 11.1105 12.7335 11.1105 12.7329C11.1105 12.7324 11.1105 12.7319 11.1105 12.7314C11.1105 12.7309 11.1105 12.7304 11.1105 12.7298C11.1105 12.7293 11.1105 12.7288 11.1105 12.7283C11.1105 12.7278 11.1105 12.7273 11.1105 12.7267C11.1105 12.7262 11.1105 12.7257 11.1105 12.7252C11.1105 12.7247 11.1105 12.7242 11.1105 12.7236C11.1105 12.7231 11.1105 12.7226 11.1105 12.7221C11.1105 12.7216 11.1105 12.7211 11.1105 12.7206C11.1105 12.72 11.1105 12.7195 11.1105 12.719C11.1105 12.7185 11.1105 12.718 11.1105 12.7175C11.1105 12.7169 11.1105 12.7164 11.1105 12.7159C11.1105 12.7154 11.1105 12.7149 11.1105 12.7144C11.1105 12.7138 11.1105 12.7133 11.1105 12.7128C11.1105 12.7123 11.1105 12.7118 11.1105 12.7113C11.1105 12.7107 11.1105 12.7102 11.1105 12.7097C11.1105 12.7092 11.1105 12.7087 11.1105 12.7082C11.1105 12.7076 11.1105 12.7071 11.1105 12.7066C11.1105 12.7061 11.1105 12.7056 11.1105 12.7051C11.1105 12.7045 11.1105 12.704 11.1105 12.7035C11.1105 12.703 11.1105 12.7025 11.1105 12.702C11.1105 12.7014 11.1105 12.7009 11.1105 12.7004C11.1105 12.6999 11.1105 12.6994 11.1105 12.6989C11.1105 12.6983 11.1105 12.6978 11.1105 12.6973C11.1105 12.6968 11.1105 12.6963 11.1105 12.6958C11.1105 12.6952 11.1105 12.6947 11.1105 12.6942C11.1105 12.6937 11.1105 12.6932 11.1105 12.6927C11.1105 12.6921 11.1105 12.6916 11.1105 12.6911C11.1105 12.6906 11.1105 12.6901 11.1105 12.6896C11.1105 12.689 11.1105 12.6885 11.1105 12.688C11.1105 12.6875 11.1105 12.687 11.1105 12.6865C11.1105 12.6859 11.1105 12.6854 11.1105 12.6849C11.1105 12.6844 11.1105 12.6839 11.1105 12.6833C11.1105 12.6828 11.1105 12.6823 11.1105 12.6818C11.1105 12.6813 11.1105 12.6808 11.1105 12.6802C11.1105 12.6797 11.1105 12.6792 11.1105 12.6787C11.1105 12.6782 11.1105 12.6777 11.1105 12.6771C11.1105 12.6766 11.1105 12.6761 11.1105 12.6756C11.1105 12.6751 11.1105 12.6746 11.1105 12.674C11.1105 12.6735 11.1105 12.673 11.1105 12.6725C11.1105 12.672 11.1105 12.6715 11.1105 12.6709C11.1105 12.6704 11.1105 12.6699 11.1105 12.6694C11.1105 12.6689 11.1105 12.6684 11.1105 12.6678C11.1105 12.6673 11.1105 12.6668 11.1105 12.6663C11.1105 12.6658 11.1105 12.6652 11.1105 12.6647C11.1105 12.6642 11.1105 12.6637 11.1105 12.6632C11.1105 12.6627 11.1105 12.6621 11.1105 12.6616C11.1105 12.6611 11.1105 12.6606 11.1105 12.6601C11.1105 12.6596 11.1105 12.659 11.1105 12.6585C11.1105 12.658 11.1105 12.6575 11.1105 12.657C11.1105 12.6565 11.1105 12.6559 11.1105 12.6554C11.1105 12.6549 11.1105 12.6544 11.1105 12.6539C11.1105 12.6533 11.1105 12.6528 11.1105 12.6523C11.1105 12.6518 11.1105 12.6513 11.1105 12.6508C11.1105 12.6502 11.1105 12.6497 11.1105 12.6492C11.1105 12.6487 11.1105 12.6482 11.1105 12.6477C11.1105 12.6471 11.1105 12.6466 11.1105 12.6461C11.1105 12.6456 11.1105 12.6451 11.1105 12.6445C11.1105 12.644 11.1105 12.6435 11.1105 12.643C11.1105 12.6425 11.1105 12.642 11.1105 12.6414C11.1105 12.6409 11.1105 12.6404 11.1105 12.6399C11.1105 12.6394 11.1105 12.6389 11.1105 12.6383C11.1105 12.6378 11.1105 12.6373 11.1105 12.6368C11.1105 12.6363 11.1105 12.6357 11.1105 12.6352C11.1105 12.6347 11.1105 12.6342 11.1105 12.6337C11.1105 12.6332 11.1105 12.6326 11.1105 12.6321C11.1105 12.6316 11.1105 12.6311 11.1105 12.6306C11.1105 12.63 11.1105 12.6295 11.1105 12.629C11.1105 12.6285 11.1105 12.628 11.1105 12.6275C11.1105 12.6269 11.1105 12.6264 11.1105 12.6259C11.1105 12.6254 11.1105 12.6249 11.1105 12.6244C11.1105 12.6238 11.1105 12.6233 11.1105 12.6228C11.1105 12.6223 11.1105 12.6218 11.1105 12.6212C11.1105 12.6207 11.1105 12.6202 11.1105 12.6197C11.1105 12.6192 11.1105 12.6187 11.1105 12.6181C11.1105 12.6176 11.1105 12.6171 11.1105 12.6166C11.1105 12.6161 11.1105 12.6155 11.1105 12.615C11.1105 12.6145 11.1105 12.614 11.1105 12.6135C11.1105 12.613 11.1105 12.6124 11.1105 12.6119C11.1105 12.6114 11.1105 12.6109 11.1105 12.6104C11.1105 12.6098 11.1105 12.6093 11.1105 12.6088C11.1105 12.6083 11.1105 12.6078 11.1105 12.6072C11.1105 12.6067 11.1105 12.6062 11.1105 12.6057C11.1105 12.6052 11.1105 12.6047 11.1105 12.6041C11.1105 12.6036 11.1105 12.6031 11.1105 12.6026C11.1105 12.6021 11.1105 12.6015 11.1105 12.601C11.1105 12.6005 11.1105 12.6 11.1105 12.5995C11.1105 12.599 11.1105 12.5984 11.1105 12.5979C11.1105 12.5974 11.1105 12.5969 11.1105 12.5964C11.1105 12.5958 11.1105 12.5953 11.1105 12.5948C11.1105 12.5943 11.1105 12.5938 11.1105 12.5933C11.1105 12.5927 11.1105 12.5922 11.1105 12.5917C11.1105 12.5912 11.1105 12.5907 11.1105 12.5901C11.1105 12.5896 11.1105 12.5891 11.1105 12.5886C11.1105 12.5881 11.1105 12.5875 11.1105 12.587C11.1105 12.5865 11.1105 12.586 11.1105 12.5855C11.1105 12.585 11.1105 12.5844 11.1105 12.5839C11.1105 12.5834 11.1105 12.5829 11.1105 12.5824C11.1105 12.5818 11.1105 12.5813 11.1105 12.5808C11.1105 12.5803 11.1105 12.5798 11.1105 12.5792C11.1105 12.5787 11.1105 12.5782 11.1105 12.5777C11.1105 12.5772 11.1105 12.5767 11.1105 12.5761C11.1105 12.5756 11.1105 12.5751 11.1105 12.5746C11.1105 12.5741 11.1105 12.5735 11.1105 12.573C11.1105 12.5725 11.1105 12.572 11.1105 12.5715C11.1105 12.5709 11.1105 12.5704 11.1105 12.5699C11.1105 12.5694 11.1105 12.5689 11.1105 12.5683C11.1105 12.5678 11.1105 12.5673 11.1105 12.5668C11.1105 12.5663 11.1105 12.5658 11.1105 12.5652C11.1105 12.5647 11.1105 12.5642 11.1105 12.5637C11.1105 12.5632 11.1105 12.5626 11.1105 12.5621C11.1105 12.5616 11.1105 12.5611 11.1105 12.5606C11.1105 12.56 11.1105 12.5595 11.1105 12.559C11.1105 12.5585 11.1105 12.558 11.1105 12.5574C11.1105 12.5569 11.1105 12.5564 11.1105 12.5559C11.1105 12.5554 11.1105 12.5549 11.1105 12.5543C11.1105 12.5538 11.1105 12.5533 11.1105 12.5528C11.1105 12.5523 11.1105 12.5517 11.1105 12.5512C11.1105 12.5507 11.1105 12.5502 11.1105 12.5497C11.1105 12.5491 11.1105 12.5486 11.1105 12.5481C11.1105 12.5476 11.1105 12.5471 11.1105 12.5465C11.1105 12.546 11.1105 12.5455 11.1105 12.545C11.1105 12.5445 11.1105 12.5439 11.1105 12.5434C11.1105 12.5429 11.1105 12.5424 11.1105 12.5419C11.1105 12.5413 11.1105 12.5408 11.1105 12.5403C11.1105 12.5398 11.1105 12.5393 11.1105 12.5388C11.1105 12.5382 11.1105 12.5377 11.1105 12.5372C11.1105 12.5367 11.1105 12.5362 11.1105 12.5356C11.1105 12.5351 11.1105 12.5346 11.1105 12.5341C11.1105 12.5336 11.1105 12.533 11.1105 12.5325C11.1105 12.532 11.1105 12.5315 11.1105 12.531C11.1105 12.5304 11.1105 12.5299 11.1105 12.5294C11.1105 12.5289 11.1105 12.5284 11.1105 12.5278C11.1105 12.5273 11.1105 12.5268 11.1105 12.5263C11.1105 12.5258 11.1105 12.5252 11.1105 12.5247C11.1105 12.5242 11.1105 12.5237 11.1105 12.5232C11.1105 12.5226 11.1105 12.5221 11.1105 12.5216C11.1105 12.5211 11.1105 12.5206 11.1105 12.52C11.1105 12.5195 11.1105 12.519 11.1105 12.5185C11.1105 12.518 11.1105 12.5174 11.1105 12.5169C11.1105 12.5164 11.1105 12.5159 11.1105 12.5154C11.1105 12.5148 11.1105 12.5143 11.1105 12.5138C11.1105 12.5133 11.1105 12.5128 11.1105 12.5122C11.1105 12.5117 11.1105 12.5112 11.1105 12.5107C11.1105 12.5102 11.1105 12.5096 11.1105 12.5091C11.1105 12.5086 11.1105 12.5081 11.1105 12.5076C11.1105 12.507 11.1105 12.5065 11.1105 12.506C11.1105 12.5055 11.1105 12.505 11.1105 12.5044C11.1105 12.5039 11.1105 12.5034 11.1105 12.5029C11.1105 12.5024 11.1105 12.5018 11.1105 12.5013C11.1105 12.5008 11.1105 12.5003 11.1105 12.4998C11.1105 12.4992 11.1105 12.4987 11.1105 12.4982C11.1105 12.4977 11.1105 12.4972 11.1105 12.4966C11.1105 12.4961 11.1105 12.4956 11.1105 12.4951C11.1105 12.4946 11.1105 12.494 11.1105 12.4935C11.1105 12.493 11.1105 12.4925 11.1105 12.492C11.1105 12.4914 11.1105 12.4909 11.1105 12.4904C11.1105 12.4899 11.1105 12.4894 11.1105 12.4888C11.1105 12.4883 11.1105 12.4878 11.1105 12.4873C11.1105 12.4868 11.1105 12.4862 11.1105 12.4857C11.1105 12.4852 11.1105 12.4847 11.1105 12.4842C11.1105 12.4836 11.1105 12.4831 11.1105 12.4826C11.1105 12.4821 11.1105 12.4815 11.1105 12.481C11.1105 12.4805 11.1105 12.48 11.1105 12.4795C11.1105 12.4789 11.1105 12.4784 11.1105 12.4779C11.1105 12.4774 11.1105 12.4769 11.1105 12.4763C11.1105 12.4758 11.1105 12.4753 11.1105 12.4748C11.1105 12.4743 11.1105 12.4737 11.1105 12.4732C11.1105 12.4727 11.1105 12.4722 11.1105 12.4717C11.1105 12.4711 11.1105 12.4706 11.1105 12.4701C11.1105 12.4696 11.1105 12.4691 11.1105 12.4685C11.1105 12.468 11.1105 12.4675 11.1105 12.467C11.1105 12.4665 11.1105 12.4659 11.1105 12.4654C11.1105 12.4649 11.1105 12.4644 11.1105 12.4638C11.1105 12.4633 11.1105 12.4628 11.1105 12.4623C11.1105 12.4618 11.1105 12.4612 11.1105 12.4607C11.1105 12.4602 11.1105 12.4597 11.1105 12.4592C11.1105 12.4586 11.1105 12.4581 11.1105 12.4576C11.1105 12.4571 11.1105 12.4566 11.1105 12.456C11.1105 12.4555 11.1105 12.455 11.1105 12.4545C11.1105 12.4539 11.1105 12.4534 11.1105 12.4529C11.1105 12.4524 11.1105 12.4519 11.1105 12.4513C11.1105 12.4508 11.1105 12.4503 11.1105 12.4498C11.1105 12.4493 11.1105 12.4487 11.1105 12.4482C11.1105 12.4477 11.1105 12.4472 11.1105 12.4467C11.1105 12.4461 11.1105 12.4456 11.1105 12.4451C11.1105 12.4446 11.1105 12.444 11.1105 12.4435C11.1105 12.443 11.1105 12.4425 11.1105 12.442C11.1105 12.4414 11.1105 12.4409 11.1105 12.4404C11.1105 12.4399 11.1105 12.4394 11.1105 12.4388C11.1105 12.4383 11.1105 12.4378 11.1105 12.4373C11.1105 12.4368 11.1105 12.4362 11.1105 12.4357C11.1105 12.4352 11.1105 12.4347 11.1105 12.4341C11.1105 12.4336 11.1105 12.4331 11.1105 12.4326C11.1105 12.4321 11.1105 12.4315 11.1105 12.431C11.1105 12.4305 11.1105 12.43 11.1105 12.4295C11.1105 12.4289 11.1105 12.4284 11.1105 12.4279C11.1105 12.4274 11.1105 12.4268 11.1105 12.4263C11.1105 12.4258 11.1105 12.4253 11.1105 12.4248C11.1105 12.4242 11.1105 12.4237 11.1105 12.4232C11.1105 12.4227 11.1105 12.4222 11.1105 12.4216C11.1105 12.4211 11.1105 12.4206 11.1105 12.4201C11.1105 12.4195 11.1105 12.419 11.1105 12.4185C11.1105 12.418 11.1105 12.4175 11.1105 12.4169C11.1105 12.4164 11.1105 12.4159 11.1105 12.4154C11.1105 12.4149 11.1105 12.4143 11.1105 12.4138C11.1105 12.4133 11.1105 12.4128 11.1105 12.4122C11.1105 12.4117 11.1105 12.4112 11.1105 12.4107C11.1105 12.4102 11.1105 12.4096 11.1105 12.4091C11.1105 12.4086 11.1105 12.4081 11.1105 12.4075C11.1105 12.407 11.1105 12.4065 11.1105 12.406C11.1105 12.4055 11.1105 12.4049 11.1105 12.4044C11.1105 12.4039 11.1105 12.4034 11.1105 12.4029C11.1105 12.4023 11.1105 12.4018 11.1105 12.4013C11.1105 12.4008 11.1105 12.4002 11.1105 12.3997C11.1105 12.3992 11.1105 12.3987 11.1105 12.3982C11.1105 12.3976 11.1105 12.3971 11.1105 12.3966H10.7565C10.7565 12.3971 10.7565 12.3976 10.7565 12.3982C10.7565 12.3987 10.7565 12.3992 10.7565 12.3997C10.7565 12.4002 10.7565 12.4008 10.7565 12.4013C10.7565 12.4018 10.7565 12.4023 10.7565 12.4029C10.7565 12.4034 10.7565 12.4039 10.7565 12.4044C10.7565 12.4049 10.7565 12.4055 10.7565 12.406C10.7565 12.4065 10.7565 12.407 10.7565 12.4075C10.7565 12.4081 10.7565 12.4086 10.7565 12.4091C10.7565 12.4096 10.7565 12.4102 10.7565 12.4107C10.7565 12.4112 10.7565 12.4117 10.7565 12.4122C10.7565 12.4128 10.7565 12.4133 10.7565 12.4138C10.7565 12.4143 10.7565 12.4149 10.7565 12.4154C10.7565 12.4159 10.7565 12.4164 10.7565 12.4169C10.7565 12.4175 10.7565 12.418 10.7565 12.4185C10.7565 12.419 10.7565 12.4195 10.7565 12.4201C10.7565 12.4206 10.7565 12.4211 10.7565 12.4216C10.7565 12.4222 10.7565 12.4227 10.7565 12.4232C10.7565 12.4237 10.7565 12.4242 10.7565 12.4248C10.7565 12.4253 10.7565 12.4258 10.7565 12.4263C10.7565 12.4268 10.7565 12.4274 10.7565 12.4279C10.7565 12.4284 10.7565 12.4289 10.7565 12.4295C10.7565 12.43 10.7565 12.4305 10.7565 12.431C10.7565 12.4315 10.7565 12.4321 10.7565 12.4326C10.7565 12.4331 10.7565 12.4336 10.7565 12.4341C10.7565 12.4347 10.7565 12.4352 10.7565 12.4357C10.7565 12.4362 10.7565 12.4368 10.7565 12.4373C10.7565 12.4378 10.7565 12.4383 10.7565 12.4388C10.7565 12.4394 10.7565 12.4399 10.7565 12.4404C10.7565 12.4409 10.7565 12.4414 10.7565 12.442C10.7565 12.4425 10.7565 12.443 10.7565 12.4435C10.7565 12.444 10.7565 12.4446 10.7565 12.4451C10.7565 12.4456 10.7565 12.4461 10.7565 12.4467C10.7565 12.4472 10.7565 12.4477 10.7565 12.4482C10.7565 12.4487 10.7565 12.4493 10.7565 12.4498C10.7565 12.4503 10.7565 12.4508 10.7565 12.4513C10.7565 12.4519 10.7565 12.4524 10.7565 12.4529C10.7565 12.4534 10.7565 12.4539 10.7565 12.4545C10.7565 12.455 10.7565 12.4555 10.7565 12.456C10.7565 12.4566 10.7565 12.4571 10.7565 12.4576C10.7565 12.4581 10.7565 12.4586 10.7565 12.4592C10.7565 12.4597 10.7565 12.4602 10.7565 12.4607C10.7565 12.4612 10.7565 12.4618 10.7565 12.4623C10.7565 12.4628 10.7565 12.4633 10.7565 12.4638C10.7565 12.4644 10.7565 12.4649 10.7565 12.4654C10.7565 12.4659 10.7565 12.4665 10.7565 12.467C10.7565 12.4675 10.7565 12.468 10.7565 12.4685C10.7565 12.4691 10.7565 12.4696 10.7565 12.4701C10.7565 12.4706 10.7565 12.4711 10.7565 12.4717C10.7565 12.4722 10.7565 12.4727 10.7565 12.4732C10.7565 12.4737 10.7565 12.4743 10.7565 12.4748C10.7565 12.4753 10.7565 12.4758 10.7565 12.4763C10.7565 12.4769 10.7565 12.4774 10.7565 12.4779C10.7565 12.4784 10.7565 12.4789 10.7565 12.4795C10.7565 12.48 10.7565 12.4805 10.7565 12.481C10.7565 12.4815 10.7565 12.4821 10.7565 12.4826C10.7565 12.4831 10.7565 12.4836 10.7565 12.4842C10.7565 12.4847 10.7565 12.4852 10.7565 12.4857C10.7565 12.4862 10.7565 12.4868 10.7565 12.4873C10.7565 12.4878 10.7565 12.4883 10.7565 12.4888C10.7565 12.4894 10.7565 12.4899 10.7565 12.4904C10.7565 12.4909 10.7565 12.4914 10.7565 12.492C10.7565 12.4925 10.7565 12.493 10.7565 12.4935C10.7565 12.494 10.7565 12.4946 10.7565 12.4951C10.7565 12.4956 10.7565 12.4961 10.7565 12.4966C10.7565 12.4972 10.7565 12.4977 10.7565 12.4982C10.7565 12.4987 10.7565 12.4992 10.7565 12.4998C10.7565 12.5003 10.7565 12.5008 10.7565 12.5013C10.7565 12.5018 10.7565 12.5024 10.7565 12.5029C10.7565 12.5034 10.7565 12.5039 10.7565 12.5044C10.7565 12.505 10.7565 12.5055 10.7565 12.506C10.7565 12.5065 10.7565 12.507 10.7565 12.5076C10.7565 12.5081 10.7565 12.5086 10.7565 12.5091C10.7565 12.5096 10.7565 12.5102 10.7565 12.5107C10.7565 12.5112 10.7565 12.5117 10.7565 12.5122C10.7565 12.5128 10.7565 12.5133 10.7565 12.5138C10.7565 12.5143 10.7565 12.5148 10.7565 12.5154C10.7565 12.5159 10.7565 12.5164 10.7565 12.5169C10.7565 12.5174 10.7565 12.518 10.7565 12.5185C10.7565 12.519 10.7565 12.5195 10.7565 12.52C10.7565 12.5206 10.7565 12.5211 10.7565 12.5216C10.7565 12.5221 10.7565 12.5226 10.7565 12.5232C10.7565 12.5237 10.7565 12.5242 10.7565 12.5247C10.7565 12.5252 10.7565 12.5258 10.7565 12.5263C10.7565 12.5268 10.7565 12.5273 10.7565 12.5278C10.7565 12.5284 10.7565 12.5289 10.7565 12.5294C10.7565 12.5299 10.7565 12.5304 10.7565 12.531C10.7565 12.5315 10.7565 12.532 10.7565 12.5325C10.7565 12.533 10.7565 12.5336 10.7565 12.5341C10.7565 12.5346 10.7565 12.5351 10.7565 12.5356C10.7565 12.5362 10.7565 12.5367 10.7565 12.5372C10.7565 12.5377 10.7565 12.5382 10.7565 12.5388C10.7565 12.5393 10.7565 12.5398 10.7565 12.5403C10.7565 12.5408 10.7565 12.5413 10.7565 12.5419C10.7565 12.5424 10.7565 12.5429 10.7565 12.5434C10.7565 12.5439 10.7565 12.5445 10.7565 12.545C10.7565 12.5455 10.7565 12.546 10.7565 12.5465C10.7565 12.5471 10.7565 12.5476 10.7565 12.5481C10.7565 12.5486 10.7565 12.5491 10.7565 12.5497C10.7565 12.5502 10.7565 12.5507 10.7565 12.5512C10.7565 12.5517 10.7565 12.5523 10.7565 12.5528C10.7565 12.5533 10.7565 12.5538 10.7565 12.5543C10.7565 12.5549 10.7565 12.5554 10.7565 12.5559C10.7565 12.5564 10.7565 12.5569 10.7565 12.5574C10.7565 12.558 10.7565 12.5585 10.7565 12.559C10.7565 12.5595 10.7565 12.56 10.7565 12.5606C10.7565 12.5611 10.7565 12.5616 10.7565 12.5621C10.7565 12.5626 10.7565 12.5632 10.7565 12.5637C10.7565 12.5642 10.7565 12.5647 10.7565 12.5652C10.7565 12.5658 10.7565 12.5663 10.7565 12.5668C10.7565 12.5673 10.7565 12.5678 10.7565 12.5683C10.7565 12.5689 10.7565 12.5694 10.7565 12.5699C10.7565 12.5704 10.7565 12.5709 10.7565 12.5715C10.7565 12.572 10.7565 12.5725 10.7565 12.573C10.7565 12.5735 10.7565 12.5741 10.7565 12.5746C10.7565 12.5751 10.7565 12.5756 10.7565 12.5761C10.7565 12.5767 10.7565 12.5772 10.7565 12.5777C10.7565 12.5782 10.7565 12.5787 10.7565 12.5792C10.7565 12.5798 10.7565 12.5803 10.7565 12.5808C10.7565 12.5813 10.7565 12.5818 10.7565 12.5824C10.7565 12.5829 10.7565 12.5834 10.7565 12.5839C10.7565 12.5844 10.7565 12.585 10.7565 12.5855C10.7565 12.586 10.7565 12.5865 10.7565 12.587C10.7565 12.5875 10.7565 12.5881 10.7565 12.5886C10.7565 12.5891 10.7565 12.5896 10.7565 12.5901C10.7565 12.5907 10.7565 12.5912 10.7565 12.5917C10.7565 12.5922 10.7565 12.5927 10.7565 12.5933C10.7565 12.5938 10.7565 12.5943 10.7565 12.5948C10.7565 12.5953 10.7565 12.5958 10.7565 12.5964C10.7565 12.5969 10.7565 12.5974 10.7565 12.5979C10.7565 12.5984 10.7565 12.599 10.7565 12.5995C10.7565 12.6 10.7565 12.6005 10.7565 12.601C10.7565 12.6015 10.7565 12.6021 10.7565 12.6026C10.7565 12.6031 10.7565 12.6036 10.7565 12.6041C10.7565 12.6047 10.7565 12.6052 10.7565 12.6057C10.7565 12.6062 10.7565 12.6067 10.7565 12.6072C10.7565 12.6078 10.7565 12.6083 10.7565 12.6088C10.7565 12.6093 10.7565 12.6098 10.7565 12.6104C10.7565 12.6109 10.7565 12.6114 10.7565 12.6119C10.7565 12.6124 10.7565 12.613 10.7565 12.6135C10.7565 12.614 10.7565 12.6145 10.7565 12.615C10.7565 12.6155 10.7565 12.6161 10.7565 12.6166C10.7565 12.6171 10.7565 12.6176 10.7565 12.6181C10.7565 12.6187 10.7565 12.6192 10.7565 12.6197C10.7565 12.6202 10.7565 12.6207 10.7565 12.6212C10.7565 12.6218 10.7565 12.6223 10.7565 12.6228C10.7565 12.6233 10.7565 12.6238 10.7565 12.6244C10.7565 12.6249 10.7565 12.6254 10.7565 12.6259C10.7565 12.6264 10.7565 12.6269 10.7565 12.6275C10.7565 12.628 10.7565 12.6285 10.7565 12.629C10.7565 12.6295 10.7565 12.63 10.7565 12.6306C10.7565 12.6311 10.7565 12.6316 10.7565 12.6321C10.7565 12.6326 10.7565 12.6332 10.7565 12.6337C10.7565 12.6342 10.7565 12.6347 10.7565 12.6352C10.7565 12.6357 10.7565 12.6363 10.7565 12.6368C10.7565 12.6373 10.7565 12.6378 10.7565 12.6383C10.7565 12.6389 10.7565 12.6394 10.7565 12.6399C10.7565 12.6404 10.7565 12.6409 10.7565 12.6414C10.7565 12.642 10.7565 12.6425 10.7565 12.643C10.7565 12.6435 10.7565 12.644 10.7565 12.6445C10.7565 12.6451 10.7565 12.6456 10.7565 12.6461C10.7565 12.6466 10.7565 12.6471 10.7565 12.6477C10.7565 12.6482 10.7565 12.6487 10.7565 12.6492C10.7565 12.6497 10.7565 12.6502 10.7565 12.6508C10.7565 12.6513 10.7565 12.6518 10.7565 12.6523C10.7565 12.6528 10.7565 12.6533 10.7565 12.6539C10.7565 12.6544 10.7565 12.6549 10.7565 12.6554C10.7565 12.6559 10.7565 12.6565 10.7565 12.657C10.7565 12.6575 10.7565 12.658 10.7565 12.6585C10.7565 12.659 10.7565 12.6596 10.7565 12.6601C10.7565 12.6606 10.7565 12.6611 10.7565 12.6616C10.7565 12.6621 10.7565 12.6627 10.7565 12.6632C10.7565 12.6637 10.7565 12.6642 10.7565 12.6647C10.7565 12.6652 10.7565 12.6658 10.7565 12.6663C10.7565 12.6668 10.7565 12.6673 10.7565 12.6678C10.7565 12.6684 10.7565 12.6689 10.7565 12.6694C10.7565 12.6699 10.7565 12.6704 10.7565 12.6709C10.7565 12.6715 10.7565 12.672 10.7565 12.6725C10.7565 12.673 10.7565 12.6735 10.7565 12.674C10.7565 12.6746 10.7565 12.6751 10.7565 12.6756C10.7565 12.6761 10.7565 12.6766 10.7565 12.6771C10.7565 12.6777 10.7565 12.6782 10.7565 12.6787C10.7565 12.6792 10.7565 12.6797 10.7565 12.6802C10.7565 12.6808 10.7565 12.6813 10.7565 12.6818C10.7565 12.6823 10.7565 12.6828 10.7565 12.6833C10.7565 12.6839 10.7565 12.6844 10.7565 12.6849C10.7565 12.6854 10.7565 12.6859 10.7565 12.6865C10.7565 12.687 10.7565 12.6875 10.7565 12.688C10.7565 12.6885 10.7565 12.689 10.7565 12.6896C10.7565 12.6901 10.7565 12.6906 10.7565 12.6911C10.7565 12.6916 10.7565 12.6921 10.7565 12.6927C10.7565 12.6932 10.7565 12.6937 10.7565 12.6942C10.7565 12.6947 10.7565 12.6952 10.7565 12.6958C10.7565 12.6963 10.7565 12.6968 10.7565 12.6973C10.7565 12.6978 10.7565 12.6983 10.7565 12.6989C10.7565 12.6994 10.7565 12.6999 10.7565 12.7004C10.7565 12.7009 10.7565 12.7014 10.7565 12.702C10.7565 12.7025 10.7565 12.703 10.7565 12.7035C10.7565 12.704 10.7565 12.7045 10.7565 12.7051C10.7565 12.7056 10.7565 12.7061 10.7565 12.7066C10.7565 12.7071 10.7565 12.7076 10.7565 12.7082C10.7565 12.7087 10.7565 12.7092 10.7565 12.7097C10.7565 12.7102 10.7565 12.7107 10.7565 12.7113C10.7565 12.7118 10.7565 12.7123 10.7565 12.7128C10.7565 12.7133 10.7565 12.7138 10.7565 12.7144C10.7565 12.7149 10.7565 12.7154 10.7565 12.7159C10.7565 12.7164 10.7565 12.7169 10.7565 12.7175C10.7565 12.718 10.7565 12.7185 10.7565 12.719C10.7565 12.7195 10.7565 12.72 10.7565 12.7206C10.7565 12.7211 10.7565 12.7216 10.7565 12.7221C10.7565 12.7226 10.7565 12.7231 10.7565 12.7236C10.7565 12.7242 10.7565 12.7247 10.7565 12.7252C10.7565 12.7257 10.7565 12.7262 10.7565 12.7267C10.7565 12.7273 10.7565 12.7278 10.7565 12.7283C10.7565 12.7288 10.7565 12.7293 10.7565 12.7298C10.7565 12.7304 10.7565 12.7309 10.7565 12.7314C10.7565 12.7319 10.7565 12.7324 10.7565 12.7329C10.7565 12.7335 10.7565 12.734 10.7565 12.7345C10.7565 12.735 10.7565 12.7355 10.7565 12.736C10.7565 12.7366 10.7565 12.7371 10.7565 12.7376C10.7565 12.7381 10.7565 12.7386 10.7565 12.7391C10.7565 12.7397 10.7565 12.7402 10.7565 12.7407C10.7565 12.7412 10.7565 12.7417 10.7565 12.7422C10.7565 12.7427 10.7565 12.7433 10.7565 12.7438C10.7565 12.7443 10.7565 12.7448 10.7565 12.7453C10.7565 12.7458 10.7565 12.7464 10.7565 12.7469C10.7565 12.7474 10.7565 12.7479 10.7565 12.7484C10.7565 12.7489 10.7565 12.7495 10.7565 12.75C10.7565 12.7505 10.7565 12.751 10.7565 12.7515C10.7565 12.752 10.7565 12.7526 10.7565 12.7531C10.7565 12.7536 10.7565 12.7541 10.7565 12.7546C10.7565 12.7551 10.7565 12.7556 10.7565 12.7562C10.7565 12.7567 10.7565 12.7572 10.7565 12.7577C10.7565 12.7582 10.7565 12.7587 10.7565 12.7593C10.7565 12.7598 10.7565 12.7603 10.7565 12.7608C10.7565 12.7613 10.7565 12.7618 10.7565 12.7623C10.7565 12.7629 10.7565 12.7634 10.7565 12.7639C10.7565 12.7644 10.7565 12.7649 10.7565 12.7654C10.7565 12.766 10.7565 12.7665 10.7565 12.767C10.7565 12.7675 10.7565 12.768 10.7565 12.7685C10.7565 12.7691 10.7565 12.7696 10.7565 12.7701C10.7565 12.7706 10.7565 12.7711 10.7565 12.7716C10.7565 12.7721 10.7565 12.7727 10.7565 12.7732C10.7565 12.7737 10.7565 12.7742 10.7565 12.7747C10.7565 12.7752 10.7565 12.7758 10.7565 12.7763C10.7565 12.7768 10.7565 12.7773 10.7565 12.7778C10.7565 12.7783 10.7565 12.7788 10.7565 12.7794C10.7565 12.7799 10.7565 12.7804 10.7565 12.7809C10.7565 12.7814 10.7565 12.7819 10.7565 12.7825C10.7565 12.783 10.7565 12.7835 10.7565 12.784C10.7565 12.7845 10.7565 12.785 10.7565 12.7855C10.7565 12.7861 10.7565 12.7866 10.7565 12.7871C10.7565 12.7876 10.7565 12.7881 10.7565 12.7886C10.7565 12.7892 10.7565 12.7897 10.7565 12.7902C10.7565 12.7907 10.7565 12.7912 10.7565 12.7917C10.7565 12.7922 10.7565 12.7928 10.7565 12.7933C10.7565 12.7938 10.7565 12.7943 10.7565 12.7948C10.7565 12.7953 10.7565 12.7958 10.7565 12.7964C10.7565 12.7969 10.7565 12.7974 10.7565 12.7979C10.7565 12.7984 10.7565 12.7989 10.7565 12.7995C10.7565 12.8 10.7565 12.8005 10.7565 12.801C10.7565 12.8015 10.7565 12.802 10.7565 12.8025C10.7565 12.8031 10.7565 12.8036 10.7565 12.8041C10.7565 12.8046 10.7565 12.8051 10.7565 12.8056C10.7565 12.8061 10.7565 12.8067 10.7565 12.8072C10.7565 12.8077 10.7565 12.8082 10.7565 12.8087C10.7565 12.8092 10.7565 12.8098 10.7565 12.8103C10.7565 12.8108 10.7565 12.8113 10.7565 12.8118C10.7565 12.8123 10.7565 12.8128 10.7565 12.8134C10.7565 12.8139 10.7565 12.8144 10.7565 12.8149C10.7565 12.8154 10.7565 12.8159 10.7565 12.8164C10.7565 12.817 10.7565 12.8175 10.7565 12.818C10.7565 12.8185 10.7565 12.819 10.7565 12.8195C10.7565 12.82 10.7565 12.8206 10.7565 12.8211C10.7565 12.8216 10.7565 12.8221 10.7565 12.8226C10.7565 12.8231 10.7565 12.8236 10.7565 12.8242C10.7565 12.8247 10.7565 12.8252 10.7565 12.8257C10.7565 12.8262 10.7565 12.8267 10.7565 12.8273C10.7565 12.8278 10.7565 12.8283 10.7565 12.8288C10.7565 12.8293 10.7565 12.8298 10.7565 12.8303C10.7565 12.8309 10.7565 12.8314 10.7565 12.8319C10.7565 12.8324 10.7565 12.8329 10.7565 12.8334C10.7565 12.8339 10.7565 12.8345 10.7565 12.835C10.7565 12.8355 10.7565 12.836 10.7565 12.8365C10.7565 12.837 10.7565 12.8375 10.7565 12.8381C10.7565 12.8386 10.7565 12.8391 10.7565 12.8396C10.7565 12.8401 10.7565 12.8406 10.7565 12.8411C10.7565 12.8417 10.7565 12.8422 10.7565 12.8427C10.7565 12.8432 10.7565 12.8437 10.7565 12.8442C10.7565 12.8447 10.7565 12.8453 10.7565 12.8458C10.7565 12.8463 10.7565 12.8468 10.7565 12.8473C10.7565 12.8478 10.7565 12.8483 10.7565 12.8489C10.7565 12.8494 10.7565 12.8499 10.7565 12.8504C10.7565 12.8509 10.7565 12.8514 10.7565 12.8519C10.7565 12.8525 10.7565 12.853 10.7565 12.8535C10.7565 12.854 10.7565 12.8545 10.7565 12.855C10.7565 12.8555 10.7565 12.8561 10.7565 12.8566C10.7565 12.8571 10.7565 12.8576 10.7565 12.8581C10.7565 12.8586 10.7565 12.8591 10.7565 12.8596C10.7565 12.8602 10.7565 12.8607 10.7565 12.8612C10.7565 12.8617 10.7565 12.8622 10.7565 12.8627C10.7565 12.8632 10.7565 12.8638 10.7565 12.8643C10.7565 12.8648 10.7565 12.8653 10.7565 12.8658C10.7565 12.8663 10.7565 12.8668 10.7565 12.8674C10.7565 12.8679 10.7565 12.8684 10.7565 12.8689C10.7565 12.8694 10.7565 12.8699 10.7565 12.8704C10.7565 12.871 10.7565 12.8715 10.7565 12.872C10.7565 12.8725 10.7565 12.873 10.7565 12.8735C10.7565 12.874 10.7565 12.8746 10.7565 12.8751C10.7565 12.8756 10.7565 12.8761 10.7565 12.8766C10.7565 12.8771 10.7565 12.8776 10.7565 12.8781C10.7565 12.8787 10.7565 12.8792 10.7565 12.8797C10.7565 12.8802 10.7565 12.8807 10.7565 12.8812C10.7565 12.8817 10.7565 12.8823 10.7565 12.8828C10.7565 12.8833 10.7565 12.8838 10.7565 12.8843C10.7565 12.8848 10.7565 12.8853 10.7565 12.8858C10.7565 12.8864 10.7565 12.8869 10.7565 12.8874C10.7565 12.8879 10.7565 12.8884 10.7565 12.8889C10.7565 12.8894 10.7565 12.89 10.7565 12.8905C10.7565 12.891 10.7565 12.8915 10.7565 12.892C10.7565 12.8925 10.7565 12.893 10.7565 12.8936C10.7565 12.8941 10.7565 12.8946 10.7565 12.8951C10.7565 12.8956 10.7565 12.8961 10.7565 12.8966C10.7565 12.8971 10.7565 12.8977 10.7565 12.8982C10.7565 12.8987 10.7565 12.8992 10.7565 12.8997C10.7565 12.9002 10.7565 12.9007 10.7565 12.9013C10.7565 12.9018 10.7565 12.9023 10.7565 12.9028C10.7565 12.9033 10.7565 12.9038 10.7565 12.9043C10.7565 12.9048 10.7565 12.9054 10.7565 12.9059C10.7565 12.9064 10.7565 12.9069 10.7565 12.9074C10.7565 12.9079 10.7565 12.9084 10.7565 12.9089C10.7565 12.9095 10.7565 12.91 10.7565 12.9105C10.7565 12.911 10.7565 12.9115 10.7565 12.912C10.7565 12.9125 10.7565 12.9131 10.7565 12.9136C10.7565 12.9141 10.7565 12.9146 10.7565 12.9151C10.7565 12.9156 10.7565 12.9161 10.7565 12.9166C10.7565 12.9172 10.7565 12.9177 10.7565 12.9182C10.7565 12.9187 10.7565 12.9192 10.7565 12.9197C10.7565 12.9202 10.7565 12.9207 10.7565 12.9213C10.7565 12.9218 10.7565 12.9223 10.7565 12.9228C10.7565 12.9233 10.7565 12.9238 10.7565 12.9243C10.7565 12.9249 10.7565 12.9254 10.7565 12.9259C10.7565 12.9264 10.7565 12.9269 10.7565 12.9274C10.7565 12.9279 10.7565 12.9284 10.7565 12.929C10.7565 12.9295 10.7565 12.93 10.7565 12.9305C10.7565 12.931 10.7565 12.9315 10.7565 12.932C10.7565 12.9325 10.7565 12.9331 10.7565 12.9336C10.7565 12.9341 10.7565 12.9346 10.7565 12.9351C10.7565 12.9356 10.7565 12.9361 10.7565 12.9366C10.7565 12.9372 10.7565 12.9377 10.7565 12.9382C10.7565 12.9387 10.7565 12.9392 10.7565 12.9397C10.7565 12.9402 10.7565 12.9407 10.7565 12.9413C10.7565 12.9418 10.7565 12.9423 10.7565 12.9428C10.7565 12.9433 10.7565 12.9438 10.7565 12.9443C10.7565 12.9448 10.7565 12.9454 10.7565 12.9459C10.7565 12.9464 10.7565 12.9469 10.7565 12.9474C10.7565 12.9479 10.7565 12.9484 10.7565 12.9489C10.7565 12.9495 10.7565 12.95 10.7565 12.9505C10.7565 12.951 10.7565 12.9515 10.7565 12.952C10.7565 12.9525 10.7565 12.953 10.7565 12.9536C10.7565 12.9541 10.7565 12.9546 10.7565 12.9551C10.7565 12.9556 10.7565 12.9561 10.7565 12.9566C10.7565 12.9571 10.7565 12.9577 10.7565 12.9582C10.7565 12.9587 10.7565 12.9592 10.7565 12.9597C10.7565 12.9602 10.7565 12.9607 10.7565 12.9612C10.7565 12.9618 10.7565 12.9623 10.7565 12.9628C10.7565 12.9633 10.7565 12.9638 10.7565 12.9643C10.7565 12.9648 10.7565 12.9653 10.7565 12.9658C10.7565 12.9664 10.7565 12.9669 10.7565 12.9674C10.7565 12.9679 10.7565 12.9684 10.7565 12.9689C10.7565 12.9694 10.7565 12.9699 10.7565 12.9705C10.7565 12.971 10.7565 12.9715 10.7565 12.972C10.7565 12.9725 10.7565 12.973 10.7565 12.9735C10.7565 12.974 10.7565 12.9746 10.7565 12.9751C10.7565 12.9756 10.7565 12.9761 10.7565 12.9766C10.7565 12.9771 10.7565 12.9776 10.7565 12.9781C10.7565 12.9786 10.7565 12.9792 10.7565 12.9797C10.7565 12.9802 10.7565 12.9807 10.7565 12.9812C10.7565 12.9817 10.7565 12.9822 10.7565 12.9827C10.7565 12.9833 10.7565 12.9838 10.7565 12.9843C10.7565 12.9848 10.7565 12.9853 10.7565 12.9858C10.7565 12.9863 10.7565 12.9868 10.7565 12.9873C10.7565 12.9879 10.7565 12.9884 10.7565 12.9889C10.7565 12.9894 10.7565 12.9899 10.7565 12.9904C10.7565 12.9909 10.7565 12.9914 10.7565 12.992C10.7565 12.9925 10.7565 12.993 10.7565 12.9935C10.7565 12.994 10.7565 12.9945 10.7565 12.995C10.7565 12.9955 10.7565 12.996 10.7565 12.9966C10.7565 12.9971 10.7565 12.9976 10.7565 12.9981C10.7565 12.9986 10.7565 12.9991 10.7565 12.9996C10.7565 13.0001 10.7565 13.0007 10.7565 13.0012C10.7565 13.0017 10.7565 13.0022 10.7565 13.0027C10.7565 13.0032 10.7565 13.0037 10.7565 13.0042C10.7565 13.0047 10.7565 13.0053 10.7565 13.0058C10.7565 13.0063 10.7565 13.0068 10.7565 13.0073C10.7565 13.0078 10.7565 13.0083 10.7565 13.0088C10.7565 13.0093 10.7565 13.0099 10.7565 13.0104C10.7565 13.0109 10.7565 13.0114 10.7565 13.0119C10.7565 13.0124 10.7565 13.0129 10.7565 13.0134C10.7565 13.0139 10.7565 13.0145 10.7565 13.015C10.7565 13.0155 10.7565 13.016 10.7565 13.0165C10.7565 13.017 10.7565 13.0175 10.7565 13.018C10.7565 13.0185 10.7565 13.0191 10.7565 13.0196C10.7565 13.0201 10.7565 13.0206 10.7565 13.0211C10.7565 13.0216 10.7565 13.0221 10.7565 13.0226C10.7565 13.0231 10.7565 13.0237 10.7565 13.0242C10.7565 13.0247 10.7565 13.0252 10.7565 13.0257C10.7565 13.0262 10.7565 13.0267 10.7565 13.0272C10.7565 13.0277 10.7565 13.0283 10.7565 13.0288C10.7565 13.0293 10.7565 13.0298 10.7565 13.0303C10.7565 13.0308 10.7565 13.0313 10.7565 13.0318C10.7565 13.0323 10.7565 13.0329 10.7565 13.0334C10.7565 13.0339 10.7565 13.0344 10.7565 13.0349C10.7565 13.0354 10.7565 13.0359 10.7565 13.0364C10.7565 13.0369 10.7565 13.0375 10.7565 13.038C10.7565 13.0385 10.7565 13.039 10.7565 13.0395C10.7565 13.04 10.7565 13.0405 10.7565 13.041C10.7565 13.0415 10.7565 13.0421 10.7565 13.0426C10.7565 13.0431 10.7565 13.0436 10.7565 13.0441C10.7565 13.0446 10.7565 13.0451 10.7565 13.0456C10.7565 13.0461 10.7565 13.0467 10.7565 13.0472C10.7565 13.0477 10.7565 13.0482 10.7565 13.0487C10.7565 13.0492 10.7565 13.0497 10.7565 13.0502C10.7565 13.0507 10.7565 13.0512 10.7565 13.0518C10.7565 13.0523 10.7565 13.0528 10.7565 13.0533C10.7565 13.0538 10.7565 13.0543 10.7565 13.0548C10.7565 13.0553 10.7565 13.0558 10.7565 13.0564C10.7565 13.0569 10.7565 13.0574 10.7565 13.0579C10.7565 13.0584 10.7565 13.0589 10.7565 13.0594C10.7565 13.0599 10.7565 13.0604 10.7565 13.0609C10.7565 13.0615 10.7565 13.062 10.7565 13.0625C10.7565 13.063 10.7565 13.0635 10.7565 13.064C10.7565 13.0645 10.7565 13.065 10.7565 13.0655C10.7565 13.0661 10.7565 13.0666 10.7565 13.0671C10.7565 13.0676 10.7565 13.0681 10.7565 13.0686C10.7565 13.0691 10.7565 13.0696 10.7565 13.0701C10.7565 13.0706 10.7565 13.0712 10.7565 13.0717C10.7565 13.0722 10.7565 13.0727 10.7565 13.0732C10.7565 13.0737 10.7565 13.0742 10.7565 13.0747C10.7565 13.0752 10.7565 13.0757 10.7565 13.0763C10.7565 13.0768 10.7565 13.0773 10.7565 13.0778C10.7565 13.0783 10.7565 13.0788 10.7565 13.0793C10.7565 13.0798 10.7565 13.0803 10.7565 13.0808C10.7565 13.0814 10.7565 13.0819 10.7565 13.0824C10.7565 13.0829 10.7565 13.0834 10.7565 13.0839C10.7565 13.0844 10.7565 13.0849 10.7565 13.0854C10.7565 13.0859 10.7565 13.0865 10.7565 13.087C10.7565 13.0875 10.7565 13.088 10.7565 13.0885C10.7565 13.089 10.7565 13.0895 10.7565 13.09C10.7565 13.0905 10.7565 13.091 10.7565 13.0916C10.7565 13.0921 10.7565 13.0926 10.7565 13.0931C10.7565 13.0936 10.7565 13.0941 10.7565 13.0946C10.7565 13.0951 10.7565 13.0956 10.7565 13.0961C10.7565 13.0967 10.7565 13.0972 10.7565 13.0977C10.7565 13.0982 10.7565 13.0987 10.7565 13.0992C10.7565 13.0997 10.7565 13.1002 10.7565 13.1007C10.7565 13.1012 10.7565 13.1018 10.7565 13.1023C10.7565 13.1028 10.7565 13.1033 10.7565 13.1038C10.7565 13.1043 10.7565 13.1048 10.7565 13.1053C10.7565 13.1058 10.7565 13.1063 10.7565 13.1069C10.7565 13.1074 10.7565 13.1079 10.7565 13.1084C10.7565 13.1089 10.7565 13.1094 10.7565 13.1099C10.7565 13.1104 10.7565 13.1109 10.7565 13.1114C10.7565 13.1119 10.7565 13.1125 10.7565 13.113C10.7565 13.1135 10.7565 13.114 10.7565 13.1145C10.7565 13.115 10.7565 13.1155 10.7565 13.116C10.7565 13.1165 10.7565 13.117 10.7565 13.1176C10.7565 13.1181 10.7565 13.1186 10.7565 13.1191C10.7565 13.1196 10.7565 13.1201 10.7565 13.1206C10.7565 13.1211 10.7565 13.1216 10.7565 13.1221C10.7565 13.1226 10.7565 13.1232 10.7565 13.1237C10.7565 13.1242 10.7565 13.1247 10.7565 13.1252C10.7565 13.1257 10.7565 13.1262 10.7565 13.1267C10.7565 13.1272 10.7565 13.1277 10.7565 13.1283C10.7565 13.1288 10.7565 13.1293 10.7565 13.1298C10.7565 13.1303 10.7565 13.1308 10.7565 13.1313C10.7565 13.1318 10.7565 13.1323 10.7565 13.1328C10.7565 13.1333 10.7565 13.1339 10.7565 13.1344C10.7565 13.1349 10.7565 13.1354 10.7565 13.1359C10.7565 13.1364 10.7565 13.1369 10.7565 13.1374C10.7565 13.1379 10.7565 13.1384 10.7565 13.1389C10.7565 13.1395 10.7565 13.14 10.7565 13.1405C10.7565 13.141 10.7565 13.1415 10.7565 13.142C10.7565 13.1425 10.7565 13.143 10.7565 13.1435C10.7565 13.144 10.7565 13.1445 10.7565 13.1451C10.7565 13.1456 10.7565 13.1461 10.7565 13.1466C10.7565 13.1471 10.7565 13.1476 10.7565 13.1481C10.7565 13.1486 10.7565 13.1491 10.7565 13.1496C10.7565 13.1501 10.7565 13.1506 10.7565 13.1512C10.7565 13.1517 10.7565 13.1522 10.7565 13.1527C10.7565 13.1532 10.7565 13.1537 10.7565 13.1542C10.7565 13.1547 10.7565 13.1552 10.7565 13.1557C10.7565 13.1562 10.7565 13.1568 10.7565 13.1573C10.7565 13.1578 10.7565 13.1583 10.7565 13.1588C10.7565 13.1593 10.7565 13.1598 10.7565 13.1603C10.7565 13.1608 10.7565 13.1613 10.7565 13.1618C10.7565 13.1624 10.7565 13.1629 10.7565 13.1634C10.7565 13.1639 10.7565 13.1644 10.7565 13.1649C10.7565 13.1654 10.7565 13.1659 10.7565 13.1664C10.7565 13.1669 10.7565 13.1674 10.7565 13.1679C10.7565 13.1685 10.7565 13.169 10.7565 13.1695C10.7565 13.17 10.7565 13.1705 10.7565 13.171C10.7565 13.1715 10.7565 13.172 10.7565 13.1725C10.7565 13.173 10.7565 13.1735 10.7565 13.174C10.7565 13.1746 10.7565 13.1751 10.7565 13.1756C10.7565 13.1761 10.7565 13.1766 10.7565 13.1771C10.7565 13.1776 10.7565 13.1781 10.7565 13.1786C10.7565 13.1791 10.7565 13.1796 10.7565 13.1801C10.7565 13.1807 10.7565 13.1812 10.7565 13.1817C10.7565 13.1822 10.7565 13.1827 10.7565 13.1832C10.7565 13.1837 10.7565 13.1842 10.7565 13.1847C10.7565 13.1852 10.7565 13.1857 10.7565 13.1862C10.7565 13.1868 10.7565 13.1873 10.7565 13.1878H11.1105ZM11.1105 12.3966V8.80988H10.7565V12.3966H11.1105ZM10.9335 8.98688H11.7775V8.63288H10.9335V8.98688ZM11.6005 8.80988V16.0044H11.9545V8.80988H11.6005ZM11.7775 15.8274H10.9335V16.1814H11.7775V15.8274ZM11.0813 15.907L7.30471 10.1788L7.00917 10.3736L10.7858 16.1018L11.0813 15.907ZM7.15694 10.0992H7.13584V10.4532H7.15694V10.0992ZM6.95894 10.2821C6.96603 10.4948 6.97666 10.718 6.99081 10.9515L7.34416 10.9301C7.33019 10.6995 7.31972 10.4795 7.31274 10.2703L6.95894 10.2821ZM6.99059 10.9469C6.99761 11.1504 7.00463 11.3785 7.01166 11.6314L7.36552 11.6216C7.35848 11.3681 7.35143 11.1391 7.34438 10.9347L6.99059 10.9469ZM7.01166 11.6314C7.01864 11.8829 7.02214 12.1414 7.02214 12.4071H7.37613C7.37613 12.1383 7.3726 11.8765 7.36552 11.6216L7.01166 11.6314ZM7.02214 12.4071V16.0044H7.37613V12.4071H7.02214ZM7.19914 15.8274H6.3552V16.1814H7.19914V15.8274ZM6.5322 16.0044V8.80988H6.17821V16.0044H6.5322ZM19.1136 9.8226L19.0782 9.99601L19.2554 10.0323L19.2878 9.85426L19.1136 9.8226ZM18.122 9.64326L18.0935 9.81795L18.0941 9.81804L18.122 9.64326ZM16.9194 9.53777L16.9249 9.36067L16.9167 9.36079L16.9194 9.53777ZM15.7168 9.74875L15.6517 9.58418V9.58418L15.7168 9.74875ZM14.8834 10.329L14.7493 10.2135L14.7491 10.2138L14.8834 10.329ZM14.4509 13.7258L14.2839 13.7845L14.2849 13.7873L14.4509 13.7258ZM15.0206 14.6647L14.8936 14.788L14.8973 14.7916L15.0206 14.6647ZM15.8751 15.1921L15.9332 15.0249L15.8751 15.1921ZM17.5629 15.3187L17.5379 15.1435L17.537 15.1436L17.5629 15.3187ZM18.0693 15.2238L18.1122 15.3956L18.1179 15.3939L18.0693 15.2238ZM18.4702 15.0866L18.5375 15.2503L18.6472 15.2052V15.0866H18.4702ZM18.4702 13.1561H18.6472V12.9791H18.4702V13.1561ZM17.1515 13.1561H16.9745V13.3331H17.1515V13.1561ZM17.1515 12.3649V12.1879H16.9745V12.3649H17.1515ZM19.3668 12.3649H19.5438V12.1879H19.3668V12.3649ZM19.3668 15.5191L19.464 15.6671L19.5438 15.6146V15.5191H19.3668ZM18.3436 15.9622L18.3937 16.132L18.3954 16.1314L18.3436 15.9622ZM16.9194 16.1415L16.9218 15.9645H16.9194V16.1415ZM15.5375 15.9727L15.4933 16.1441L15.4939 16.1443L15.5375 15.9727ZM14.3665 15.382L14.2515 15.5166L14.2546 15.5191L14.3665 15.382ZM13.5543 14.211L13.7178 14.1433L13.5543 14.211ZM13.5332 10.7509L13.6962 10.8197L13.6966 10.8188L13.5332 10.7509ZM14.3032 9.62216L14.4226 9.75288L14.4227 9.75275L14.3032 9.62216ZM15.4425 8.94702L15.5002 9.11439L15.5017 9.11383L15.4425 8.94702ZM17.7423 8.76768L17.7213 8.94349L17.7255 8.94389L17.7423 8.76768ZM18.5545 8.87317L18.5246 9.0477L18.5295 9.04839L18.5545 8.87317ZM19.2613 9.01031L19.4355 9.04198L19.4651 8.87882L19.3043 8.8386L19.2613 9.01031ZM19.1491 9.64919C18.8369 9.58533 18.5038 9.5251 18.15 9.46849L18.0941 9.81804C18.4435 9.87395 18.7715 9.93328 19.0782 9.99601L19.1491 9.64919ZM18.1505 9.46858C17.7964 9.41075 17.3875 9.37509 16.9249 9.36086L16.914 9.71469C17.3656 9.72858 17.7585 9.76325 18.0935 9.81795L18.1505 9.46858ZM16.9167 9.36079C16.4369 9.36806 16.0138 9.44083 15.6517 9.58418L15.782 9.91333C16.095 9.78944 16.4737 9.72154 16.9221 9.71475L16.9167 9.36079ZM15.6517 9.58418C15.2898 9.72741 14.9876 9.93674 14.7493 10.2135L15.0176 10.4445C15.2153 10.2148 15.4687 10.0373 15.782 9.91333L15.6517 9.58418ZM14.7491 10.2138C14.5205 10.4804 14.3513 10.798 14.2395 11.1633L14.578 11.2669C14.6771 10.943 14.8244 10.6698 15.0178 10.4441L14.7491 10.2138ZM14.2395 11.1633C14.1281 11.527 14.0735 11.9245 14.0735 12.3544H14.4275C14.4275 11.9544 14.4783 11.5924 14.578 11.2669L14.2395 11.1633ZM14.0735 12.3544C14.0735 12.9027 14.1419 13.3808 14.284 13.7845L14.6179 13.667C14.4927 13.3112 14.4275 12.875 14.4275 12.3544H14.0735ZM14.2849 13.7873C14.4326 14.186 14.6345 14.5213 14.8936 14.788L15.1475 14.5413C14.9284 14.3157 14.7505 14.0251 14.6169 13.6643L14.2849 13.7873ZM14.8973 14.7916C15.1619 15.0487 15.469 15.2383 15.8169 15.3593L15.9332 15.0249C15.6342 14.9209 15.3716 14.7588 15.1439 14.5377L14.8973 14.7916ZM15.8169 15.3593C16.1607 15.4789 16.5286 15.5379 16.9194 15.5379V15.1839C16.5647 15.1839 16.2364 15.1304 15.9332 15.0249L15.8169 15.3593ZM16.9194 15.5379C17.1652 15.5379 17.3886 15.5235 17.5889 15.4938L17.537 15.1436C17.3575 15.1702 17.1519 15.1839 16.9194 15.1839V15.5379ZM17.588 15.4939C17.7889 15.4652 17.9639 15.4325 18.1122 15.3955L18.0264 15.052C17.8933 15.0853 17.7308 15.1159 17.5379 15.1435L17.588 15.4939ZM18.1179 15.3939C18.2708 15.3503 18.4108 15.3025 18.5375 15.2503L18.4028 14.923C18.2903 14.9692 18.1631 15.0129 18.0207 15.0536L18.1179 15.3939ZM18.6472 15.0866V13.1561H18.2932V15.0866H18.6472ZM18.4702 12.9791H17.1515V13.3331H18.4702V12.9791ZM17.3285 13.1561V12.3649H16.9745V13.1561H17.3285ZM17.1515 12.5419H19.3668V12.1879H17.1515V12.5419ZM19.1898 12.3649V15.5191H19.5438V12.3649H19.1898ZM19.2696 15.3712C19.043 15.5202 18.7194 15.6619 18.2917 15.793L18.3954 16.1314C18.8397 15.9953 19.1984 15.8416 19.464 15.6671L19.2696 15.3712ZM18.2935 15.7924C17.884 15.9133 17.4273 15.9714 16.9218 15.9646L16.917 16.3185C17.4524 16.3258 17.9451 16.2643 18.3937 16.132L18.2935 15.7924ZM16.9194 15.9645C16.4552 15.9645 16.0092 15.9099 15.5811 15.8012L15.4939 16.1443C15.9519 16.2606 16.4272 16.3185 16.9194 16.3185V15.9645ZM15.5817 15.8014C15.1702 15.6952 14.803 15.5098 14.4785 15.2449L14.2546 15.5191C14.6193 15.8168 15.0328 16.0253 15.4933 16.1441L15.5817 15.8014ZM14.4815 15.2474C14.169 14.9805 13.9132 14.6149 13.7178 14.1433L13.3907 14.2788C13.6032 14.7918 13.8889 15.2068 14.2516 15.5166L14.4815 15.2474ZM13.7178 14.1433C13.5256 13.6794 13.4253 13.082 13.4253 12.3438H13.0713C13.0713 13.1107 13.175 13.7581 13.3907 14.2788L13.7178 14.1433ZM13.4253 12.3438C13.4253 11.7499 13.5175 11.2433 13.6962 10.8197L13.3701 10.6821C13.169 11.1587 13.0713 11.7141 13.0713 12.3438H13.4253ZM13.6966 10.8188C13.8779 10.3825 14.1205 10.0287 14.4226 9.75288L14.1839 9.49145C13.8389 9.80643 13.5682 10.2051 13.3697 10.683L13.6966 10.8188ZM14.4227 9.75275C14.7351 9.46692 15.0938 9.25428 15.5002 9.11438L15.3849 8.77966C14.9333 8.93514 14.5324 9.17259 14.1838 9.49157L14.4227 9.75275ZM15.5017 9.11383C15.9178 8.96618 16.3584 8.89194 16.8245 8.89194V8.53794C16.3201 8.53794 15.8393 8.61842 15.3834 8.78021L15.5017 9.11383ZM16.8245 8.89194C17.1344 8.89194 17.4333 8.90915 17.7213 8.94344L17.7632 8.59193C17.4604 8.55588 17.1475 8.53794 16.8245 8.53794V8.89194ZM17.7255 8.94389C18.0172 8.97167 18.2836 9.0063 18.5246 9.04763L18.5845 8.69872C18.3332 8.65566 18.058 8.61996 17.759 8.59148L17.7255 8.94389ZM18.5295 9.04839C18.7701 9.08276 18.9997 9.12734 19.2184 9.18203L19.3043 8.8386C19.0729 8.78076 18.8313 8.73392 18.5796 8.69795L18.5295 9.04839ZM19.0872 8.97865L18.9395 9.79094L19.2878 9.85426L19.4355 9.04198L19.0872 8.97865Z" fill="#BB5400"/>
</svg>
