<svg width="19" height="19" viewBox="0 0 19 19" fill="none" xmlns="http://www.w3.org/2000/svg">
<g id="steam 1" clip-path="url(#clip0_5_1021)">
<path id="Vector" d="M9.5 18.7773C14.6237 18.7773 18.7773 14.6237 18.7773 9.5C18.7773 4.37626 14.6237 0.222656 9.5 0.222656C4.37626 0.222656 0.222656 4.37626 0.222656 9.5C0.222656 14.6237 4.37626 18.7773 9.5 18.7773Z" fill="#838383"/>
<path id="Vector_2" opacity="0.49" d="M18.7489 8.76983L14.9864 5.00734C14.6812 4.70082 14.3184 4.45772 13.9189 4.29208C13.5193 4.12644 13.0909 4.04153 12.6584 4.04224C10.8641 4.04224 9.40126 5.47696 9.38786 7.24793L7.35256 10.1373C6.78345 10.0874 6.29472 10.2041 5.85954 10.4636L3.07103 9.3484V12.3976L9.45013 18.7767C9.46683 18.7767 9.48353 18.7774 9.50015 18.7774C14.6239 18.7774 18.7775 14.6238 18.7775 9.50003C18.7774 9.25422 18.7679 9.01082 18.7489 8.76983ZM14.8238 7.60088L13.5769 6.35401C13.4565 6.23131 13.3129 6.13369 13.1545 6.06679C12.9961 5.99989 12.826 5.96503 12.6541 5.96424C12.4822 5.96344 12.3118 5.99672 12.1528 6.06215C11.9938 6.12758 11.8493 6.22387 11.7277 6.34544C11.6062 6.46702 11.5099 6.61149 11.4444 6.77049C11.379 6.92949 11.3457 7.09989 11.3465 7.27182C11.3473 7.44376 11.3822 7.61384 11.4491 7.77223C11.516 7.93062 11.6136 8.07418 11.7363 8.19463L12.9628 9.4211C12.863 9.43475 12.7624 9.44154 12.6616 9.44139C11.4498 9.44139 10.4656 8.47603 10.4656 7.27421C10.4656 6.07929 11.4465 5.10702 12.6616 5.10702C13.8634 5.10702 14.8476 6.07906 14.8476 7.27421C14.848 7.38357 14.84 7.4928 14.8238 7.60096V7.60088Z" fill="url(#paint0_linear_5_1021)"/>
<g id="Group">
<path id="Vector_3" d="M12.6584 4.04248C10.8641 4.04248 9.40126 5.4772 9.38786 7.24817L7.35256 10.1376C6.78345 10.0876 6.29472 10.2042 5.85954 10.4638L3.07103 9.34864V12.3979L4.72136 13.0536C4.84344 13.5945 5.14596 14.0777 5.57914 14.4237C6.01232 14.7698 6.55038 14.9581 7.10482 14.9578C8.36687 14.9578 9.41465 13.999 9.52847 12.774L12.6651 10.5071C14.4628 10.5071 15.929 9.06238 15.929 7.27148C15.9256 5.49387 14.4628 4.04248 12.6584 4.04248ZM7.10148 14.3186C6.77661 14.3196 6.45759 14.2321 6.17866 14.0656C5.89973 13.899 5.6714 13.6597 5.51817 13.3732C5.8094 13.4831 6.10732 13.6062 6.39859 13.7194C6.57192 13.7903 6.75752 13.8262 6.94477 13.8252C7.13201 13.8243 7.31723 13.7863 7.4898 13.7137C7.66238 13.641 7.81893 13.535 7.95048 13.4018C8.08204 13.2685 8.18602 13.1106 8.25647 12.9372C8.32599 12.7647 8.3606 12.5803 8.35828 12.3944C8.35596 12.2085 8.31676 12.0249 8.24297 11.8543C8.16917 11.6837 8.06223 11.5294 7.92837 11.4004C7.7945 11.2715 7.63635 11.1703 7.46311 11.1029L6.71658 10.8034C6.84395 10.7742 6.97423 10.7597 7.10489 10.7601C7.34007 10.7579 7.57335 10.8024 7.79124 10.8909C8.00912 10.9795 8.20729 11.1104 8.37428 11.276C8.54128 11.4416 8.67378 11.6387 8.76413 11.8558C8.85449 12.073 8.90089 12.3059 8.90067 12.541C8.90045 12.7762 8.85361 13.0091 8.76285 13.226C8.67209 13.443 8.53921 13.6398 8.37191 13.8051C8.20461 13.9704 8.00619 14.1009 7.78814 14.1891C7.57009 14.2772 7.33673 14.3212 7.10155 14.3186H7.10148ZM12.6617 9.44186C11.4499 9.44186 10.4657 8.47649 10.4657 7.27467C10.4657 6.07975 11.4466 5.10748 12.6617 5.10748C13.8635 5.10748 14.8477 6.07953 14.8477 7.27467C14.8512 8.47649 13.8636 9.4452 12.6617 9.44186Z" fill="white"/>
<path id="Vector_4" d="M12.6568 8.57639C13.3833 8.57639 13.9722 7.99369 13.9722 7.27489C13.9722 6.55609 13.3833 5.97339 12.6568 5.97339C11.9302 5.97339 11.3413 6.55609 11.3413 7.27489C11.3413 7.99369 11.9302 8.57639 12.6568 8.57639Z" fill="white"/>
</g>
</g>
<defs>
<linearGradient id="paint0_linear_5_1021" x1="6.37284" y1="6.04663" x2="16.2231" y2="15.8969" gradientUnits="userSpaceOnUse">
<stop stop-color="#1D1D1B"/>
<stop offset="0.369" stop-color="#1D1D1B" stop-opacity="0.856"/>
<stop offset="0.75" stop-color="#1D1D1B" stop-opacity="0.429"/>
<stop offset="1" stop-color="#1D1D1B" stop-opacity="0"/>
</linearGradient>
<clipPath id="clip0_5_1021">
<rect width="19" height="19" fill="white"/>
</clipPath>
</defs>
</svg>
