<svg width="61" height="24" viewBox="0 0 61 24" fill="none" xmlns="http://www.w3.org/2000/svg">
<path d="M1.17888 8V0.8H4.21888C4.28888 0.8 4.38222 0.803333 4.49888 0.81C4.61888 0.813333 4.72555 0.823333 4.81888 0.84C5.24888 0.906666 5.60055 1.04833 5.87388 1.265C6.15055 1.48167 6.35388 1.755 6.48388 2.085C6.61388 2.41167 6.67888 2.77667 6.67888 3.18C6.67888 3.78333 6.52888 4.3 6.22888 4.73C5.92888 5.15667 5.45888 5.42 4.81888 5.52L4.21888 5.56H2.53888V8H1.17888ZM5.23888 8L3.81888 5.07L5.21888 4.8L6.77888 8H5.23888ZM2.53888 4.29H4.15888C4.22888 4.29 4.30555 4.28667 4.38888 4.28C4.47222 4.27333 4.54888 4.26 4.61888 4.24C4.80222 4.19 4.94388 4.10667 5.04388 3.99C5.14388 3.87 5.21222 3.73833 5.24888 3.595C5.28888 3.44833 5.30888 3.31 5.30888 3.18C5.30888 3.05 5.28888 2.91333 5.24888 2.77C5.21222 2.62333 5.14388 2.49167 5.04388 2.375C4.94388 2.255 4.80222 2.17 4.61888 2.12C4.54888 2.1 4.47222 2.08667 4.38888 2.08C4.30555 2.07333 4.22888 2.07 4.15888 2.07H2.53888V4.29ZM10.3881 8.15C9.83477 8.15 9.34643 8.03167 8.9231 7.795C8.5031 7.555 8.1731 7.22667 7.9331 6.81C7.69643 6.39 7.5781 5.91 7.5781 5.37C7.5781 4.78 7.69477 4.26667 7.9281 3.83C8.16143 3.39333 8.4831 3.055 8.8931 2.815C9.3031 2.57167 9.77477 2.45 10.3081 2.45C10.8748 2.45 11.3564 2.58333 11.7531 2.85C12.1498 3.11667 12.4431 3.49167 12.6331 3.975C12.8231 4.45833 12.8898 5.02667 12.8331 5.68H11.4881V5.18C11.4881 4.63 11.3998 4.235 11.2231 3.995C11.0498 3.75167 10.7648 3.63 10.3681 3.63C9.90477 3.63 9.5631 3.77167 9.3431 4.055C9.12643 4.335 9.0181 4.75 9.0181 5.3C9.0181 5.80333 9.12643 6.19333 9.3431 6.47C9.5631 6.74333 9.88477 6.88 10.3081 6.88C10.5748 6.88 10.8031 6.82167 10.9931 6.705C11.1831 6.58833 11.3281 6.42 11.4281 6.2L12.7881 6.59C12.5848 7.08333 12.2631 7.46667 11.8231 7.74C11.3864 8.01333 10.9081 8.15 10.3881 8.15ZM8.5981 5.68V4.67H12.1781V5.68H8.5981ZM16.0721 8.15C15.3921 8.15 14.8421 7.99667 14.4221 7.69C14.0054 7.38 13.7521 6.94333 13.6621 6.38L15.0521 6.17C15.1088 6.42333 15.2338 6.62167 15.4271 6.765C15.6238 6.90833 15.8721 6.98 16.1721 6.98C16.4188 6.98 16.6088 6.93333 16.7421 6.84C16.8754 6.74333 16.9421 6.61 16.9421 6.44C16.9421 6.33333 16.9154 6.24833 16.8621 6.185C16.8088 6.11833 16.6888 6.05333 16.5021 5.99C16.3188 5.92667 16.0321 5.84333 15.6421 5.74C15.2021 5.62667 14.8504 5.5 14.5871 5.36C14.3238 5.22 14.1338 5.05333 14.0171 4.86C13.9004 4.66333 13.8421 4.42667 13.8421 4.15C13.8421 3.80333 13.9304 3.50333 14.1071 3.25C14.2838 2.99333 14.5321 2.79667 14.8521 2.66C15.1754 2.52 15.5554 2.45 15.9921 2.45C16.4154 2.45 16.7904 2.515 17.1171 2.645C17.4438 2.775 17.7071 2.96 17.9071 3.2C18.1104 3.44 18.2354 3.72333 18.2821 4.05L16.8921 4.3C16.8688 4.1 16.7821 3.94167 16.6321 3.825C16.4821 3.70833 16.2788 3.64 16.0221 3.62C15.7721 3.60333 15.5704 3.63667 15.4171 3.72C15.2671 3.80333 15.1921 3.92333 15.1921 4.08C15.1921 4.17333 15.2238 4.25167 15.2871 4.315C15.3538 4.37833 15.4888 4.44333 15.6921 4.51C15.8988 4.57667 16.2121 4.66333 16.6321 4.77C17.0421 4.87667 17.3704 5.00167 17.6171 5.145C17.8671 5.285 18.0488 5.455 18.1621 5.655C18.2754 5.85167 18.3321 6.09 18.3321 6.37C18.3321 6.92333 18.1321 7.35833 17.7321 7.675C17.3321 7.99167 16.7788 8.15 16.0721 8.15ZM22.0808 8.15C21.5442 8.15 21.0958 8.025 20.7358 7.775C20.3758 7.525 20.1042 7.185 19.9208 6.755C19.7408 6.325 19.6508 5.84 19.6508 5.3C19.6508 4.76 19.7408 4.275 19.9208 3.845C20.1008 3.415 20.3658 3.075 20.7158 2.825C21.0658 2.575 21.4975 2.45 22.0108 2.45C22.5275 2.45 22.9775 2.57333 23.3608 2.82C23.7442 3.06667 24.0408 3.405 24.2508 3.835C24.4642 4.26167 24.5708 4.75 24.5708 5.3C24.5708 5.84 24.4658 6.325 24.2558 6.755C24.0492 7.185 23.7592 7.525 23.3858 7.775C23.0125 8.025 22.5775 8.15 22.0808 8.15ZM19.4208 10.4V2.6H20.6208V6.3H20.7908V10.4H19.4208ZM21.8608 6.94C22.1542 6.94 22.3942 6.86667 22.5808 6.72C22.7675 6.57333 22.9058 6.37667 22.9958 6.13C23.0858 5.88 23.1308 5.60333 23.1308 5.3C23.1308 5 23.0842 4.72667 22.9908 4.48C22.8975 4.23 22.7525 4.03167 22.5558 3.885C22.3625 3.735 22.1142 3.66 21.8108 3.66C21.5275 3.66 21.2975 3.72833 21.1208 3.865C20.9475 4.00167 20.8208 4.19333 20.7408 4.44C20.6608 4.68667 20.6208 4.97333 20.6208 5.3C20.6208 5.62667 20.6608 5.91333 20.7408 6.16C20.8208 6.40667 20.9508 6.59833 21.1308 6.735C21.3142 6.87167 21.5575 6.94 21.8608 6.94ZM28.1011 8.15C27.5577 8.15 27.0811 8.02833 26.6711 7.785C26.2611 7.54167 25.9411 7.20667 25.7111 6.78C25.4844 6.35 25.3711 5.85667 25.3711 5.3C25.3711 4.73667 25.4877 4.24167 25.7211 3.815C25.9544 3.385 26.2761 3.05 26.6861 2.81C27.0961 2.57 27.5677 2.45 28.1011 2.45C28.6444 2.45 29.1211 2.57167 29.5311 2.815C29.9444 3.05833 30.2661 3.395 30.4961 3.825C30.7261 4.25167 30.8411 4.74333 30.8411 5.3C30.8411 5.86 30.7244 6.355 30.4911 6.785C30.2611 7.21167 29.9394 7.54667 29.5261 7.79C29.1161 8.03 28.6411 8.15 28.1011 8.15ZM28.1011 6.88C28.5377 6.88 28.8627 6.73333 29.0761 6.44C29.2927 6.14333 29.4011 5.76333 29.4011 5.3C29.4011 4.82 29.2911 4.43667 29.0711 4.15C28.8544 3.86333 28.5311 3.72 28.1011 3.72C27.8044 3.72 27.5611 3.78667 27.3711 3.92C27.1811 4.05333 27.0394 4.23833 26.9461 4.475C26.8561 4.71167 26.8111 4.98667 26.8111 5.3C26.8111 5.78333 26.9194 6.16833 27.1361 6.455C27.3561 6.73833 27.6777 6.88 28.1011 6.88ZM35.6206 8V5.45C35.6206 5.32667 35.6139 5.17 35.6006 4.98C35.5873 4.78667 35.5456 4.59333 35.4756 4.4C35.4056 4.20667 35.2906 4.045 35.1306 3.915C34.9739 3.785 34.7506 3.72 34.4606 3.72C34.3439 3.72 34.2189 3.73833 34.0856 3.775C33.9523 3.81167 33.8273 3.88333 33.7106 3.99C33.5939 4.09333 33.4973 4.24667 33.4206 4.45C33.3473 4.65333 33.3106 4.92333 33.3106 5.26L32.5306 4.89C32.5306 4.46333 32.6173 4.06333 32.7906 3.69C32.9639 3.31667 33.2239 3.015 33.5706 2.785C33.9206 2.555 34.3606 2.44 34.8906 2.44C35.3139 2.44 35.6589 2.51167 35.9256 2.655C36.1923 2.79833 36.3989 2.98 36.5456 3.2C36.6956 3.42 36.8023 3.65 36.8656 3.89C36.9289 4.12667 36.9673 4.34333 36.9806 4.54C36.9939 4.73667 37.0006 4.88 37.0006 4.97V8H35.6206ZM31.9306 8V2.6H33.1406V4.39H33.3106V8H31.9306ZM40.408 8.15C39.728 8.15 39.178 7.99667 38.758 7.69C38.3414 7.38 38.088 6.94333 37.998 6.38L39.388 6.17C39.4447 6.42333 39.5697 6.62167 39.763 6.765C39.9597 6.90833 40.208 6.98 40.508 6.98C40.7547 6.98 40.9447 6.93333 41.078 6.84C41.2114 6.74333 41.278 6.61 41.278 6.44C41.278 6.33333 41.2514 6.24833 41.198 6.185C41.1447 6.11833 41.0247 6.05333 40.838 5.99C40.6547 5.92667 40.368 5.84333 39.978 5.74C39.538 5.62667 39.1864 5.5 38.923 5.36C38.6597 5.22 38.4697 5.05333 38.353 4.86C38.2364 4.66333 38.178 4.42667 38.178 4.15C38.178 3.80333 38.2664 3.50333 38.443 3.25C38.6197 2.99333 38.868 2.79667 39.188 2.66C39.5114 2.52 39.8914 2.45 40.328 2.45C40.7514 2.45 41.1264 2.515 41.453 2.645C41.7797 2.775 42.043 2.96 42.243 3.2C42.4464 3.44 42.5714 3.72333 42.618 4.05L41.228 4.3C41.2047 4.1 41.118 3.94167 40.968 3.825C40.818 3.70833 40.6147 3.64 40.358 3.62C40.108 3.60333 39.9064 3.63667 39.753 3.72C39.603 3.80333 39.528 3.92333 39.528 4.08C39.528 4.17333 39.5597 4.25167 39.623 4.315C39.6897 4.37833 39.8247 4.44333 40.028 4.51C40.2347 4.57667 40.548 4.66333 40.968 4.77C41.378 4.87667 41.7064 5.00167 41.953 5.145C42.203 5.285 42.3847 5.455 42.498 5.655C42.6114 5.85167 42.668 6.09 42.668 6.37C42.668 6.92333 42.468 7.35833 42.068 7.675C41.668 7.99167 41.1147 8.15 40.408 8.15ZM43.8668 1.85V0.65H45.2268V1.85H43.8668ZM43.8668 8V2.6H45.2268V8H43.8668ZM49.3758 8.15C48.8391 8.15 48.3908 8.025 48.0308 7.775C47.6708 7.525 47.3991 7.185 47.2158 6.755C47.0358 6.325 46.9458 5.84 46.9458 5.3C46.9458 4.76 47.0358 4.275 47.2158 3.845C47.3958 3.415 47.6608 3.075 48.0108 2.825C48.3608 2.575 48.7924 2.45 49.3058 2.45C49.8224 2.45 50.2724 2.57333 50.6558 2.82C51.0391 3.06667 51.3358 3.405 51.5458 3.835C51.7591 4.26167 51.8658 4.75 51.8658 5.3C51.8658 5.84 51.7608 6.325 51.5508 6.755C51.3441 7.185 51.0541 7.525 50.6808 7.775C50.3074 8.025 49.8724 8.15 49.3758 8.15ZM46.7158 8V0.8H48.0858V4.3H47.9158V8H46.7158ZM49.1558 6.94C49.4491 6.94 49.6891 6.86667 49.8758 6.72C50.0624 6.57333 50.2008 6.37667 50.2908 6.13C50.3808 5.88 50.4258 5.60333 50.4258 5.3C50.4258 5 50.3791 4.72667 50.2858 4.48C50.1924 4.23 50.0474 4.03167 49.8508 3.885C49.6574 3.735 49.4091 3.66 49.1058 3.66C48.8224 3.66 48.5924 3.72833 48.4158 3.865C48.2424 4.00167 48.1158 4.19333 48.0358 4.44C47.9558 4.68667 47.9158 4.97333 47.9158 5.3C47.9158 5.62667 47.9558 5.91333 48.0358 6.16C48.1158 6.40667 48.2458 6.59833 48.4258 6.735C48.6091 6.87167 48.8524 6.94 49.1558 6.94ZM53.066 8V0.65H54.426V8H53.066ZM58.435 8.15C57.8816 8.15 57.3933 8.03167 56.97 7.795C56.55 7.555 56.22 7.22667 55.98 6.81C55.7433 6.39 55.625 5.91 55.625 5.37C55.625 4.78 55.7416 4.26667 55.975 3.83C56.2083 3.39333 56.53 3.055 56.94 2.815C57.35 2.57167 57.8216 2.45 58.355 2.45C58.9216 2.45 59.4033 2.58333 59.8 2.85C60.1966 3.11667 60.49 3.49167 60.68 3.975C60.87 4.45833 60.9366 5.02667 60.88 5.68H59.535V5.18C59.535 4.63 59.4466 4.235 59.27 3.995C59.0966 3.75167 58.8116 3.63 58.415 3.63C57.9516 3.63 57.61 3.77167 57.39 4.055C57.1733 4.335 57.065 4.75 57.065 5.3C57.065 5.80333 57.1733 6.19333 57.39 6.47C57.61 6.74333 57.9316 6.88 58.355 6.88C58.6216 6.88 58.85 6.82167 59.04 6.705C59.23 6.58833 59.375 6.42 59.475 6.2L60.835 6.59C60.6316 7.08333 60.31 7.46667 59.87 7.74C59.4333 8.01333 58.955 8.15 58.435 8.15ZM56.645 5.68V4.67H60.225V5.68H56.645ZM4.17888 21.15C3.72555 21.15 3.29388 21.07 2.88388 20.91C2.47388 20.7467 2.11055 20.5067 1.79388 20.19C1.48055 19.8733 1.23222 19.4817 1.04888 19.015C0.868882 18.5483 0.778882 18.01 0.778882 17.4C0.778882 16.6033 0.930549 15.9267 1.23388 15.37C1.54055 14.81 1.95055 14.3833 2.46388 14.09C2.98055 13.7967 3.55222 13.65 4.17888 13.65C5.10555 13.65 5.83388 13.865 6.36388 14.295C6.89388 14.725 7.24888 15.3333 7.42888 16.12L6.03888 16.32C5.90888 15.9 5.69555 15.565 5.39888 15.315C5.10555 15.0617 4.72888 14.9333 4.26888 14.93C3.81222 14.9233 3.43222 15.0217 3.12888 15.225C2.82555 15.4283 2.59722 15.7167 2.44388 16.09C2.29388 16.4633 2.21888 16.9 2.21888 17.4C2.21888 17.9 2.29388 18.3333 2.44388 18.7C2.59722 19.0667 2.82555 19.3517 3.12888 19.555C3.43222 19.7583 3.81222 19.8633 4.26888 19.87C4.57888 19.8767 4.85888 19.8233 5.10888 19.71C5.36222 19.5967 5.57555 19.4183 5.74888 19.175C5.92222 18.9317 6.04555 18.62 6.11888 18.24H4.97888V17.19H7.56888C7.57555 17.2333 7.58055 17.31 7.58388 17.42C7.58722 17.53 7.58888 17.5933 7.58888 17.61C7.58888 18.3 7.44888 18.9117 7.16888 19.445C6.88888 19.9783 6.49388 20.3967 5.98388 20.7C5.47388 21 4.87222 21.15 4.17888 21.15ZM10.091 21.15C9.70432 21.15 9.37599 21.0767 9.10599 20.93C8.83932 20.78 8.63599 20.5817 8.49599 20.335C8.35932 20.085 8.29099 19.81 8.29099 19.51C8.29099 19.26 8.32932 19.0317 8.40599 18.825C8.48266 18.6183 8.60599 18.4367 8.77599 18.28C8.94932 18.12 9.18099 17.9867 9.47099 17.88C9.67099 17.8067 9.90932 17.7417 10.186 17.685C10.4627 17.6283 10.776 17.575 11.126 17.525C11.476 17.4717 11.861 17.4133 12.281 17.35L11.791 17.62C11.791 17.3 11.7143 17.065 11.561 16.915C11.4077 16.765 11.151 16.69 10.791 16.69C10.591 16.69 10.3827 16.7383 10.166 16.835C9.94932 16.9317 9.79766 17.1033 9.71099 17.35L8.48099 16.96C8.61766 16.5133 8.87432 16.15 9.25099 15.87C9.62766 15.59 10.141 15.45 10.791 15.45C11.2677 15.45 11.691 15.5233 12.061 15.67C12.431 15.8167 12.711 16.07 12.901 16.43C13.0077 16.63 13.071 16.83 13.091 17.03C13.111 17.23 13.121 17.4533 13.121 17.7V21H11.931V19.89L12.101 20.12C11.8377 20.4833 11.5527 20.7467 11.246 20.91C10.9427 21.07 10.5577 21.15 10.091 21.15ZM10.381 20.08C10.631 20.08 10.841 20.0367 11.011 19.95C11.1843 19.86 11.321 19.7583 11.421 19.645C11.5243 19.5317 11.5943 19.4367 11.631 19.36C11.701 19.2133 11.741 19.0433 11.751 18.85C11.7643 18.6533 11.771 18.49 11.771 18.36L12.171 18.46C11.7677 18.5267 11.441 18.5833 11.191 18.63C10.941 18.6733 10.7393 18.7133 10.586 18.75C10.4327 18.7867 10.2977 18.8267 10.181 18.87C10.0477 18.9233 9.93932 18.9817 9.85599 19.045C9.77599 19.105 9.71599 19.1717 9.67599 19.245C9.63932 19.3183 9.62099 19.4 9.62099 19.49C9.62099 19.6133 9.65099 19.72 9.71099 19.81C9.77432 19.8967 9.86266 19.9633 9.97599 20.01C10.0893 20.0567 10.2243 20.08 10.381 20.08ZM20.9211 21V17.81C20.9211 17.4533 20.8361 17.1767 20.6661 16.98C20.4994 16.78 20.2677 16.68 19.9711 16.68C19.7811 16.68 19.6161 16.725 19.4761 16.815C19.3361 16.9017 19.2261 17.025 19.1461 17.185C19.0694 17.3417 19.0311 17.5233 19.0311 17.73L18.4611 17.35C18.4611 16.98 18.5477 16.6533 18.7211 16.37C18.8977 16.0867 19.1327 15.8667 19.4261 15.71C19.7227 15.55 20.0511 15.47 20.4111 15.47C21.0277 15.47 21.4927 15.6533 21.8061 16.02C22.1227 16.3833 22.2811 16.86 22.2811 17.45V21H20.9211ZM14.4111 21V15.6H15.6111V17.39H15.7811V21H14.4111ZM17.6711 21V17.81C17.6711 17.4533 17.5861 17.1767 17.4161 16.98C17.2494 16.78 17.0177 16.68 16.7211 16.68C16.4377 16.68 16.2094 16.7783 16.0361 16.975C15.8661 17.1683 15.7811 17.42 15.7811 17.73L15.2111 17.33C15.2111 16.9767 15.2994 16.66 15.4761 16.38C15.6527 16.1 15.8894 15.8783 16.1861 15.715C16.4861 15.5517 16.8211 15.47 17.1911 15.47C17.6144 15.47 17.9611 15.56 18.2311 15.74C18.5044 15.92 18.7061 16.16 18.8361 16.46C18.9661 16.76 19.0311 17.09 19.0311 17.45V21H17.6711ZM26.2312 21.15C25.6946 21.15 25.2462 21.025 24.8862 20.775C24.5262 20.525 24.2546 20.185 24.0712 19.755C23.8912 19.325 23.8012 18.84 23.8012 18.3C23.8012 17.76 23.8912 17.275 24.0712 16.845C24.2512 16.415 24.5162 16.075 24.8662 15.825C25.2162 15.575 25.6479 15.45 26.1612 15.45C26.6779 15.45 27.1279 15.5733 27.5112 15.82C27.8946 16.0667 28.1912 16.405 28.4012 16.835C28.6146 17.2617 28.7212 17.75 28.7212 18.3C28.7212 18.84 28.6162 19.325 28.4062 19.755C28.1996 20.185 27.9096 20.525 27.5362 20.775C27.1629 21.025 26.7279 21.15 26.2312 21.15ZM23.5712 21V13.8H24.9412V17.3H24.7712V21H23.5712ZM26.0112 19.94C26.3046 19.94 26.5446 19.8667 26.7312 19.72C26.9179 19.5733 27.0562 19.3767 27.1462 19.13C27.2362 18.88 27.2812 18.6033 27.2812 18.3C27.2812 18 27.2346 17.7267 27.1412 17.48C27.0479 17.23 26.9029 17.0317 26.7062 16.885C26.5129 16.735 26.2646 16.66 25.9612 16.66C25.6779 16.66 25.4479 16.7283 25.2712 16.865C25.0979 17.0017 24.9712 17.1933 24.8912 17.44C24.8112 17.6867 24.7712 17.9733 24.7712 18.3C24.7712 18.6267 24.8112 18.9133 24.8912 19.16C24.9712 19.4067 25.1012 19.5983 25.2812 19.735C25.4646 19.8717 25.7079 19.94 26.0112 19.94ZM29.9215 21V13.65H31.2815V21H29.9215ZM32.8804 14.85V13.65H34.2404V14.85H32.8804ZM32.8804 21V15.6H34.2404V21H32.8804ZM39.4194 21V18.45C39.4194 18.3267 39.4128 18.17 39.3994 17.98C39.3861 17.7867 39.3444 17.5933 39.2744 17.4C39.2044 17.2067 39.0894 17.045 38.9294 16.915C38.7728 16.785 38.5494 16.72 38.2594 16.72C38.1428 16.72 38.0178 16.7383 37.8844 16.775C37.7511 16.8117 37.6261 16.8833 37.5094 16.99C37.3928 17.0933 37.2961 17.2467 37.2194 17.45C37.1461 17.6533 37.1094 17.9233 37.1094 18.26L36.3294 17.89C36.3294 17.4633 36.4161 17.0633 36.5894 16.69C36.7628 16.3167 37.0228 16.015 37.3694 15.785C37.7194 15.555 38.1594 15.44 38.6894 15.44C39.1128 15.44 39.4578 15.5117 39.7244 15.655C39.9911 15.7983 40.1978 15.98 40.3444 16.2C40.4944 16.42 40.6011 16.65 40.6644 16.89C40.7278 17.1267 40.7661 17.3433 40.7794 17.54C40.7928 17.7367 40.7994 17.88 40.7994 17.97V21H39.4194ZM35.7294 21V15.6H36.9394V17.39H37.1094V21H35.7294ZM44.4069 23.55C44.1002 23.55 43.8085 23.5 43.5319 23.4C43.2552 23.3033 43.0069 23.1667 42.7869 22.99C42.5702 22.8167 42.3935 22.6133 42.2569 22.38L43.5169 21.77C43.6035 21.93 43.7269 22.0517 43.8869 22.135C44.0502 22.2183 44.2269 22.26 44.4169 22.26C44.6202 22.26 44.8119 22.225 44.9919 22.155C45.1719 22.0883 45.3152 21.9867 45.4219 21.85C45.5319 21.7167 45.5835 21.55 45.5769 21.35V19.78H45.7469V15.6H46.9369V21.37C46.9369 21.5033 46.9302 21.6283 46.9169 21.745C46.9069 21.865 46.8869 21.9833 46.8569 22.1C46.7702 22.43 46.6085 22.7017 46.3719 22.915C46.1385 23.1283 45.8519 23.2867 45.5119 23.39C45.1719 23.4967 44.8035 23.55 44.4069 23.55ZM44.2869 21.15C43.7902 21.15 43.3552 21.025 42.9819 20.775C42.6085 20.525 42.3169 20.185 42.1069 19.755C41.9002 19.325 41.7969 18.84 41.7969 18.3C41.7969 17.75 41.9019 17.2617 42.1119 16.835C42.3252 16.405 42.6235 16.0667 43.0069 15.82C43.3902 15.5733 43.8402 15.45 44.3569 15.45C44.8702 15.45 45.3019 15.575 45.6519 15.825C46.0019 16.075 46.2669 16.415 46.4469 16.845C46.6269 17.275 46.7169 17.76 46.7169 18.3C46.7169 18.84 46.6252 19.325 46.4419 19.755C46.2619 20.185 45.9919 20.525 45.6319 20.775C45.2719 21.025 44.8235 21.15 44.2869 21.15ZM44.5069 19.94C44.8102 19.94 45.0519 19.8717 45.2319 19.735C45.4152 19.5983 45.5469 19.4067 45.6269 19.16C45.7069 18.9133 45.7469 18.6267 45.7469 18.3C45.7469 17.9733 45.7069 17.6867 45.6269 17.44C45.5469 17.1933 45.4185 17.0017 45.2419 16.865C45.0685 16.7283 44.8402 16.66 44.5569 16.66C44.2535 16.66 44.0035 16.735 43.8069 16.885C43.6135 17.0317 43.4702 17.23 43.3769 17.48C43.2835 17.7267 43.2369 18 43.2369 18.3C43.2369 18.6033 43.2819 18.88 43.3719 19.13C43.4619 19.3767 43.6002 19.5733 43.7869 19.72C43.9735 19.8667 44.2135 19.94 44.5069 19.94Z" fill="#415775"/>
</svg>
