<svg width="18" height="18" viewBox="0 0 18 18" fill="none" xmlns="http://www.w3.org/2000/svg">
<g id="calendar 1" clip-path="url(#clip0_430_54)">
<path id="Vector" d="M16.0187 1.89605H14.3298V1.14187C14.3298 0.757863 13.9256 0.457031 13.4098 0.457031C12.8933 0.457031 12.4887 0.757863 12.4887 1.14187V1.89605H9.92027V1.14187C9.92027 0.757863 9.51562 0.457031 8.99918 0.457031C8.48273 0.457031 8.07808 0.757863 8.07808 1.14187V1.89605H5.51055V1.14187C5.51055 0.757863 5.10601 0.457031 4.58946 0.457031C4.07291 0.457031 3.66836 0.757863 3.66836 1.14187V1.89605H1.98062C1.68439 1.89637 1.40038 2.01419 1.19091 2.22365C0.981444 2.43312 0.863616 2.71712 0.863281 3.01335V16.4256C0.863626 16.7219 0.981455 17.0059 1.19092 17.2153C1.40039 17.4248 1.68439 17.5426 1.98062 17.543H16.0187C16.3148 17.5425 16.5987 17.4247 16.808 17.2152C17.0173 17.0057 17.1349 16.7217 17.1351 16.4256V3.01335C17.1349 2.71724 17.0173 2.4333 16.808 2.22383C16.5987 2.01436 16.3148 1.89648 16.0187 1.89605ZM13.0513 1.14609C13.0685 1.10918 13.1979 1.01953 13.4099 1.01953C13.6212 1.01953 13.7503 1.10932 13.7674 1.14609V1.89605H13.0513V1.14609ZM8.64058 1.14641C8.65816 1.10939 8.78768 1.01953 8.99918 1.01953C9.21068 1.01953 9.34019 1.10939 9.35777 1.14641V1.89605H8.64058V1.14641ZM4.23093 1.14641C4.24851 1.10939 4.37799 1.01953 4.58953 1.01953C4.80106 1.01953 4.93054 1.10939 4.94812 1.14641V1.89605H4.23093V1.14641Z" fill="#EAE8E8"/>
<path id="Vector_2" d="M8.37309 7.21289V8.47549C8.37309 8.55008 8.34346 8.62162 8.29072 8.67437C8.23797 8.72711 8.16644 8.75674 8.09184 8.75674H6.66098C6.58639 8.75674 6.51486 8.72711 6.46211 8.67437C6.40937 8.62162 6.37973 8.55008 6.37973 8.47549V7.21289C6.37973 7.1383 6.40937 7.06676 6.46211 7.01402C6.51486 6.96127 6.58639 6.93164 6.66098 6.93164H8.09184C8.16644 6.93164 8.23797 6.96127 8.29072 7.01402C8.34346 7.06676 8.37309 7.1383 8.37309 7.21289ZM11.3425 6.93164H9.91167C9.83708 6.93164 9.76554 6.96127 9.7128 7.01402C9.66005 7.06676 9.63042 7.1383 9.63042 7.21289V8.47549C9.63042 8.55008 9.66005 8.62162 9.7128 8.67437C9.76554 8.72711 9.83708 8.75674 9.91167 8.75674H11.3425C11.4171 8.75674 11.4887 8.72711 11.5414 8.67437C11.5941 8.62162 11.6238 8.55008 11.6238 8.47549V7.21289C11.6238 7.1383 11.5941 7.06676 11.5414 7.01402C11.4887 6.96127 11.4171 6.93164 11.3425 6.93164ZM4.84214 10.0209H3.41016C3.33556 10.0209 3.26403 10.0505 3.21128 10.1032C3.15854 10.156 3.12891 10.2275 3.12891 10.3021V11.5647C3.12891 11.6393 3.15854 11.7108 3.21128 11.7636C3.26403 11.8163 3.33556 11.846 3.41016 11.846H4.84218C4.91677 11.846 4.9883 11.8163 5.04105 11.7636C5.09379 11.7108 5.12343 11.6393 5.12343 11.5647V10.3021C5.12343 10.2275 5.09379 10.156 5.04105 10.1032C4.9883 10.0505 4.91673 10.0209 4.84214 10.0209ZM8.09181 10.0209H6.66095C6.58636 10.0209 6.51482 10.0505 6.46208 10.1032C6.40933 10.156 6.3797 10.2275 6.3797 10.3021V11.5647C6.3797 11.6393 6.40933 11.7108 6.46208 11.7636C6.51482 11.8163 6.58636 11.846 6.66095 11.846H8.09181C8.1664 11.846 8.23794 11.8163 8.29068 11.7636C8.34343 11.7108 8.37306 11.6393 8.37306 11.5647V10.3021C8.37306 10.2275 8.34343 10.156 8.2907 10.1032C8.23796 10.0505 8.16643 10.0209 8.09184 10.0209H8.09181ZM11.3425 10.0209H9.91164C9.83704 10.0209 9.76551 10.0505 9.71276 10.1032C9.66002 10.156 9.63039 10.2275 9.63039 10.3021V11.5647C9.63039 11.6393 9.66002 11.7108 9.71276 11.7636C9.76551 11.8163 9.83704 11.846 9.91164 11.846H11.3425C11.4171 11.846 11.4886 11.8163 11.5414 11.7636C11.5941 11.7108 11.6237 11.6393 11.6237 11.5647V10.3021C11.6237 10.2275 11.5941 10.156 11.5414 10.1032C11.4886 10.0505 11.4171 10.0209 11.3425 10.0209H11.3425ZM4.84211 13.1111H3.41016C3.33556 13.1111 3.26403 13.1407 3.21128 13.1935C3.15854 13.2462 3.12891 13.3177 3.12891 13.3923V14.6539C3.12891 14.7285 3.15854 14.8001 3.21128 14.8528C3.26403 14.9055 3.33556 14.9352 3.41016 14.9352H4.84218C4.91677 14.9352 4.9883 14.9055 5.04105 14.8528C5.09379 14.8001 5.12343 14.7285 5.12343 14.6539V13.3924C5.12343 13.3178 5.09379 13.2462 5.04105 13.1935C4.9883 13.1408 4.91677 13.1111 4.84218 13.1111L4.84211 13.1111ZM8.09177 13.1111H6.66091C6.58632 13.1111 6.51478 13.1407 6.46204 13.1935C6.4093 13.2462 6.37966 13.3177 6.37966 13.3923V14.6539C6.37966 14.7285 6.4093 14.8001 6.46204 14.8528C6.51478 14.9055 6.58632 14.9352 6.66091 14.9352H8.09177C8.16637 14.9352 8.2379 14.9055 8.29065 14.8528C8.34339 14.8001 8.37302 14.7285 8.37302 14.6539V13.3924C8.37302 13.3178 8.3434 13.2463 8.29067 13.1935C8.23794 13.1408 8.16642 13.1111 8.09184 13.1111L8.09177 13.1111ZM4.84218 6.93164H3.41016C3.33556 6.93164 3.26403 6.96127 3.21128 7.01402C3.15854 7.06676 3.12891 7.1383 3.12891 7.21289V8.47549C3.12891 8.55008 3.15854 8.62162 3.21128 8.67437C3.26403 8.72711 3.33556 8.75674 3.41016 8.75674H4.84218C4.91677 8.75674 4.9883 8.72711 5.04105 8.67437C5.09379 8.62162 5.12343 8.55008 5.12343 8.47549V7.21289C5.12343 7.1383 5.09379 7.06676 5.04105 7.01402C4.9883 6.96127 4.91677 6.93164 4.84218 6.93164ZM14.5932 10.0209H13.1624C13.0878 10.0209 13.0162 10.0505 12.9635 10.1032C12.9107 10.156 12.8811 10.2275 12.8811 10.3021V11.5647C12.8811 11.6393 12.9107 11.7108 12.9635 11.7636C13.0162 11.8163 13.0878 11.846 13.1624 11.846H14.5932C14.6678 11.846 14.7393 11.8163 14.7921 11.7636C14.8448 11.7108 14.8745 11.6393 14.8745 11.5647V10.3021C14.8745 10.2275 14.8448 10.156 14.7921 10.1032C14.7393 10.0505 14.6678 10.0209 14.5932 10.0209ZM11.3425 13.1111H9.91167C9.83708 13.1111 9.76554 13.1407 9.7128 13.1935C9.66005 13.2462 9.63042 13.3177 9.63042 13.3923V14.6539C9.63042 14.7285 9.66005 14.8001 9.7128 14.8528C9.76554 14.9055 9.83708 14.9352 9.91167 14.9352H11.3425C11.4171 14.9352 11.4887 14.9055 11.5414 14.8528C11.5941 14.8001 11.6238 14.7285 11.6238 14.6539V13.3924C11.6238 13.3178 11.5941 13.2462 11.5414 13.1935C11.4887 13.1408 11.4171 13.1111 11.3425 13.1111Z" fill="#484868"/>
<g id="Group">
<path id="Vector_3" d="M4.83984 6.93164H4.48828C4.56287 6.93164 4.63441 6.96127 4.68716 7.01402C4.7399 7.06676 4.76953 7.1383 4.76953 7.21289V8.47549C4.76953 8.55008 4.7399 8.62162 4.68716 8.67437C4.63441 8.72711 4.56287 8.75674 4.48828 8.75674H4.83984C4.91444 8.75674 4.98597 8.72711 5.03872 8.67437C5.09146 8.62162 5.12109 8.55008 5.12109 8.47549V7.21289C5.12109 7.1383 5.09146 7.06676 5.03872 7.01402C4.98597 6.96127 4.91444 6.93164 4.83984 6.93164Z" fill="#3D3D54"/>
<path id="Vector_4" d="M8.08984 13.1113H7.73828C7.81287 13.1113 7.88441 13.141 7.93716 13.1937C7.9899 13.2464 8.01953 13.318 8.01953 13.3926V14.6542C8.01953 14.7288 7.9899 14.8003 7.93716 14.853C7.88441 14.9058 7.81287 14.9354 7.73828 14.9354H8.08984C8.16444 14.9354 8.23597 14.9058 8.28872 14.853C8.34146 14.8003 8.37109 14.7288 8.37109 14.6542V13.3926C8.37109 13.318 8.34146 13.2464 8.28872 13.1937C8.23597 13.141 8.16444 13.1113 8.08984 13.1113Z" fill="#3D3D54"/>
<path id="Vector_5" d="M8.08984 10.021H7.73828C7.81287 10.021 7.88441 10.0506 7.93716 10.1034C7.9899 10.1561 8.01953 10.2277 8.01953 10.3022V11.5648C8.01953 11.6394 7.9899 11.711 7.93716 11.7637C7.88441 11.8165 7.81287 11.8461 7.73828 11.8461H8.08984C8.16444 11.8461 8.23597 11.8165 8.28872 11.7637C8.34146 11.711 8.37109 11.6394 8.37109 11.5648V10.3022C8.37109 10.2277 8.34146 10.1561 8.28872 10.1034C8.23597 10.0506 8.16444 10.021 8.08984 10.021Z" fill="#3D3D54"/>
<path id="Vector_6" d="M4.83984 13.1113H4.48828C4.56287 13.1113 4.63441 13.141 4.68716 13.1937C4.7399 13.2464 4.76953 13.318 4.76953 13.3926V14.6542C4.76953 14.7288 4.7399 14.8003 4.68716 14.853C4.63441 14.9058 4.56287 14.9354 4.48828 14.9354H4.83984C4.91444 14.9354 4.98597 14.9058 5.03872 14.853C5.09146 14.8003 5.12109 14.7288 5.12109 14.6542V13.3926C5.12109 13.318 5.09146 13.2464 5.03872 13.1937C4.98597 13.141 4.91444 13.1113 4.83984 13.1113Z" fill="#3D3D54"/>
<path id="Vector_7" d="M4.83984 10.021H4.48828C4.56287 10.021 4.63441 10.0506 4.68716 10.1034C4.7399 10.1561 4.76953 10.2277 4.76953 10.3022V11.5648C4.76953 11.6394 4.7399 11.711 4.68716 11.7637C4.63441 11.8165 4.56287 11.8461 4.48828 11.8461H4.83984C4.91444 11.8461 4.98597 11.8165 5.03872 11.7637C5.09146 11.711 5.12109 11.6394 5.12109 11.5648V10.3022C5.12109 10.2277 5.09146 10.1561 5.03872 10.1034C4.98597 10.0506 4.91444 10.021 4.83984 10.021Z" fill="#3D3D54"/>
<path id="Vector_8" d="M11.3398 13.1113H10.9883C11.0629 13.1113 11.1344 13.141 11.1872 13.1937C11.2399 13.2464 11.2695 13.318 11.2695 13.3926V14.6542C11.2695 14.7288 11.2399 14.8003 11.1872 14.853C11.1344 14.9058 11.0629 14.9354 10.9883 14.9354H11.3398C11.4144 14.9354 11.486 14.9058 11.5387 14.853C11.5915 14.8003 11.6211 14.7288 11.6211 14.6542V13.3926C11.6211 13.318 11.5915 13.2464 11.5387 13.1937C11.486 13.141 11.4144 13.1113 11.3398 13.1113Z" fill="#3D3D54"/>
<path id="Vector_9" d="M11.3398 6.93164H10.9883C11.0629 6.93164 11.1344 6.96127 11.1872 7.01402C11.2399 7.06676 11.2695 7.1383 11.2695 7.21289V8.47549C11.2695 8.55008 11.2399 8.62162 11.1872 8.67437C11.1344 8.72711 11.0629 8.75674 10.9883 8.75674H11.3398C11.4144 8.75674 11.486 8.72711 11.5387 8.67437C11.5915 8.62162 11.6211 8.55008 11.6211 8.47549V7.21289C11.6211 7.1383 11.5915 7.06676 11.5387 7.01402C11.486 6.96127 11.4144 6.93164 11.3398 6.93164Z" fill="#3D3D54"/>
<path id="Vector_10" d="M8.08984 6.93164H7.73828C7.81287 6.93164 7.88441 6.96127 7.93716 7.01402C7.9899 7.06676 8.01953 7.1383 8.01953 7.21289V8.47549C8.01953 8.55008 7.9899 8.62162 7.93716 8.67437C7.88441 8.72711 7.81287 8.75674 7.73828 8.75674H8.08984C8.16444 8.75674 8.23597 8.72711 8.28872 8.67437C8.34146 8.62162 8.37109 8.55008 8.37109 8.47549V7.21289C8.37109 7.1383 8.34146 7.06676 8.28872 7.01402C8.23597 6.96127 8.16444 6.93164 8.08984 6.93164Z" fill="#3D3D54"/>
<path id="Vector_11" d="M14.5898 10.021H14.2383C14.3129 10.021 14.3844 10.0506 14.4372 10.1034C14.4899 10.1561 14.5195 10.2277 14.5195 10.3022V11.5648C14.5195 11.6394 14.4899 11.711 14.4372 11.7637C14.3844 11.8165 14.3129 11.8461 14.2383 11.8461H14.5898C14.6644 11.8461 14.736 11.8165 14.7887 11.7637C14.8415 11.711 14.8711 11.6394 14.8711 11.5648V10.3022C14.8711 10.2277 14.8415 10.1561 14.7887 10.1034C14.736 10.0506 14.6644 10.021 14.5898 10.021Z" fill="#3D3D54"/>
<path id="Vector_12" d="M11.3398 10.021H10.9883C11.0629 10.021 11.1344 10.0506 11.1872 10.1034C11.2399 10.1561 11.2695 10.2277 11.2695 10.3022V11.5648C11.2695 11.6394 11.2399 11.711 11.1872 11.7637C11.1344 11.8165 11.0629 11.8461 10.9883 11.8461H11.3398C11.4144 11.8461 11.486 11.8165 11.5387 11.7637C11.5915 11.711 11.6211 11.6394 11.6211 11.5648V10.3022C11.6211 10.2277 11.5915 10.1561 11.5387 10.1034C11.486 10.0506 11.4144 10.021 11.3398 10.021Z" fill="#3D3D54"/>
</g>
<path id="Vector_13" d="M13.6982 8.67588C13.624 8.67588 13.5529 8.6466 13.5002 8.59439L12.9222 8.02134C12.8696 7.96874 12.84 7.89745 12.8398 7.82307C12.8397 7.74869 12.869 7.67727 12.9214 7.62445C12.9737 7.57163 13.0449 7.54171 13.1193 7.54123C13.1937 7.54075 13.2652 7.56975 13.3183 7.6219L13.6804 7.98077L14.4165 7.11167C14.4647 7.05476 14.5336 7.01932 14.6079 7.01317C14.6822 7.00701 14.756 7.03064 14.8129 7.07886C14.8698 7.12707 14.9053 7.19592 14.9114 7.27026C14.9176 7.3446 14.8939 7.41834 14.8457 7.47526L13.913 8.57642C13.8879 8.60602 13.8569 8.63011 13.8221 8.64718C13.7873 8.66425 13.7493 8.67392 13.7105 8.6756C13.7063 8.67578 13.7023 8.67588 13.6982 8.67588Z" fill="#D22E2E"/>
<path id="Vector_14" d="M14.675 16.6374C14.6489 16.6635 14.6179 16.6842 14.5838 16.6984C14.5496 16.7125 14.513 16.7198 14.4761 16.7198H1.98062C1.68439 16.7195 1.40039 16.6016 1.19092 16.3922C0.981455 16.1827 0.863626 15.8987 0.863281 15.6025V16.4256C0.863626 16.7218 0.981455 17.0058 1.19092 17.2153C1.40039 17.4247 1.68439 17.5426 1.98062 17.5429H16.0187C16.3148 17.5425 16.5987 17.4246 16.808 17.2151C17.0173 17.0057 17.1349 16.7217 17.1351 16.4256V14.0598C17.1351 14.1344 17.1054 14.2059 17.0527 14.2586L14.675 16.6374Z" fill="#D1C9C9"/>
<path id="Vector_15" d="M17.1341 14.0598V14.0229H15.0078C14.8586 14.0229 14.7156 14.0822 14.6101 14.1877C14.5046 14.2932 14.4453 14.4363 14.4453 14.5854V16.7198H14.4751C14.512 16.7198 14.5486 16.7125 14.5827 16.6984C14.6169 16.6842 14.6479 16.6635 14.674 16.6374L17.0517 14.2586C17.1044 14.2059 17.1341 14.1344 17.1341 14.0598Z" fill="#BCB3B3"/>
<path id="Vector_16" d="M16.0187 1.896H13.0513V2.9606C13.0678 2.99751 13.1968 3.08783 13.4099 3.08783C13.4845 3.08783 13.556 3.11746 13.6088 3.1702C13.6615 3.22295 13.6911 3.29449 13.6911 3.36908C13.6911 3.44367 13.6615 3.51521 13.6088 3.56795C13.556 3.6207 13.4845 3.65033 13.4099 3.65033C12.8934 3.65033 12.4888 3.34907 12.4888 2.96446V1.896H8.64058V2.96039C8.65739 2.99744 8.78652 3.08783 8.99918 3.08783C9.07377 3.08783 9.14531 3.11746 9.19805 3.1702C9.25079 3.22295 9.28043 3.29449 9.28043 3.36908C9.28043 3.44367 9.25079 3.51521 9.19805 3.56795C9.14531 3.6207 9.07377 3.65033 8.99918 3.65033C8.4827 3.65033 8.07808 3.34907 8.07808 2.96446V1.896H4.231V2.96039C4.24781 2.99744 4.37694 3.08783 4.5896 3.08783C4.66419 3.08783 4.73573 3.11746 4.78847 3.1702C4.84122 3.22295 4.87085 3.29449 4.87085 3.36908C4.87085 3.44367 4.84122 3.51521 4.78847 3.56795C4.73573 3.6207 4.66419 3.65033 4.5896 3.65033C4.07315 3.65033 3.6685 3.34907 3.6685 2.96446V1.896H1.98062C1.68439 1.89632 1.40038 2.01414 1.19091 2.2236C0.981444 2.43307 0.863616 2.71707 0.863281 3.0133V5.4112H17.1351V3.0133C17.1349 2.71719 17.0173 2.43325 16.808 2.22378C16.5987 2.01431 16.3148 1.89642 16.0187 1.896Z" fill="#D22E2E"/>
<path id="Vector_17" d="M0.863281 5.41113H17.1351V5.8503H0.863281V5.41113Z" fill="#D1C9C9"/>
<path id="Vector_18" d="M9.27996 3.36913C9.27996 3.44372 9.25033 3.51526 9.19759 3.568C9.14484 3.62075 9.0733 3.65038 8.99871 3.65038C8.48223 3.65038 8.07762 3.34912 8.07762 2.96452V1.14187C8.07762 0.757863 8.48223 0.457031 8.99871 0.457031C9.51519 0.457031 9.91981 0.757863 9.91981 1.14187V1.89605H9.35731V1.14641C9.33973 1.10939 9.21018 1.01953 8.99871 1.01953C8.78725 1.01953 8.65769 1.10939 8.64012 1.14641V2.96047C8.65692 2.99753 8.78605 3.08791 8.99871 3.08791C9.0733 3.08791 9.14483 3.11754 9.19757 3.17028C9.25032 3.22301 9.27995 3.29454 9.27996 3.36913ZM4.58906 3.08788C4.37647 3.08788 4.24734 2.99749 4.23047 2.96044V1.14638C4.24805 1.10936 4.37753 1.0195 4.58906 1.0195C4.8006 1.0195 4.93008 1.10936 4.94766 1.14638V1.89605H5.51016V1.14187C5.51016 0.757863 5.10561 0.457031 4.58906 0.457031C4.07251 0.457031 3.66797 0.757863 3.66797 1.14187V2.96452C3.66797 3.34912 4.07255 3.65038 4.58906 3.65038C4.66365 3.65038 4.73519 3.62075 4.78794 3.568C4.84068 3.51526 4.87031 3.44372 4.87031 3.36913C4.87031 3.29454 4.84068 3.223 4.78794 3.17025C4.73519 3.11751 4.66365 3.08788 4.58906 3.08788ZM13.4093 3.08788C13.1963 3.08788 13.0673 2.99756 13.0507 2.96065V1.14609C13.068 1.10918 13.1974 1.01953 13.4093 1.01953C13.6207 1.01953 13.7497 1.10932 13.7669 1.14609V1.89605H14.3294V1.14187C14.3294 0.757863 13.9251 0.457031 13.4093 0.457031C12.8929 0.457031 12.4882 0.757863 12.4882 1.14187V2.96452C12.4882 3.34912 12.8928 3.65038 13.4093 3.65038C13.4839 3.65038 13.5555 3.62075 13.6082 3.568C13.661 3.51526 13.6906 3.44372 13.6906 3.36913C13.6906 3.29454 13.661 3.223 13.6082 3.17025C13.5555 3.11751 13.4839 3.08788 13.4093 3.08788Z" fill="#484868"/>
<path id="Vector_19" d="M4.59375 2.8418C4.4647 2.8418 4.34017 2.88936 4.24398 2.97539C4.28152 3.01737 4.40404 3.08789 4.59202 3.08789C4.66662 3.08789 4.73815 3.11752 4.7909 3.17027C4.84364 3.22301 4.87327 3.29455 4.87327 3.36914C4.87327 3.44373 4.84364 3.51527 4.7909 3.56801C4.73815 3.62076 4.66662 3.65039 4.59202 3.65039C4.42162 3.65195 4.25292 3.61636 4.09766 3.54612C4.13013 3.63706 4.18697 3.71733 4.26197 3.77817C4.33696 3.83901 4.42723 3.87808 4.52291 3.8911C4.6186 3.90413 4.71602 3.89062 4.80455 3.85205C4.89308 3.81347 4.96931 3.75132 5.02492 3.67237C5.08053 3.59342 5.11338 3.50071 5.11988 3.40436C5.12639 3.30801 5.1063 3.21173 5.0618 3.12602C5.01731 3.04031 4.95012 2.96847 4.86758 2.91835C4.78504 2.86823 4.69031 2.84175 4.59375 2.8418Z" fill="#AD1E1E"/>
<path id="Vector_20" d="M9.00042 2.8418C8.87184 2.84176 8.74772 2.88894 8.65163 2.97437C8.68816 3.01624 8.81107 3.08786 9.00042 3.08786C9.07501 3.08786 9.14655 3.11749 9.19929 3.17023C9.25204 3.22298 9.28167 3.29451 9.28167 3.36911C9.28167 3.4437 9.25204 3.51523 9.19929 3.56798C9.14655 3.62072 9.07501 3.65036 9.00042 3.65036C8.82922 3.65193 8.65974 3.616 8.50391 3.5451C8.53618 3.63617 8.59287 3.71662 8.66778 3.77765C8.74269 3.83868 8.83293 3.87794 8.92865 3.89115C9.02436 3.90436 9.12186 3.891 9.2105 3.85254C9.29914 3.81408 9.3755 3.75199 9.43123 3.67306C9.48697 3.59413 9.51993 3.5014 9.52653 3.40501C9.53312 3.30861 9.51309 3.21225 9.46862 3.12647C9.42416 3.04069 9.35696 2.96878 9.27439 2.91861C9.19182 2.86843 9.09704 2.84192 9.00042 2.84197V2.8418Z" fill="#AD1E1E"/>
<path id="Vector_21" d="M13.4107 2.84183C13.2822 2.84179 13.1581 2.88891 13.0621 2.97427C13.098 3.01596 13.2209 3.08789 13.4112 3.08789C13.4858 3.08789 13.5573 3.11752 13.61 3.17027C13.6628 3.22301 13.6924 3.29455 13.6924 3.36914C13.6924 3.44373 13.6628 3.51527 13.61 3.56801C13.5573 3.62076 13.4858 3.65039 13.4112 3.65039C13.2398 3.65199 13.0701 3.61599 12.9141 3.54492C12.9463 3.63599 13.003 3.71643 13.0779 3.77746C13.1528 3.83849 13.2431 3.87776 13.3388 3.89097C13.4345 3.90418 13.532 3.89083 13.6206 3.85238C13.7093 3.81392 13.7856 3.75185 13.8414 3.67293C13.8971 3.59401 13.9301 3.50129 13.9367 3.4049C13.9433 3.3085 13.9233 3.21215 13.8788 3.12637C13.8344 3.04058 13.7672 2.96867 13.6846 2.91848C13.6021 2.86829 13.5073 2.8418 13.4107 2.84183Z" fill="#AD1E1E"/>
</g>
<defs>
<clipPath id="clip0_430_54">
<rect width="18" height="18" fill="white"/>
</clipPath>
</defs>
</svg>
