<svg width="34" height="14" viewBox="0 0 34 14" fill="none" xmlns="http://www.w3.org/2000/svg">
<g id="Group">
<g id="Group_2">
<g id="Group_3">
<path id="Vector" d="M6.41197 1.80536C6.80053 1.31934 7.06416 0.666826 6.99468 0C6.42589 0.0282974 5.7318 0.375278 5.32997 0.86162C4.96913 1.27815 4.6498 1.958 4.73308 2.59685C5.37148 2.65222 6.00943 2.27772 6.41197 1.80536Z" fill="white"/>
<path id="Vector_2" d="M6.98719 2.72147C6.05995 2.66623 5.27155 3.24771 4.82872 3.24771C4.38569 3.24771 3.70759 2.74932 2.97417 2.76273C2.0196 2.77678 1.13388 3.31649 0.649468 4.17489C-0.346872 5.89214 0.38654 8.43942 1.35542 9.83798C1.82591 10.5299 2.39301 11.2918 3.14016 11.2644C3.84611 11.2367 4.12283 10.8073 4.98091 10.8073C5.8384 10.8073 6.08766 11.2644 6.83494 11.2505C7.60992 11.2367 8.0944 10.5582 8.56488 9.86564C9.10466 9.07686 9.32562 8.31527 9.33948 8.27344C9.32556 8.25958 7.84513 7.69164 7.8314 5.9887C7.81742 4.5628 8.99372 3.8845 9.0491 3.84248C8.38491 2.86012 7.347 2.74932 6.98719 2.72147Z" fill="white"/>
</g>
<g id="Group_4">
<path id="Vector_3" d="M15.0611 0.791748C17.0764 0.791748 18.4798 2.18096 18.4798 4.20355C18.4798 6.23336 17.0475 7.6298 15.0105 7.6298H12.7792V11.1783H11.167V0.791748H15.0611ZM12.7791 6.27655H14.6289C16.0326 6.27655 16.8314 5.52083 16.8314 4.21077C16.8314 2.90084 16.0326 2.15222 14.6362 2.15222H12.7791V6.27655Z" fill="white"/>
<path id="Vector_4" d="M18.9014 9.02628C18.9014 7.70178 19.9163 6.88844 21.7159 6.78769L23.7888 6.66535V6.08238C23.7888 5.24023 23.2201 4.73636 22.2702 4.73636C21.3702 4.73636 20.8088 5.16817 20.6722 5.84485H19.2038C19.2902 4.47717 20.4561 3.46948 22.3277 3.46948C24.1631 3.46948 25.3363 4.4412 25.3363 5.95991V11.1784H23.8463V9.93315H23.8104C23.3714 10.7754 22.414 11.3079 21.4207 11.3079C19.9379 11.3079 18.9014 10.3866 18.9014 9.02628ZM23.7887 8.3425V7.7451L21.9244 7.86022C20.9959 7.92507 20.4705 8.33535 20.4705 8.98316C20.4705 9.64528 21.0175 10.0772 21.8525 10.0772C22.9393 10.0771 23.7887 9.32853 23.7887 8.3425Z" fill="white"/>
<path id="Vector_5" d="M26.7428 13.964V12.7044C26.8578 12.7331 27.1168 12.7331 27.2464 12.7331C27.9662 12.7331 28.3549 12.4309 28.5923 11.6535C28.5923 11.6391 28.7293 11.1928 28.7293 11.1856L25.9941 3.6062H27.6783L29.5931 9.76762H29.6218L31.5366 3.6062H33.1776L30.3414 11.5742C29.6938 13.4098 28.9452 14 27.3761 14C27.2464 14 26.8577 13.9856 26.7428 13.964Z" fill="white"/>
</g>
</g>
</g>
</svg>
