<svg width="39" height="15" viewBox="0 0 39 15" fill="none" xmlns="http://www.w3.org/2000/svg">
<g id="G_Pay_Lockup_1_">
<g id="Pay_Typeface_3_">
<path id="Letter_p_3_" d="M17.9136 7.25125V11.6471H16.5186V0.791992H20.2168C21.1541 0.791992 21.9533 1.10445 22.6072 1.7293C23.2757 2.35415 23.6099 3.11704 23.6099 4.01798C23.6099 4.94075 23.2757 5.70364 22.6072 6.32121C21.9606 6.93879 21.1614 7.24398 20.2168 7.24398H17.9136V7.25125ZM17.9136 2.12889V5.91435H20.2459C20.7981 5.91435 21.2631 5.72546 21.6264 5.35489C21.9969 4.98431 22.1858 4.53388 22.1858 4.02526C22.1858 3.52391 21.9969 3.08068 21.6264 2.71018C21.2631 2.32505 20.8054 2.13617 20.2459 2.13617H17.9136V2.12889Z" fill="white"/>
<path id="Letter_a_3_" d="M27.2571 3.97437C28.2889 3.97437 29.1027 4.25046 29.6984 4.80265C30.2942 5.35483 30.5921 6.11045 30.5921 7.06958V11.647H29.2625V10.6153H29.2043C28.6303 11.4654 27.8602 11.8868 26.9011 11.8868C26.0801 11.8868 25.3971 11.647 24.8449 11.1602C24.2927 10.6734 24.0166 10.0703 24.0166 9.34379C24.0166 8.57363 24.3072 7.96333 24.8885 7.51282C25.4698 7.05511 26.2472 6.82986 27.2136 6.82986C28.0419 6.82986 28.7249 6.98245 29.2553 7.28756V6.9679C29.2553 6.4811 29.0664 6.07424 28.6813 5.73276C28.2961 5.39128 27.8457 5.22413 27.3298 5.22413C26.5524 5.22413 25.9348 5.55107 25.4843 6.21228L24.2563 5.44212C24.9321 4.46117 25.9348 3.97437 27.2571 3.97437ZM25.4553 9.36554C25.4553 9.72884 25.6079 10.034 25.9202 10.2738C26.2254 10.5136 26.5887 10.6371 27.0029 10.6371C27.5914 10.6371 28.1145 10.4191 28.5723 9.98311C29.0301 9.54715 29.2625 9.03853 29.2625 8.45005C28.8266 8.10857 28.2235 7.93416 27.4461 7.93416C26.8794 7.93416 26.4071 8.0722 26.0293 8.34102C25.6441 8.62439 25.4553 8.96595 25.4553 9.36554Z" fill="white"/>
<path id="Letter_y_3_" d="M38.1776 4.21411L33.5275 14.9093H32.0889L33.8181 11.1674L30.752 4.21411H32.2705L34.4793 9.54717H34.5084L36.659 4.21411H38.1776Z" fill="white"/>
</g>
<path id="Vector" d="M12.2484 5.05615H6.40088V7.45386L9.76855 7.4546C9.63199 8.25238 9.19239 8.93245 8.51886 9.38585V9.3863C8.51908 9.38615 8.51938 9.386 8.5196 9.38585L8.45897 10.8189L10.5243 10.9407C10.524 10.941 10.5237 10.9413 10.5234 10.9415C11.6939 9.85818 12.3647 8.25676 12.3647 6.36478C12.3646 5.90989 12.3239 5.47467 12.2484 5.05615Z" fill="#0085F7"/>
<path id="Vector_2" d="M8.51941 9.38584C8.51918 9.38599 8.51889 9.38614 8.51866 9.38628C7.96076 9.76235 7.2424 9.98234 6.40217 9.98234C4.77826 9.98234 3.40069 8.88813 2.90736 7.41318H2.90713C2.90721 7.4134 2.90728 7.4137 2.90736 7.41392L1.18318 7.14087L0.839844 9.01794C1.86443 11.0506 3.96987 12.4454 6.40224 12.4454C8.08307 12.4454 9.49523 11.8928 10.5233 10.9414C10.5236 10.9412 10.5239 10.9409 10.5241 10.9406L8.51941 9.38584Z" fill="#00A94B"/>
<path id="Vector_3" d="M2.71275 6.22289C2.71275 5.80875 2.78177 5.40841 2.9075 5.03205L2.36912 3.42773H0.839617C0.416051 4.26841 0.177734 5.2173 0.177734 6.22289C0.177734 7.22848 0.416793 8.17736 0.839617 9.01804L0.839914 9.01782L2.9075 7.41373C2.90743 7.41351 2.90735 7.41328 2.90728 7.41298C2.7817 7.03692 2.71275 6.63681 2.71275 6.22289Z" fill="#FFBB00"/>
<path id="Vector_4" d="M6.40205 -0.000244141C3.9702 -0.000244141 1.86387 1.39477 0.839355 3.42777L2.90716 5.03208C3.4005 3.55713 4.77807 2.46293 6.40198 2.46293C7.31962 2.46293 8.14144 2.77903 8.79026 3.3966L10.5668 1.62158C9.48784 0.616588 8.08118 -0.000244141 6.40205 -0.000244141Z" fill="#FF4031"/>
</g>
</svg>
