<svg width="18" height="18" viewBox="0 0 18 18" fill="none" xmlns="http://www.w3.org/2000/svg">
<g id="basketball 1" clip-path="url(#clip0_430_13)">
<path id="Vector" d="M4.08507 13.0449C4.08507 12.3359 4.13471 11.6345 4.23153 10.9445C4.25962 10.7443 4.47221 10.6263 4.65763 10.707C4.69507 10.7233 4.73258 10.7394 4.77027 10.7553C5.21148 10.9419 5.65905 11.1072 6.11221 11.2512C6.26096 11.2985 6.34941 11.4499 6.31971 11.603C6.21026 12.1678 6.15416 12.7471 6.15416 13.335C6.15416 14.8975 6.54987 16.3989 7.293 17.7257C7.33783 17.8058 7.41704 17.8615 7.50756 17.8766C7.51305 17.8775 7.51853 17.8784 7.52402 17.8793C7.77651 17.9209 7.9654 17.6494 7.84018 17.4263C7.16057 16.2153 6.77252 14.8197 6.77252 13.3351C6.77252 12.8174 6.81998 12.3107 6.9103 11.8187C6.94215 11.6454 7.11111 11.5333 7.28277 11.5733C8.4328 11.841 9.61401 11.976 10.8158 11.976C12.9123 11.976 14.9463 11.5653 16.8613 10.7553C17.1678 10.6257 17.4688 10.4862 17.7646 10.338C17.8572 10.2915 17.92 10.2011 17.9325 10.0982C17.9621 9.85469 17.7087 9.67779 17.4895 9.78779C15.4434 10.8141 13.1716 11.3577 10.8158 11.3577C9.67199 11.3577 8.5479 11.2294 7.45979 10.9803C7.28074 10.9393 7.17822 10.7508 7.23872 10.5774C8.3819 7.30278 11.5011 4.94696 15.1606 4.94696C15.746 4.94696 16.3173 5.00764 16.8691 5.12246C16.9843 5.14644 17.0767 5.02539 17.0233 4.92052C16.9682 4.81228 16.911 4.70526 16.8516 4.59958C16.8066 4.51943 16.7272 4.46381 16.6365 4.4489C16.1532 4.36955 15.6601 4.32867 15.1607 4.32867C12.755 4.32867 10.4932 5.26547 8.79217 6.96658C7.79612 7.96266 7.06235 9.15101 6.625 10.4478C6.57104 10.6079 6.39997 10.6967 6.2392 10.6451C5.69389 10.4701 5.15976 10.2637 4.63906 10.0266C4.50523 9.96568 4.4333 9.8189 4.46624 9.67561C5.0859 6.97944 6.44848 4.50452 8.45295 2.50002C9.25989 1.69311 10.1433 0.99073 11.0864 0.398313C11.1626 0.350465 11.1393 0.233993 11.0506 0.218876L10.52 0.128383C10.4431 0.11527 10.3639 0.131934 10.2993 0.175704C9.4845 0.72741 8.72119 1.3573 8.01568 2.06282C6.58942 3.48907 5.46959 5.14999 4.68737 6.99948C4.37754 7.732 4.12635 8.48198 3.93401 9.24621C3.88472 9.44221 3.66098 9.53804 3.48506 9.43851C3.23704 9.29814 2.9927 9.15044 2.75244 8.99548C2.64311 8.92495 2.58858 8.79431 2.61786 8.66754C2.77115 8.0046 2.85025 7.31955 2.85025 6.62229C2.85025 5.50408 2.64761 4.41705 2.26008 3.4029C2.21455 3.28376 2.05491 3.26221 1.97806 3.36398L1.81353 3.58174C1.75148 3.66387 1.73369 3.77158 1.76758 3.86879C2.0683 4.73163 2.23196 5.65817 2.23196 6.62226C2.23196 7.0923 2.19297 7.5534 2.11819 8.00256C2.08012 8.23129 1.8118 8.33725 1.62934 8.19413C1.32155 7.95267 0.828626 7.50475 0.518479 7.21794C0.391635 7.10066 0.1846 7.16855 0.152995 7.33835C0.141921 7.39805 0.131409 7.45789 0.121425 7.51797C0.10462 7.61971 0.1383 7.7237 0.213604 7.79415C0.676189 8.22689 1.16163 8.62904 1.66861 8.99934C1.77725 9.07869 1.82126 9.22005 1.77742 9.34721C1.48735 10.1894 1.06649 10.9711 0.539572 11.6685C0.477873 11.7502 0.462615 11.8576 0.496154 11.9544C0.532436 12.059 0.570545 12.1627 0.610553 12.2656C0.646939 12.3591 0.771251 12.3787 0.834673 12.3009C1.44161 11.5564 1.92009 10.7292 2.25801 9.84654C2.32709 9.66611 2.5421 9.59334 2.70681 9.69431C2.97284 9.8574 3.24389 10.0125 3.51987 10.1595C3.63529 10.2209 3.69843 10.3499 3.67698 10.4789C3.53713 11.3209 3.46661 12.1776 3.46661 13.045C3.46661 14.13 3.57675 15.1981 3.79518 16.2417C3.81128 16.3187 3.85638 16.3869 3.92125 16.4313C4.02858 16.5047 4.1376 16.5759 4.2482 16.6448C4.36565 16.7179 4.51215 16.6119 4.48058 16.4772C4.2199 15.3652 4.08507 14.2155 4.08507 13.0449Z" fill="url(#paint0_linear_430_13)"/>
<g id="Group">
<path id="Vector_2" d="M4.56301 9.99215C5.13633 10.2571 5.72618 10.4847 6.3295 10.674C6.43975 10.7086 6.55752 10.6489 6.59328 10.539C7.02658 9.20659 7.77132 7.98572 8.79071 6.96633C10.4918 5.26523 12.7535 4.32842 15.1592 4.32842C15.5952 4.32842 16.0265 4.35961 16.4505 4.42032C16.5809 4.43899 16.6723 4.29485 16.6017 4.18361C15.412 2.30916 13.5484 0.904562 11.3515 0.310949C11.2955 0.295797 11.2354 0.304692 11.186 0.335207C10.2049 0.940597 9.28719 1.66415 8.45153 2.49981C6.42702 4.52431 5.0573 7.0287 4.44646 9.75615C4.42495 9.8522 4.47364 9.95084 4.56301 9.99215Z" fill="url(#paint1_radial_430_13)"/>
<path id="Vector_3" d="M7.20227 10.6837C7.16297 10.8014 7.23405 10.9271 7.35485 10.9557C8.47559 11.2208 9.63508 11.3574 10.8157 11.3574C13.2155 11.3574 15.5282 10.7934 17.6039 9.7295C17.8435 9.60666 17.996 9.36243 17.9989 9.09313C17.9993 9.06212 17.9995 9.03105 17.9995 8.99997C17.9995 7.68938 17.7188 6.44457 17.2151 5.32147C17.1762 5.23453 17.0972 5.17248 17.0042 5.15156C16.4108 5.01779 15.7939 4.94678 15.1606 4.94678C11.4615 4.94681 8.31444 7.35385 7.20227 10.6837Z" fill="url(#paint2_radial_430_13)"/>
<path id="Vector_4" d="M3.59941 9.50106C3.72105 9.56849 3.87349 9.50201 3.90632 9.36687C4.10221 8.56081 4.36342 7.77036 4.68957 6.99924C5.47183 5.14975 6.59162 3.48886 8.01791 2.06258C8.68148 1.39901 9.39617 0.80237 10.1567 0.27471C10.2428 0.215015 10.2101 0.0800506 10.1062 0.0673241C9.74425 0.0229921 9.37568 0 9.00172 0C6.31079 0 3.89602 1.18128 2.24678 3.05321C2.19422 3.11287 2.18131 3.19728 2.21085 3.27107C2.63188 4.32252 2.85245 5.45533 2.85245 6.62202C2.85245 7.34107 2.76835 8.04711 2.60551 8.72928C2.5848 8.81615 2.61936 8.90717 2.69414 8.95593C2.98991 9.14883 3.29186 9.33052 3.59941 9.50106Z" fill="url(#paint3_radial_430_13)"/>
<path id="Vector_5" d="M9.00044 18C13.3987 18 17.0594 14.8448 17.8442 10.6745C17.8761 10.5052 17.7015 10.3707 17.5463 10.4455C17.3213 10.554 17.0934 10.6574 16.8622 10.7551C14.9472 11.5651 12.9132 11.9758 10.8167 11.9758C9.58073 11.9758 8.36654 11.833 7.18564 11.5499C7.06977 11.5221 6.95407 11.5974 6.93108 11.7144C6.82789 12.2389 6.77344 12.7806 6.77344 13.3349C6.77344 14.8614 7.18371 16.2938 7.89924 17.5281C8.05984 17.8051 8.35075 17.9819 8.67078 17.9939C8.78015 17.9979 8.89005 18 9.00044 18Z" fill="url(#paint4_radial_430_13)"/>
<path id="Vector_6" d="M0.249398 7.82687C0.184535 7.76654 0.0786444 7.80581 0.0678163 7.89367C0.0232382 8.25623 0 8.62541 0 9.00003C0 9.88987 0.129621 10.7493 0.3703 11.5611C0.399585 11.6599 0.529944 11.6829 0.591222 11.6C1.10823 10.9012 1.51963 10.1196 1.80105 9.27903C1.83058 9.19079 1.8 9.09404 1.72466 9.03951C1.21043 8.66746 0.718241 8.26284 0.249398 7.82687Z" fill="url(#paint5_radial_430_13)"/>
<path id="Vector_7" d="M6.15509 13.3348C6.15509 12.7173 6.21696 12.1093 6.33752 11.5178C6.35907 11.412 6.29571 11.3081 6.19267 11.276C5.7123 11.1261 5.23815 10.9525 4.77113 10.755L4.54335 10.6586C4.41517 10.6043 4.27033 10.6858 4.24984 10.8235C4.14152 11.5524 4.08594 12.2942 4.08594 13.0446C4.08594 14.3104 4.24358 15.5517 4.54768 16.7471C4.56202 16.8034 4.59897 16.8516 4.64974 16.8797C5.39209 17.2905 6.19858 17.5994 7.05048 17.7876C7.17353 17.8147 7.27088 17.6859 7.21146 17.5748C6.52159 16.2855 6.15509 14.8384 6.15509 13.3348Z" fill="url(#paint6_radial_430_13)"/>
<path id="Vector_8" d="M3.4668 13.0445C3.4668 12.1544 3.54109 11.2755 3.68832 10.4122C3.70372 10.322 3.65956 10.2326 3.5786 10.1899C3.2475 10.0155 2.92346 9.82931 2.60667 9.6318C2.49329 9.5611 2.34455 9.61376 2.29838 9.7391C1.983 10.5957 1.53616 11.4016 0.968672 12.1322C0.800099 12.3492 0.762974 12.6423 0.881907 12.89C1.50466 14.1871 2.4291 15.3118 3.56436 16.1733C3.65362 16.2411 3.77892 16.1639 3.7573 16.054C3.56418 15.0699 3.4668 14.0646 3.4668 13.0445Z" fill="url(#paint7_radial_430_13)"/>
<path id="Vector_9" d="M2.2338 6.6221C2.2338 5.67956 2.07743 4.77292 1.78939 3.92657C1.7594 3.83839 1.64124 3.82113 1.58795 3.89753C1.02647 4.70225 0.561174 5.72973 0.286991 6.73182C0.248987 6.87072 0.29237 7.01908 0.398718 7.11622C0.706967 7.39775 1.36108 7.98774 1.75715 8.29177C1.88213 8.38771 2.06315 8.31613 2.09202 8.16127C2.18507 7.66216 2.2338 7.14775 2.2338 6.6221Z" fill="url(#paint8_radial_430_13)"/>
</g>
</g>
<defs>
<linearGradient id="paint0_linear_430_13" x1="0.117208" y1="9.00398" x2="17.9345" y2="9.00398" gradientUnits="userSpaceOnUse">
<stop stop-color="#654E48"/>
<stop offset="0.445" stop-color="#5F4843"/>
<stop offset="1" stop-color="#503837"/>
</linearGradient>
<radialGradient id="paint1_radial_430_13" cx="0" cy="0" r="1" gradientUnits="userSpaceOnUse" gradientTransform="translate(3.97112 4.26799) scale(13.6716 13.6716)">
<stop stop-color="#FF931E"/>
<stop offset="0.325" stop-color="#FF901C"/>
<stop offset="0.567" stop-color="#FF8717"/>
<stop offset="0.781" stop-color="#FF770E"/>
<stop offset="0.978" stop-color="#FF6002"/>
<stop offset="1" stop-color="#FF5D00"/>
</radialGradient>
<radialGradient id="paint2_radial_430_13" cx="0" cy="0" r="1" gradientUnits="userSpaceOnUse" gradientTransform="translate(3.97244 4.26806) scale(13.6716 13.6716)">
<stop stop-color="#FF931E"/>
<stop offset="0.325" stop-color="#FF901C"/>
<stop offset="0.567" stop-color="#FF8717"/>
<stop offset="0.781" stop-color="#FF770E"/>
<stop offset="0.978" stop-color="#FF6002"/>
<stop offset="1" stop-color="#FF5D00"/>
</radialGradient>
<radialGradient id="paint3_radial_430_13" cx="0" cy="0" r="1" gradientUnits="userSpaceOnUse" gradientTransform="translate(3.9747 4.26804) scale(13.6716)">
<stop stop-color="#FF931E"/>
<stop offset="0.325" stop-color="#FF901C"/>
<stop offset="0.567" stop-color="#FF8717"/>
<stop offset="0.781" stop-color="#FF770E"/>
<stop offset="0.978" stop-color="#FF6002"/>
<stop offset="1" stop-color="#FF5D00"/>
</radialGradient>
<radialGradient id="paint4_radial_430_13" cx="0" cy="0" r="1" gradientUnits="userSpaceOnUse" gradientTransform="translate(3.97343 4.26805) scale(13.6716)">
<stop stop-color="#FF931E"/>
<stop offset="0.325" stop-color="#FF901C"/>
<stop offset="0.567" stop-color="#FF8717"/>
<stop offset="0.781" stop-color="#FF770E"/>
<stop offset="0.978" stop-color="#FF6002"/>
<stop offset="1" stop-color="#FF5D00"/>
</radialGradient>
<radialGradient id="paint5_radial_430_13" cx="0" cy="0" r="1" gradientUnits="userSpaceOnUse" gradientTransform="translate(3.97297 4.26809) scale(13.6716)">
<stop stop-color="#FF931E"/>
<stop offset="0.325" stop-color="#FF901C"/>
<stop offset="0.567" stop-color="#FF8717"/>
<stop offset="0.781" stop-color="#FF770E"/>
<stop offset="0.978" stop-color="#FF6002"/>
<stop offset="1" stop-color="#FF5D00"/>
</radialGradient>
<radialGradient id="paint6_radial_430_13" cx="0" cy="0" r="1" gradientUnits="userSpaceOnUse" gradientTransform="translate(3.9734 4.26794) scale(13.6716 13.6716)">
<stop stop-color="#FF931E"/>
<stop offset="0.325" stop-color="#FF901C"/>
<stop offset="0.567" stop-color="#FF8717"/>
<stop offset="0.781" stop-color="#FF770E"/>
<stop offset="0.978" stop-color="#FF6002"/>
<stop offset="1" stop-color="#FF5D00"/>
</radialGradient>
<radialGradient id="paint7_radial_430_13" cx="0" cy="0" r="1" gradientUnits="userSpaceOnUse" gradientTransform="translate(3.97259 4.26781) scale(13.6716 13.6716)">
<stop stop-color="#FF931E"/>
<stop offset="0.325" stop-color="#FF901C"/>
<stop offset="0.567" stop-color="#FF8717"/>
<stop offset="0.781" stop-color="#FF770E"/>
<stop offset="0.978" stop-color="#FF6002"/>
<stop offset="1" stop-color="#FF5D00"/>
</radialGradient>
<radialGradient id="paint8_radial_430_13" cx="0" cy="0" r="1" gradientUnits="userSpaceOnUse" gradientTransform="translate(3.97435 4.26811) scale(13.6716 13.6716)">
<stop stop-color="#FF931E"/>
<stop offset="0.325" stop-color="#FF901C"/>
<stop offset="0.567" stop-color="#FF8717"/>
<stop offset="0.781" stop-color="#FF770E"/>
<stop offset="0.978" stop-color="#FF6002"/>
<stop offset="1" stop-color="#FF5D00"/>
</radialGradient>
<clipPath id="clip0_430_13">
<rect width="18" height="18" fill="white"/>
</clipPath>
</defs>
</svg>
