<svg width="23" height="24" viewBox="0 0 23 24" fill="none" xmlns="http://www.w3.org/2000/svg">
<g clip-path="url(#clip0_115_823)">
<path d="M11.4913 22.3029C17.4252 22.3029 22.2356 17.4925 22.2356 11.5585C22.2356 5.62461 17.4252 0.814209 11.4913 0.814209C5.55735 0.814209 0.746948 5.62461 0.746948 11.5585C0.746948 17.4925 5.55735 22.3029 11.4913 22.3029Z" fill="white"/>
<path d="M13.215 7.24927H9.76758V10.6966H13.215C14.163 10.6966 14.9386 9.92098 14.9386 8.97296C14.9386 8.02493 14.163 7.24927 13.215 7.24927Z" fill="#F7931A"/>
<path d="M13.215 12.4204H9.76758V15.8678H13.215C14.163 15.8678 14.9386 15.0921 14.9386 14.1441C14.9386 13.1961 14.163 12.4204 13.215 12.4204Z" fill="#F7931A"/>
<path d="M19.633 3.53959C17.5392 1.44583 14.7729 0.292603 11.8435 0.292603C8.91413 0.292603 6.14775 1.44583 4.05399 3.53959C1.96023 5.63334 0.807007 8.39973 0.807007 11.3291C0.807007 14.2585 1.96023 17.0248 4.05399 19.1186C6.14775 21.2124 8.91413 22.3656 11.8435 22.3656C14.7729 22.3656 17.5392 21.2124 19.633 19.1186C21.7268 17.0248 22.88 14.2585 22.88 11.3291C22.88 8.39973 21.7268 5.63334 19.633 3.53959ZM16.9113 13.863C16.9113 15.7212 15.3909 17.2415 13.5328 17.2415V18.9308H11.8435V17.2415H10.1542V18.9308H8.46498V17.2415H6.77572V15.5522H8.46498V7.10595H6.77572V5.41669H8.46498V3.72743H10.1542V5.41669H11.8435V3.72743H13.5328V5.41669C15.3909 5.41669 16.9113 6.93702 16.9113 8.79521C16.9113 9.80876 16.4551 10.7209 15.7457 11.3291C16.4551 11.9373 16.9113 12.8494 16.9113 13.863Z" fill="#F7931A"/>
</g>
<defs>
<clipPath id="clip0_115_823">
<rect width="22.9825" height="22.9825" fill="white" transform="translate(0 0.0671387)"/>
</clipPath>
</defs>
</svg>
