<svg width="24" height="23" viewBox="0 0 24 23" fill="none" xmlns="http://www.w3.org/2000/svg">
<g clip-path="url(#clip0_115_835)">
<path d="M12.2443 22.5908C18.464 22.5908 23.506 17.5488 23.506 11.3291C23.506 5.10943 18.464 0.0673828 12.2443 0.0673828C6.02459 0.0673828 0.982544 5.10943 0.982544 11.3291C0.982544 17.5488 6.02459 22.5908 12.2443 22.5908Z" fill="#FDC667"/>
<path d="M12.2443 20.522C17.3214 20.522 21.4371 16.4062 21.4371 11.3292C21.4371 6.25212 17.3214 2.13635 12.2443 2.13635C7.16725 2.13635 3.05148 6.25212 3.05148 11.3292C3.05148 16.4062 7.16725 20.522 12.2443 20.522Z" fill="#FCAA3D"/>
<path d="M12.2443 19.4341C16.7205 19.4341 20.3492 15.8054 20.3492 11.3292C20.3492 6.85294 16.7205 3.22424 12.2443 3.22424C7.76807 3.22424 4.13937 6.85294 4.13937 11.3292C4.13937 15.8054 7.76807 19.4341 12.2443 19.4341Z" fill="#FFBB47"/>
<path d="M7.9235 14.8832C7.60132 14.8159 7.28868 14.709 6.99265 14.5652C6.70231 14.422 6.43062 14.2439 6.18365 14.0346L6.8576 13.2072C7.14272 13.4564 7.47183 13.6504 7.82804 13.779C8.19782 13.9089 8.58738 13.9735 8.97929 13.97C9.53651 13.97 9.96968 13.8666 10.2788 13.6598C10.5879 13.4531 10.7417 13.1598 10.7403 12.78V12.7747C10.7403 12.5058 10.6705 12.2927 10.5309 12.1355C10.3844 11.9729 10.1978 11.8515 9.98977 11.7836C9.70983 11.6927 9.42354 11.6227 9.13326 11.5742C9.12203 11.5706 9.1103 11.5688 9.09851 11.5689C9.08686 11.569 9.07527 11.5672 9.06419 11.5636L8.98457 11.5474C8.55739 11.4807 8.13611 11.3806 7.72466 11.2478C7.39369 11.131 7.10479 10.9187 6.89455 10.6376C6.66492 10.3426 6.54995 9.92277 6.54966 9.37816V9.37289C6.54966 8.89514 6.65671 8.48749 6.8708 8.14993C7.08489 7.81237 7.39693 7.55517 7.80693 7.37833C8.21751 7.20236 8.7108 7.11438 9.28679 7.11438C9.56072 7.11407 9.83384 7.14432 10.1011 7.20456C10.3736 7.26602 10.639 7.35581 10.8929 7.47247C11.1625 7.59649 11.4193 7.74664 11.6597 7.92074L11.0438 8.77989C10.7745 8.57836 10.4784 8.41548 10.164 8.29598C9.88272 8.18992 9.58474 8.13509 9.28415 8.1341C8.75626 8.1341 8.34699 8.23923 8.05636 8.44951C7.76572 8.65979 7.61909 8.95776 7.61645 9.34341V9.34957C7.61645 9.61352 7.69167 9.82218 7.84212 9.97556C7.99926 10.132 8.19227 10.2477 8.40433 10.3125C8.71339 10.4055 9.02757 10.4806 9.3453 10.5373C9.35849 10.5407 9.37185 10.5433 9.38533 10.5452C9.39765 10.5452 9.41084 10.5501 9.42492 10.5532C9.439 10.5562 9.46187 10.5606 9.48343 10.5642L9.5415 10.5747C9.94128 10.6504 10.3329 10.764 10.7112 10.9139C11.0274 11.0477 11.2996 11.2678 11.4965 11.5491C11.7067 11.8424 11.8119 12.2411 11.8119 12.7452V12.7562C11.8119 13.2255 11.7006 13.6277 11.478 13.9629C11.2554 14.2981 10.9328 14.5527 10.5102 14.7266C10.0876 14.9026 9.57742 14.9906 8.97973 14.9906C8.62486 14.9919 8.27084 14.9559 7.9235 14.8832Z" fill="#C17D2B"/>
<path d="M13.3767 16.3736H12.3424L15.9229 6.28467H16.9575L13.3767 16.3736Z" fill="#C17D2B"/>
<path d="M17.1713 13.7748H18.3067V14.9098H17.1713V13.7748Z" fill="#C17D2B"/>
</g>
<defs>
<clipPath id="clip0_115_835">
<rect width="22.5235" height="22.5235" fill="white" transform="translate(0.982544 0.0673828)"/>
</clipPath>
</defs>
</svg>
