<svg width="24" height="23" viewBox="0 0 24 23" fill="none" xmlns="http://www.w3.org/2000/svg">
<g clip-path="url(#clip0_115_784)">
<mask id="mask0_115_784" style="mask-type:luminance" maskUnits="userSpaceOnUse" x="0" y="0" width="24" height="23">
<path d="M23.0294 0.0673828H0.505981V22.5908H23.0294V0.0673828Z" fill="white"/>
</mask>
<g mask="url(#mask0_115_784)">
<path d="M22.6957 14.0536C21.1914 20.0867 15.0802 23.7584 9.04577 22.2539C3.01374 20.7497 -0.658327 14.6388 0.846686 8.60607C2.35029 2.57227 8.4615 -1.09976 14.4942 0.404389C20.5283 1.90853 24.2 8.02011 22.6957 14.0536Z" fill="#6E7CCA"/>
<path d="M2.12552 8.92484C3.45286 3.59834 8.8478 0.356413 14.1733 1.68421C19.5 3.01203 22.7415 8.4073 21.4135 13.7336C20.0856 19.0593 14.6907 22.3009 9.36331 20.9726C4.03854 19.6448 0.796973 14.2502 2.12552 8.92484Z" stroke="white" stroke-opacity="0.24" stroke-width="2.63947"/>
<g style="mix-blend-mode:screen" opacity="0.3">
<path d="M22.3577 7.50266L0.651244 13.1346C0.412938 11.671 0.461649 10.1361 0.843327 8.6061C2.34693 2.57227 8.4581 -1.09976 14.4908 0.404388C18.2705 1.34656 21.1232 4.0965 22.3577 7.50266Z" fill="white"/>
</g>
<path d="M20.6441 13.5424C19.4219 18.4442 14.4565 21.4275 9.55352 20.2051C4.65253 18.983 1.66898 14.0179 2.8918 9.11636C4.11347 4.21391 9.07884 1.23042 13.9804 2.45253C18.8831 3.67463 21.8664 8.64027 20.6441 13.5424Z" fill="#6E7CCA"/>
<path d="M11.7755 13.7888L11.8652 13.8783L15.9699 11.452L11.8652 4.64136L11.7755 4.94609V13.7888Z" fill="#FFFDFE"/>
<path d="M11.8658 13.8795V4.64246L7.76114 11.4531L11.8658 13.8795Z" fill="#B0E7FF"/>
<path d="M11.8147 17.8673L11.8652 18.0149L15.9724 12.2307L11.8652 14.6558L11.8147 14.7174V17.8673Z" fill="#FFFDFF"/>
<path d="M7.7605 12.2307L11.8652 18.0149V14.6558L7.7605 12.2307Z" fill="#B0E7FF"/>
<path d="M11.8653 9.58655V13.8785L15.9699 11.4523L11.8653 9.58655Z" fill="#FFFDFF"/>
<path d="M11.8651 9.58655L7.7605 11.4523L11.8651 13.8785V9.58655Z" fill="#C8F7F7"/>
</g>
</g>
<defs>
<clipPath id="clip0_115_784">
<rect width="22.5235" height="22.5235" fill="white" transform="translate(0.505981 0.0673828)"/>
</clipPath>
</defs>
</svg>
