<svg width="23" height="23" viewBox="0 0 23 23" fill="none" xmlns="http://www.w3.org/2000/svg">
<g clip-path="url(#clip0_115_801)">
<mask id="mask0_115_801" style="mask-type:luminance" maskUnits="userSpaceOnUse" x="0" y="0" width="23" height="23">
<path d="M22.5529 0.0673828H0.0294189V22.5908H22.5529V0.0673828Z" fill="white"/>
</mask>
<g mask="url(#mask0_115_801)">
<path d="M22.219 14.0543C20.7147 20.0875 14.6035 23.7591 8.569 22.2546C2.53699 20.7505 -1.13507 14.6396 0.369939 8.60683C1.87354 2.573 7.98473 -1.09902 14.0174 0.405121C20.0516 1.90926 23.7233 8.02087 22.219 14.0543Z" fill="#26A17B"/>
<path d="M1.39261 8.86126C2.7552 3.39329 8.29341 0.065372 13.7603 1.42844C19.2285 2.79153 22.5561 8.33006 21.1928 13.7978C19.8296 19.265 14.2915 22.5926 8.82268 21.2291C3.35644 19.866 0.0287782 14.3282 1.39261 8.86126Z" stroke="white" stroke-opacity="0.24" stroke-width="2.11157"/>
<g style="mix-blend-mode:screen" opacity="0.3">
<path d="M21.8821 7.50351L0.17572 13.1354C-0.062587 11.6719 -0.0138758 10.1369 0.367803 8.60695C1.8714 2.57313 7.98261 -1.0989 14.0153 0.405242C17.795 1.34741 20.6478 4.09737 21.8821 7.50351Z" fill="white"/>
</g>
<path d="M20.1675 13.5424C18.9453 18.4442 13.98 21.4275 9.07695 20.2051C4.17595 18.983 1.19239 14.0179 2.41521 9.11633C3.63687 4.21392 8.60223 1.23042 13.5038 2.45252C18.4065 3.67463 21.3898 8.64024 20.1675 13.5424Z" fill="#26A17B"/>
<path d="M16.9222 11.3274C16.9222 10.6173 14.99 10.0248 12.4222 9.88812L12.422 8.7567H15.6281V6.40198H6.86135V8.7567H10.0672V9.89368C7.54624 10.0397 5.66046 10.626 5.66046 11.3274C5.66046 12.0289 7.54624 12.6152 10.0672 12.761V16.824H12.422V12.7665C14.99 12.6302 16.9222 12.0375 16.9222 11.3274ZM11.2913 12.0269C8.53519 12.0269 6.30087 11.6004 6.30087 11.0739C6.30087 10.628 7.90302 10.2538 10.0672 10.1496V10.418L10.0674 11.5176C10.4576 11.5395 10.8677 11.551 11.2913 11.551C11.6814 11.551 12.0602 11.5411 12.4223 11.5229V10.1456C14.6334 10.2433 16.2818 10.6215 16.2818 11.0739C16.2818 11.6004 14.0474 12.0269 11.2913 12.0269Z" fill="white"/>
</g>
</g>
<defs>
<clipPath id="clip0_115_801">
<rect width="22.5235" height="22.5235" fill="white" transform="translate(0.0294189 0.0673828)"/>
</clipPath>
</defs>
</svg>
