<svg width="24" height="23" viewBox="0 0 24 23" fill="none" xmlns="http://www.w3.org/2000/svg">
<g id="BCH" clip-path="url(#clip0_115_814)">
<g id="Group">
<path id="Vector" d="M22.7405 14.0536C21.2363 20.0867 15.1247 23.7584 9.09054 22.2539C3.05848 20.7498 -0.613546 14.6389 0.891302 8.60609C2.39509 2.57227 8.50634 -1.09976 14.5391 0.404388C20.5729 1.90853 24.2446 8.02013 22.7405 14.0536Z" fill="#6CC64B"/>
<path id="Vector_2" d="M1.91596 8.86139C3.27863 3.39312 8.81693 0.0656267 14.2838 1.4283C19.7521 2.79132 23.0796 8.32962 21.7165 13.7975C20.3532 19.2648 14.8152 22.5923 9.34623 21.2289C3.87972 19.8662 0.552232 14.3283 1.91596 8.86139Z" stroke="white" stroke-opacity="0.24" stroke-width="2.11157"/>
<path id="Vector_3" opacity="0.3" d="M22.4042 7.50415L0.697924 13.1361C0.453232 11.6293 0.518617 10.0884 0.890077 8.60779C2.39317 2.57397 8.50476 -1.09841 14.5375 0.406091C18.3172 1.3482 21.17 4.09747 22.4042 7.50415Z" fill="white"/>
<g id="Group_2">
<path id="Vector_4" d="M20.691 13.5428C19.4688 18.4445 14.5034 21.4278 9.60032 20.2055C4.69936 18.9833 1.71571 14.0179 2.93831 9.11659C4.16021 4.21422 9.12592 1.23057 14.0276 2.45282C18.93 3.67507 21.9133 8.64043 20.691 13.5428Z" fill="#6CC64B"/>
</g>
<g id="Group_3">
<path id="Vector_5" d="M15.1935 7.9765C14.7297 6.71307 13.5039 6.56632 12.0674 6.80598L11.5958 5.00903L10.508 5.29058L10.9672 7.04037C10.6811 7.11427 10.3901 7.19557 10.1015 7.27651L9.6394 5.51546L8.55229 5.79665L9.02317 7.59325C8.78914 7.65906 8.55898 7.72346 8.33339 7.78153L8.33198 7.77625L6.83136 8.16372L7.13824 9.33213C7.13824 9.33213 7.93747 9.10865 7.92797 9.12695C8.36859 9.01328 8.57974 9.23324 8.67969 9.44439L9.21673 11.4916C9.24735 11.4838 9.28712 11.4747 9.33393 11.4694C9.29768 11.4789 9.25861 11.4884 9.21885 11.4993L9.97127 14.3672C9.98851 14.5115 9.96529 14.755 9.6577 14.8352C9.67495 14.8437 8.86692 15.0394 8.86692 15.0394L8.99361 16.4013L10.4091 16.0353C10.6727 15.9674 10.9327 15.9051 11.1879 15.8407L11.6651 17.6581L12.7519 17.3769L12.2799 15.5785C12.5798 15.5078 12.8691 15.4353 13.1509 15.3624L13.6201 17.1523L14.7079 16.8708L14.2321 15.0566C16.0332 14.4777 17.1918 13.6834 16.8972 11.9153C16.6607 10.4917 15.8474 10.0395 14.7434 10.0575C15.2896 9.57144 15.5342 8.90031 15.1935 7.9765ZM14.6917 12.256C15.0485 13.6144 12.6952 14.0578 11.9583 14.2496L11.3265 11.8414C12.0642 11.651 14.3201 10.8394 14.6917 12.256ZM13.2942 8.99005C13.618 10.2253 11.6514 10.5804 11.0376 10.7391L10.4643 8.55542C11.0784 8.39635 12.956 7.70129 13.2942 8.99005Z" fill="white"/>
</g>
</g>
</g>
<defs>
<clipPath id="clip0_115_814">
<rect width="22.5235" height="22.5235" fill="white" transform="translate(0.552856 0.0673828)"/>
</clipPath>
</defs>
</svg>
