<svg width="23" height="24" viewBox="0 0 23 24" fill="none" xmlns="http://www.w3.org/2000/svg">
<g id="TRY" clip-path="url(#clip0_115_863)">
<path id="Vector" d="M11.4913 22.335C17.4252 22.335 22.2356 17.5246 22.2356 11.5906C22.2356 5.65671 17.4252 0.846313 11.4913 0.846313C5.55735 0.846313 0.746948 5.65671 0.746948 11.5906C0.746948 17.5246 5.55735 22.335 11.4913 22.335Z" fill="white"/>
<path id="Vector_2" d="M19.3587 3.60855C17.244 1.49386 14.4499 0.329102 11.4913 0.329102C8.53263 0.329102 5.73859 1.49386 3.6239 3.60855C1.50899 5.72324 0.344452 8.51728 0.344452 11.4759C0.344452 14.4346 1.50921 17.2286 3.6239 19.3433C5.73859 21.458 8.53263 22.6228 11.4913 22.6228C14.4499 22.6228 17.244 21.458 19.3587 19.3433C21.4734 17.2286 22.6381 14.4346 22.6381 11.4759C22.6381 8.51728 21.4734 5.72324 19.3587 3.60855ZM9.78514 19.1536H8.93207V14.4617L6.88469 15.9972L5.861 14.6323L8.93207 12.329V10.1963L6.88469 11.7319L5.861 10.3669L8.93207 8.06364V3.79827H10.6382V6.78403L12.6856 5.2485L13.7093 6.61341L10.6382 8.91671V11.0494L12.6856 9.51387L13.7093 10.8788L10.6382 13.1821V17.3793C13.5216 16.9696 15.7567 14.4788 15.7567 11.4759H17.4628C17.4628 15.7071 14.0163 19.1536 9.78514 19.1536Z" fill="#1EAADC"/>
</g>
<defs>
<clipPath id="clip0_115_863">
<rect width="22.9825" height="22.9825" fill="white" transform="translate(0 0.0993652)"/>
</clipPath>
</defs>
</svg>
