<svg width="24" height="24" viewBox="0 0 24 24" fill="none" xmlns="http://www.w3.org/2000/svg">
<g id="KZT" clip-path="url(#clip0_115_866)">
<path id="Vector" d="M12.4739 22.335C18.4078 22.335 23.2182 17.5246 23.2182 11.5906C23.2182 5.65671 18.4078 0.846313 12.4739 0.846313C6.53995 0.846313 1.72955 5.65671 1.72955 11.5906C1.72955 17.5246 6.53995 22.335 12.4739 22.335Z" fill="white"/>
<path id="Vector_2" d="M20.3413 3.60855C18.2266 1.49386 15.4326 0.329102 12.4739 0.329102C9.51527 0.329102 6.72123 1.49386 4.60654 3.60855C2.49184 5.72324 1.32709 8.51728 1.32709 11.4759C1.32709 14.4346 2.49184 17.2286 4.60654 19.3433C6.72123 21.458 9.51527 22.6228 12.4739 22.6228C15.4326 22.6228 18.2266 21.458 20.3413 19.3433C22.456 17.2286 23.6208 14.4346 23.6208 11.4759C23.6208 8.51728 22.456 5.72324 20.3413 3.60855ZM17.5924 7.21057H13.327V8.91671H17.5924V10.6229H13.327V17.4475H15.0331V19.1536H9.9147V17.4475H11.6208V10.6229H7.35548V8.91671H11.6208V7.21057H7.35548V5.50442H17.5924V7.21057Z" fill="#0FAB8B"/>
</g>
<defs>
<clipPath id="clip0_115_866">
<rect width="22.9825" height="22.9825" fill="white" transform="translate(0.982544 0.0993652)"/>
</clipPath>
</defs>
</svg>
