<svg width="23" height="23" viewBox="0 0 23 23" fill="none" xmlns="http://www.w3.org/2000/svg">
<g id="AUD" clip-path="url(#clip0_115_877)">
<path id="Vector" d="M11.2618 21.7914C17.0772 21.7914 21.7915 17.077 21.7915 11.2616C21.7915 5.44625 17.0772 0.731934 11.2618 0.731934C5.44637 0.731934 0.732056 5.44625 0.732056 11.2616C0.732056 17.077 5.44637 21.7914 11.2618 21.7914Z" fill="white"/>
<path id="Vector_2" d="M9.77535 10.4171L9.09943 12.1064H13.4242L12.7483 10.4171H9.77535Z" fill="#012169"/>
<path id="Vector_3" d="M11.2618 6.65015L10.4341 8.72785H12.0895L11.2618 6.65015Z" fill="#012169"/>
<path id="Vector_4" d="M19.0513 3.4722C16.9575 1.37845 14.1911 0.22522 11.2618 0.22522C8.3324 0.22522 5.56602 1.37845 3.47227 3.4722C1.37829 5.56596 0.225281 8.33234 0.225281 11.2617C0.225281 14.1911 1.37851 16.9575 3.47227 19.0512C5.56602 21.145 8.3324 22.2982 11.2618 22.2982C14.1911 22.2982 16.9575 21.145 19.0513 19.0512C21.145 16.9575 22.2983 14.1911 22.2983 11.2617C22.2983 8.33234 21.145 5.56596 19.0513 3.4722ZM17.1742 10.4171H14.5728C14.7923 10.9914 15.0118 11.5657 15.2315 12.1063H17.1742V13.7956H15.9072C16.6168 15.6032 17.1067 16.8701 17.1067 16.8701L15.5524 17.4781L14.0996 13.7956H8.42391C7.83245 15.2821 7.29201 16.6504 6.9711 17.4781L5.41689 16.8701L6.63325 13.7956H5.34937V12.1063H7.29201L7.95078 10.4171H5.34937V8.72782H8.62648L10.6199 3.66005H11.9036C12.4273 4.99452 13.1538 6.83577 13.8971 8.72782H17.1742V10.4171Z" fill="#012169"/>
</g>
<defs>
<clipPath id="clip0_115_877">
<rect width="22.5235" height="22.5235" fill="white"/>
</clipPath>
</defs>
</svg>
