<svg width="24" height="23" viewBox="0 0 24 23" fill="none" xmlns="http://www.w3.org/2000/svg">
<g id="BRL" clip-path="url(#clip0_115_885)">
<path id="Vector" d="M23.0393 11.3107C23.0393 5.06365 17.975 -0.000610352 11.728 -0.000610352C5.48088 -0.000610352 0.416626 5.06365 0.416626 11.3107C0.416626 17.5578 5.48088 22.6221 11.728 22.6221C17.975 22.6221 23.0393 17.5578 23.0393 11.3107Z" fill="#B8E5EF"/>
<path id="Vector_2" d="M4.50824 6.18538H7.92153C8.65501 6.18538 9.28019 6.29583 9.79717 6.51674C10.3142 6.73771 10.7096 7.06466 10.9836 7.49766C11.2619 7.92625 11.4011 8.45646 11.4011 9.08832C11.4011 9.56995 11.3127 9.99413 11.136 10.3608C10.9592 10.7276 10.7096 11.0369 10.3871 11.2887C10.0645 11.5361 9.6801 11.7284 9.23381 11.8654L8.73012 12.1106H5.66146L5.64821 10.7916H7.94805C8.3457 10.7916 8.67707 10.7209 8.9422 10.5795C9.20728 10.4382 9.40614 10.246 9.53871 10.0029C9.67569 9.75551 9.74412 9.47714 9.74412 9.16783C9.74412 8.83206 9.67789 8.54045 9.54532 8.29302C9.41717 8.04117 9.21837 7.84893 8.94882 7.71636C8.67927 7.57938 8.33688 7.51089 7.92153 7.51089H6.17177V15.8354H4.50824V6.18538ZM10.0159 15.8354L7.7492 11.5008L9.49227 11.4942L11.7921 15.7492V15.8354H10.0159ZM16.3722 4.64111V6.62278H15.3515V4.64111H16.3722ZM16.2462 15.4642V17.2404H15.2322V15.4642H16.2462ZM17.247 13.3234C17.247 13.0672 17.194 12.844 17.0879 12.654C16.9863 12.4596 16.8184 12.2851 16.5843 12.1304C16.3501 11.9714 16.0363 11.8233 15.6431 11.6864C15.0775 11.4876 14.5827 11.2644 14.1585 11.017C13.7387 10.7652 13.4118 10.4559 13.1776 10.0891C12.9478 9.71796 12.833 9.25623 12.833 8.7039C12.833 8.16045 12.9567 7.6899 13.2041 7.29219C13.4559 6.89454 13.805 6.58744 14.2513 6.37094C14.6975 6.15444 15.2189 6.04619 15.8154 6.04619C16.2749 6.04619 16.6881 6.11468 17.0548 6.25166C17.426 6.38864 17.7419 6.58964 18.0026 6.85478C18.2633 7.11986 18.4621 7.44687 18.5991 7.8357C18.7405 8.22011 18.8112 8.66193 18.8112 9.16122H17.2205C17.2205 8.87843 17.1874 8.62659 17.1211 8.40568C17.0592 8.1803 16.9665 7.99032 16.8427 7.8357C16.719 7.6766 16.5688 7.55512 16.392 7.47113C16.2197 7.3872 16.0231 7.34524 15.8022 7.34524C15.4885 7.34524 15.2299 7.40491 15.0267 7.52418C14.8235 7.63905 14.6733 7.79815 14.576 8.00135C14.4832 8.20462 14.4369 8.43661 14.4369 8.69728C14.4369 8.94913 14.4854 9.17004 14.5827 9.36007C14.6799 9.55004 14.8456 9.72237 15.0797 9.877C15.3183 10.0273 15.6453 10.1797 16.0606 10.3343C16.6306 10.5376 17.1233 10.7652 17.5386 11.017C17.9584 11.2644 18.281 11.5715 18.5063 11.9383C18.7361 12.3006 18.8509 12.7579 18.8509 13.3102C18.8509 13.8802 18.7184 14.364 18.4533 14.7617C18.1926 15.1593 17.8258 15.462 17.353 15.6696C16.8847 15.8729 16.339 15.9745 15.716 15.9745C15.3228 15.9745 14.9317 15.9237 14.5429 15.8221C14.1585 15.7161 13.8094 15.5437 13.4957 15.3051C13.182 15.0665 12.9323 14.7506 12.7468 14.3574C12.5612 13.9597 12.4684 13.4737 12.4684 12.8993H14.0723C14.0723 13.2439 14.1187 13.5311 14.2115 13.7609C14.3043 13.9906 14.4302 14.1718 14.5893 14.3044C14.7484 14.4369 14.9251 14.5319 15.1195 14.5894C15.3183 14.6468 15.5172 14.6755 15.716 14.6755C16.0474 14.6755 16.3257 14.6203 16.5511 14.5098C16.7808 14.3949 16.9532 14.2359 17.068 14.0326C17.1874 13.8249 17.247 13.5885 17.247 13.3234Z" fill="#202A39"/>
</g>
<defs>
<clipPath id="clip0_115_885">
<rect width="23.1882" height="22.6227" fill="white" transform="translate(0.0413818)"/>
</clipPath>
</defs>
</svg>
