<svg width="23" height="23" viewBox="0 0 23 23" fill="none" xmlns="http://www.w3.org/2000/svg">
<g id="SHIB" clip-path="url(#clip0_115_888)">
<path id="Vector" d="M22.7531 11.2617C22.7531 17.4814 17.711 22.5235 11.4913 22.5235C5.27166 22.5235 0.229614 17.4814 0.229614 11.2617C0.229614 5.04205 5.27166 0 11.4913 0C17.711 0 22.7531 5.04205 22.7531 11.2617Z" fill="#C87700"/>
<path id="Vector_2" d="M19 14.4826C19 14.2048 18.978 13.7734 18.8757 13.2031C18.7953 12.7644 18.6856 12.3111 18.5467 11.8651C18.3785 11.3314 18.1665 10.805 17.9106 10.2932L17.8594 10.1909L17.9033 10.0885C17.9033 10.0885 18.0641 9.73025 18.2323 9.17459C18.3346 8.84559 18.4151 8.51658 18.4882 8.19488C18.5759 7.78545 18.6344 7.39064 18.6637 7.00314L18.671 6.95196C18.7368 6.12579 18.8026 5.34348 18.7806 4.74396C18.7587 4.14443 18.6417 3.77156 18.437 3.59609C18.3858 3.55222 18.32 3.5376 18.2323 3.5376C18.108 3.5376 17.9545 3.57415 17.7717 3.64727C17.6181 3.71307 17.4427 3.8008 17.2599 3.91047C16.9382 4.10788 16.6969 4.30528 16.6896 4.30528C16.6896 4.30528 16.3606 4.5758 15.9365 4.9633C15.2347 5.614 14.8106 6.10386 14.5766 6.40362L14.467 6.54253L14.3061 6.48404C13.9186 6.34513 13.4873 6.22815 13.012 6.15504C12.5222 6.07461 12.0031 6.03074 11.4767 6.03074C10.9503 6.03074 10.4312 6.07461 9.94131 6.15504C9.47338 6.23546 9.03471 6.34513 8.64721 6.48404L8.48636 6.54253L8.37669 6.40362C7.95264 5.86258 7.40429 5.32155 7.01679 4.9633C6.59274 4.5758 6.27104 4.30528 6.26373 4.30528C6.26373 4.30528 6.01515 4.10057 5.69345 3.91047C5.51067 3.8008 5.3352 3.70576 5.18166 3.64727C4.99888 3.57415 4.84535 3.5376 4.72105 3.5376C4.63332 3.5376 4.56021 3.55953 4.51634 3.59609C4.31162 3.76425 4.19464 4.13712 4.17271 4.74396C4.15077 5.34348 4.20926 6.12579 4.28238 6.95196L4.28969 7.00314C4.31893 7.38333 4.38473 7.78545 4.46516 8.19488C4.53096 8.52389 4.6187 8.8529 4.72105 9.17459C4.88921 9.73025 5.05006 10.0885 5.05006 10.0885L5.09393 10.1909L5.04275 10.2932C4.78685 10.805 4.57483 11.3387 4.40667 11.8651C4.26775 12.3111 4.15077 12.7644 4.07766 13.2031C3.9753 13.7734 3.95337 14.2048 3.95337 14.4826C3.95337 14.5776 3.95337 14.6581 3.96068 14.7165C3.96068 14.7239 3.96068 14.7312 3.96068 14.7385C3.96068 14.7531 3.96068 14.7677 3.96068 14.7823C3.96068 14.7897 3.96068 14.7897 3.96068 14.797C3.96068 14.8116 3.96068 14.8189 3.96068 14.8262C3.9753 14.9651 4.00455 15.1552 4.07766 15.3746C4.07766 15.3819 4.08497 15.3892 4.08497 15.3892C4.09228 15.4038 4.09228 15.4111 4.09959 15.4257C4.09959 15.433 4.10691 15.4404 4.10691 15.455C4.11422 15.4769 4.12153 15.4988 4.13615 15.5208C4.14346 15.5354 4.14346 15.5427 4.15077 15.5573C4.15809 15.5646 4.15808 15.5793 4.1654 15.5866C4.22389 15.7328 4.297 15.8863 4.39205 16.0472C4.78685 16.7198 5.41562 17.3705 6.26373 17.9847C6.38071 18.0724 6.49769 18.1528 6.61467 18.2333C6.98755 18.4892 7.36042 18.7158 7.72599 18.9205C8.09886 19.1252 8.46443 19.308 8.82268 19.4616C8.91773 19.4981 9.00546 19.542 9.10051 19.5712C9.53187 19.7394 9.94862 19.8637 10.3434 19.9514C10.7236 20.0318 11.0892 20.0757 11.4182 20.0757H11.4255H11.4547H11.484H11.4913C11.8276 20.0757 12.1859 20.0318 12.566 19.9514C12.9609 19.8637 13.3849 19.7394 13.809 19.5712C13.8967 19.5347 13.9844 19.5054 14.0722 19.4616C14.4377 19.308 14.8106 19.1252 15.1835 18.9132C15.454 18.767 15.7245 18.5988 15.995 18.4234C16.0097 18.4087 16.0316 18.4014 16.0462 18.3868C16.0755 18.3722 16.1047 18.3502 16.1266 18.3356C16.3021 18.2186 16.4703 18.1017 16.6457 17.9774C17.0332 17.6995 17.3696 17.4144 17.662 17.122C17.6693 17.1146 17.6839 17.1 17.6912 17.0927C17.7132 17.0708 17.7278 17.0561 17.7497 17.0342C17.7644 17.0196 17.779 17.005 17.7936 16.983C17.8009 16.9757 17.8082 16.9611 17.8229 16.9538C17.8375 16.9392 17.8521 16.9172 17.8667 16.9026C17.8887 16.8734 17.9179 16.8514 17.9398 16.8222C18.0276 16.7271 18.108 16.6248 18.1811 16.5297C18.203 16.5078 18.2177 16.4786 18.2396 16.4566C18.2469 16.4493 18.2469 16.4493 18.2542 16.442C18.3493 16.3104 18.437 16.1788 18.5174 16.0472C18.5832 15.9302 18.6417 15.8132 18.6929 15.7109C18.8611 15.338 18.9269 15.0382 18.9415 14.8335C18.9488 14.7897 18.9561 14.68 18.9561 14.4972L19 14.4826Z" fill="#FEA31C"/>
<path id="Vector_3" d="M18.9928 14.8261C18.9635 15.0966 18.8685 15.5206 18.5614 16.0471C18.1666 16.7197 17.5378 17.3704 16.6897 17.9845C16.1999 18.3355 15.71 18.6499 15.2275 18.9204C14.8546 19.1251 14.4817 19.3079 14.1161 19.4687C14.0284 19.5053 13.9407 19.5418 13.8529 19.5784C13.4216 19.7466 13.0048 19.8708 12.61 19.9586C12.2298 20.039 11.8643 20.0829 11.5353 20.0829H11.528H11.4987H11.4695H11.4622C11.1259 20.0829 10.7676 20.039 10.3874 19.9586C9.99261 19.8708 9.56856 19.7466 9.1445 19.5784C9.05677 19.5418 8.96172 19.5053 8.86667 19.4687C8.50842 19.3152 8.13555 19.1324 7.76998 18.9277C7.28744 18.6572 6.79027 18.3428 6.30773 17.9919C5.45962 17.3777 4.83085 16.727 4.43604 16.0544C4.12897 15.528 4.03392 15.1039 4.00467 14.8334C3.99736 14.7895 3.99005 14.6725 3.99005 14.4897C4.31906 14.4093 4.66269 14.3655 5.02094 14.3655C6.35891 14.3655 7.55064 14.965 8.29639 15.8862C8.61078 14.3435 9.9195 13.181 11.4914 13.181C13.0633 13.181 14.3794 14.3435 14.6864 15.8862C15.4322 14.965 16.6239 14.3655 17.9619 14.3655C18.3274 14.3655 18.6784 14.4093 19.0074 14.4897C19.0074 14.6725 19.0001 14.7895 18.9928 14.8261Z" fill="white"/>
<path id="Vector_4" d="M3.98267 14.4825C3.98267 14.6653 3.98998 14.7823 3.99729 14.8262C4.02653 15.0967 4.12158 15.5207 4.42865 16.0472C4.82346 16.7198 5.45223 17.3705 6.30034 17.9846C6.7902 18.3356 7.28005 18.65 7.7626 18.9205C8.13547 19.1252 8.50104 19.308 8.85929 19.4615L3.98267 14.4899V14.4825Z" fill="white"/>
<path id="Vector_5" d="M19.0001 14.4825C19.0001 14.6653 18.9928 14.7823 18.9855 14.8189C18.9563 15.0894 18.8612 15.5134 18.5541 16.0398C18.1593 16.7125 17.5306 17.3632 16.6825 17.9773C16.1926 18.3283 15.7027 18.6427 15.2202 18.9132C14.8473 19.1179 14.4745 19.3007 14.1089 19.4615L19.0001 14.4899V14.4825Z" fill="white"/>
<path id="Vector_6" d="M7.27277 10.0008C7.27277 10.0008 7.419 9.40127 7.94541 9.37934C8.47182 9.35741 8.68385 9.64986 8.83738 9.84726C8.98361 10.0447 9.22488 10.593 8.73503 10.6661C8.24517 10.7465 7.45555 10.805 7.33857 10.6881C7.14117 10.498 7.27277 10.0008 7.27277 10.0008Z" fill="#FFFFF2"/>
<path id="Vector_7" d="M15.688 10.0008C15.688 10.0008 15.5418 9.40127 15.0153 9.37934C14.4889 9.35741 14.2769 9.64986 14.1234 9.84726C13.9771 10.0447 13.7359 10.593 14.2257 10.6661C14.7156 10.7465 15.5052 10.805 15.6222 10.6881C15.8196 10.498 15.688 10.0008 15.688 10.0008Z" fill="#FFFFF2"/>
<path id="Vector_8" d="M6.84136 11.5873C6.84136 11.5873 6.82674 11.1266 7.1265 11.1998C7.42627 11.2729 9.04937 12.0917 9.35644 12.4281C9.65621 12.7571 9.9121 13.0861 9.62696 13.1007C9.34913 13.1153 8.19395 13.0349 7.55787 12.6547C6.92179 12.2745 6.84136 12.3623 6.84136 11.5946V11.5873Z" fill="#151110"/>
<path id="Vector_9" d="M16.1266 11.5873C16.1266 11.5873 16.1412 11.1266 15.8415 11.1998C15.5417 11.2729 13.9186 12.0917 13.6115 12.4281C13.3118 12.7571 13.0559 13.0861 13.341 13.1007C13.6188 13.1153 14.774 13.0349 15.4101 12.6547C16.0462 12.2745 16.1266 12.3623 16.1266 11.5946V11.5873Z" fill="#151110"/>
<path id="Vector_10" d="M17.2064 5.68725C16.8116 6.1113 16.279 6.75534 15.9135 7.31831C16.7323 8.04213 17.3215 8.78458 17.5847 9.22325C17.9283 8.32397 18.3597 6.18176 18.3012 5.31903C18.2939 5.2313 18.2866 5.15087 18.2719 5.07776C18.0014 5.12894 17.6012 5.26319 17.2064 5.68725Z" fill="url(#paint0_linear_115_888)"/>
<path id="Vector_11" d="M16.9529 5.10219C16.4484 5.45313 15.8635 5.9503 15.1543 6.7253C15.4541 6.93001 15.7246 7.14935 15.9732 7.36869C16.346 6.81303 16.8359 6.17695 17.2234 5.74559C17.6182 5.32153 17.9941 5.12886 18.272 5.07768C18.1331 4.35386 17.6255 4.62696 16.9456 5.10219H16.9529Z" fill="url(#paint1_linear_115_888)"/>
<path id="Vector_12" d="M5.81084 5.71861C6.20565 6.14266 6.73822 6.78672 7.10378 7.34968C6.28492 8.0735 5.69577 8.81595 5.43257 9.25463C5.08894 8.35534 4.65757 6.21313 4.71606 5.3504C4.72337 5.26267 4.73068 5.18224 4.74531 5.10913C5.01582 5.16031 5.41603 5.29455 5.81084 5.71861Z" fill="url(#paint2_linear_115_888)"/>
<path id="Vector_13" d="M6.06445 5.13356C6.56892 5.4845 7.15383 5.98167 7.86302 6.75666C7.56326 6.96138 7.29274 7.18072 7.04416 7.40005C6.67128 6.8444 6.18143 6.20832 5.79393 5.77695C5.39912 5.3529 5.02319 5.16023 4.74536 5.10905C4.88428 4.38524 5.39181 4.65832 6.07176 5.13356H6.06445Z" fill="url(#paint3_linear_115_888)"/>
<path id="Vector_14" d="M12.0178 17.4801H11.5279H11.4329H10.943C10.943 17.4801 10.826 17.4509 10.826 17.5386C10.826 17.6264 10.9503 17.6995 11.0015 17.6995C11.0527 17.6995 11.1404 17.5898 11.2062 17.5898C11.272 17.5898 11.3963 17.853 11.4841 17.853C11.5718 17.853 11.6961 17.5898 11.7619 17.5898C11.8277 17.5898 11.9154 17.6995 11.9666 17.6995C12.0178 17.6995 12.1421 17.6264 12.1421 17.5386C12.1421 17.4509 12.0251 17.4801 12.0251 17.4801H12.0178Z" fill="#151110"/>
<path id="Vector_15" d="M13.4947 16.8368C12.9171 16.8295 12.8805 16.8734 12.8147 16.9026C12.7416 16.9319 12.3249 16.9173 12.0836 16.9246C11.8423 16.9319 11.9081 16.8076 11.8204 16.7125C11.7473 16.6394 11.6522 16.6541 11.6449 16.5883V16.2885C11.6449 16.2885 11.6522 16.2081 11.7984 16.1642C12.2444 16.0253 12.4784 15.6305 12.4784 15.6305C12.7562 15.0383 12.6246 14.468 12.4638 14.3218C12.3029 14.1755 11.9593 14.2048 11.9593 14.2048H11.0088C11.0088 14.2048 10.6652 14.1755 10.5043 14.3218C10.3435 14.468 10.2119 15.0383 10.4897 15.6305C10.4897 15.6305 10.731 16.0253 11.1697 16.1642H11.1624C11.3086 16.2081 11.3159 16.2885 11.3159 16.2885V16.5883C11.3086 16.6614 11.2135 16.6394 11.1404 16.7125C11.0527 16.8076 11.1185 16.9246 10.8772 16.9246C10.6359 16.9173 10.2192 16.9392 10.1461 16.9026C10.0803 16.8734 10.0437 16.8295 9.46613 16.8368C9.43689 16.8368 9.42227 16.8734 9.43689 16.8953C9.47345 16.9392 9.51731 16.9904 9.54656 17.0489C9.59774 17.1512 9.60505 17.3779 9.62698 17.3998C9.64892 17.4217 9.7659 17.3998 9.79514 17.4291C9.81707 17.4583 10.0218 18.0798 10.1095 18.0798C10.1973 18.0798 10.1607 17.1512 10.1607 17.1512C10.1607 17.1512 11.1989 17.2243 11.4767 17.2243C11.7546 17.2243 12.7928 17.1512 12.7928 17.1512C12.7928 17.1512 12.7562 18.0798 12.844 18.0798C12.9317 18.0798 13.1364 17.4583 13.1583 17.4291C13.1803 17.3998 13.2973 17.4144 13.3265 17.3998C13.3484 17.3779 13.3557 17.1512 13.4069 17.0489C13.4362 16.9904 13.48 16.9319 13.5166 16.8953C13.5385 16.8734 13.5166 16.8368 13.4873 16.8368H13.4947Z" fill="#151110"/>
</g>
<defs>
<linearGradient id="paint0_linear_115_888" x1="16.3262" y1="5.37256" x2="17.8592" y2="9.20508" gradientUnits="userSpaceOnUse">
<stop stop-color="#FF8E06"/>
<stop offset="1" stop-color="#FF8000"/>
</linearGradient>
<linearGradient id="paint1_linear_115_888" x1="16.3262" y1="5.37247" x2="17.8592" y2="9.205" gradientUnits="userSpaceOnUse">
<stop stop-color="#FF8E06"/>
<stop offset="1" stop-color="#FF8000"/>
</linearGradient>
<linearGradient id="paint2_linear_115_888" x1="6.69105" y1="5.40392" x2="5.15804" y2="9.23644" gradientUnits="userSpaceOnUse">
<stop stop-color="#FF8E06"/>
<stop offset="1" stop-color="#FF8000"/>
</linearGradient>
<linearGradient id="paint3_linear_115_888" x1="6.6911" y1="5.40384" x2="5.15809" y2="9.23636" gradientUnits="userSpaceOnUse">
<stop stop-color="#FF8E06"/>
<stop offset="1" stop-color="#FF8000"/>
</linearGradient>
<clipPath id="clip0_115_888">
<rect width="22.5235" height="22.5235" fill="white" transform="translate(0.229614)"/>
</clipPath>
</defs>
</svg>
