<svg width="23" height="24" viewBox="0 0 23 24" fill="none" xmlns="http://www.w3.org/2000/svg">
<g id="MATIC" clip-path="url(#clip0_115_904)">
<g id="Layer_x0020_1">
<g id="_1705781198752">
<path id="Vector" d="M11.2617 23.2739C17.4602 23.2739 22.5235 18.2017 22.5235 12.0122C22.5235 5.81376 17.4512 0.750488 11.2617 0.750488C5.06327 0.750488 0 5.82277 0 12.0122C0 18.2107 5.07228 23.2739 11.2617 23.2739Z" fill="url(#paint0_linear_115_904)"/>
<path id="Vector_2" d="M14.5231 14.4447L17.7124 12.6068C17.8836 12.5077 17.9827 12.3275 17.9827 12.1293V8.45346C17.9827 8.25525 17.8746 8.07507 17.7124 7.97596L14.5231 6.13805C14.3519 6.03894 14.1447 6.03894 13.9735 6.13805L10.7842 7.97596C10.6131 8.07507 10.5139 8.25525 10.5139 8.45346V15.0303L8.27962 16.3186L6.04529 15.0303V12.4536L8.27962 11.1653L9.75716 12.0122V10.2824L8.55891 9.58864C8.47783 9.54359 8.37872 9.51657 8.28863 9.51657C8.18953 9.51657 8.09943 9.54359 8.01835 9.58864L4.82903 11.4266C4.65785 11.5257 4.55875 11.7058 4.55875 11.9041V15.5799C4.55875 15.7781 4.66686 15.9583 4.82903 16.0574L8.01835 17.8953C8.18953 17.9944 8.39674 17.9944 8.56792 17.8953L11.7572 16.0574C11.9284 15.9583 12.0275 15.7781 12.0275 15.5799V9.00303L12.0636 8.976L14.2619 7.70568L16.4962 8.99402V11.5707L14.2619 12.859L12.7933 12.0122V13.742L13.9916 14.4357C14.1627 14.5348 14.37 14.5348 14.5411 14.4357L14.5231 14.4447Z" fill="white"/>
</g>
</g>
</g>
<defs>
<linearGradient id="paint0_linear_115_904" x1="-4.11939" y1="2.5795" x2="19.1068" y2="16.8233" gradientUnits="userSpaceOnUse">
<stop stop-color="#A229C5"/>
<stop offset="1" stop-color="#7B3FE4"/>
</linearGradient>
<clipPath id="clip0_115_904">
<rect width="22.5235" height="22.5235" fill="white" transform="translate(0 0.750488)"/>
</clipPath>
</defs>
</svg>
