<svg width="25" height="26" viewBox="0 0 25 26" fill="none" xmlns="http://www.w3.org/2000/svg">
<g id="SOL">
<path id="Vector" d="M12.6194 24.3017C18.8544 24.3017 23.9089 19.2472 23.9089 13.0121C23.9089 6.77709 18.8544 1.7226 12.6194 1.7226C6.38433 1.7226 1.32983 6.77709 1.32983 13.0121C1.32983 19.2472 6.38433 24.3017 12.6194 24.3017Z" fill="#262964"/>
<path id="Vector_2" d="M12.6194 22.6889C17.9637 22.6889 22.2961 18.3565 22.2961 13.0121C22.2961 7.66781 17.9637 3.33539 12.6194 3.33539C7.27505 3.33539 2.94263 7.66781 2.94263 13.0121C2.94263 18.3565 7.27505 22.6889 12.6194 22.6889Z" fill="#555ABE"/>
<g id="Group">
<path id="Vector_3" d="M8.26437 15.6737C8.34225 15.5958 8.4493 15.5505 8.5628 15.5505H18.859C19.0471 15.5505 19.1412 15.7775 19.0082 15.9105L16.9743 17.9445C16.8964 18.0223 16.7894 18.0677 16.6759 18.0677H6.37962C6.19146 18.0677 6.09738 17.8406 6.23037 17.7077L8.26437 15.6737Z" fill="white"/>
<path id="Vector_4" d="M8.2644 8.07973C8.34551 8.00184 8.45256 7.95648 8.56283 7.95648H18.859C19.0472 7.95648 19.1413 8.18355 19.0083 8.31654L16.9743 10.3505C16.8965 10.4284 16.7894 10.4737 16.6759 10.4737H6.37965C6.19149 10.4737 6.09741 10.2466 6.2304 10.1137L8.2644 8.07973Z" fill="white"/>
<path id="Vector_5" d="M16.9742 11.8524C16.8964 11.7745 16.7893 11.7291 16.6758 11.7291H6.37962C6.19146 11.7291 6.09738 11.9562 6.23037 12.0892L8.2643 14.1231C8.34218 14.201 8.44923 14.2464 8.56273 14.2464H18.8589C19.0471 14.2464 19.1412 14.0193 19.0082 13.8863L16.9742 11.8524Z" fill="white"/>
</g>
</g>
</svg>
