<svg width="23" height="24" viewBox="0 0 23 24" fill="none" xmlns="http://www.w3.org/2000/svg">
<g id="DOGE" clip-path="url(#clip0_115_1014)">
<g id="Clip path group">
<mask id="mask0_115_1014" style="mask-type:luminance" maskUnits="userSpaceOnUse" x="0" y="0" width="23" height="24">
<g id="clip0_doge">
<path id="Vector" d="M0 0.668457H22.5235V23.1919H0V0.668457Z" fill="white"/>
</g>
</mask>
<g mask="url(#mask0_115_1014)">
<g id="Group">
<path id="Vector_2" d="M22.1888 14.6537C20.6846 20.6868 14.573 24.3585 8.53885 22.854C2.50678 21.3499 -1.16524 15.239 0.339605 9.20619C1.8434 3.17237 7.95464 -0.499658 13.9874 1.00449C20.0212 2.50863 23.6929 8.62023 22.1888 14.6537Z" fill="#C2A633"/>
<path id="Vector_3" d="M1.36264 9.46252C2.72531 3.99424 8.26362 0.666403 13.7305 2.02942C19.1988 3.39245 22.5262 8.93075 21.1632 14.3987C19.7999 19.8659 14.2619 23.1934 8.79292 21.83C3.32641 20.4673 -0.00108249 14.9294 1.36264 9.46252Z" stroke="white" stroke-opacity="0.24" stroke-width="2.11157"/>
<path id="Vector_4" opacity="0.3" d="M21.8513 8.10357L0.145006 13.7355C-0.0996853 12.2287 -0.0343002 10.6879 0.33716 9.20722C1.84025 3.1734 7.95185 -0.49898 13.9846 1.00552C17.7643 1.94763 20.6171 4.6969 21.8513 8.10357Z" fill="white"/>
<g id="Group_2">
<path id="Vector_5" d="M20.1375 14.1438C18.9152 19.0454 13.9498 22.0287 9.04677 20.8058C4.1458 19.5846 1.16215 14.6196 2.38475 9.71754C3.60665 4.81517 8.57237 1.83152 13.474 3.05377C18.3761 4.27567 21.3597 9.24138 20.1375 14.1438Z" fill="#C2A633"/>
</g>
<g id="Clip path group_2">
<mask id="mask1_115_1014" style="mask-type:luminance" maskUnits="userSpaceOnUse" x="5" y="6" width="12" height="12">
<g id="clip1_doge">
<path id="Vector_6" d="M5.63086 6.29926H16.8926V17.561H5.63086V6.29926Z" fill="white"/>
</g>
</mask>
<g mask="url(#mask1_115_1014)">
<g id="Group_3">
<path id="Vector_7" d="M10.5587 6.29644H7.32202V11.3111H5.99243V12.5393H7.32202V17.5536H11.0936C11.0936 17.5536 16.3972 17.9981 16.3972 12.0188C16.3972 6.13772 11.3249 6.29644 10.5587 6.29644ZM11.0071 15.4726H9.44626V12.5393H11.7873V11.3111H9.44626V8.37739H10.9349C11.491 8.37739 14.2909 8.60122 14.2951 12.0596C14.2994 15.518 11.4079 15.4726 11.0071 15.4726Z" fill="white"/>
</g>
</g>
</g>
</g>
</g>
</g>
</g>
<defs>
<clipPath id="clip0_115_1014">
<rect width="22.5235" height="22.5235" fill="white" transform="translate(0 0.668457)"/>
</clipPath>
</defs>
</svg>
