<svg width="26" height="26" viewBox="0 0 26 26" fill="none" xmlns="http://www.w3.org/2000/svg">
<path d="M24.0452 12.9296C24.0452 19.1858 18.9734 24.2576 12.7172 24.2576C6.46101 24.2576 1.38928 19.1858 1.38928 12.9296C1.38928 6.67341 6.46101 1.60168 12.7172 1.60168C18.9734 1.60168 24.0452 6.67341 24.0452 12.9296Z" fill="#7AAE00"/>
<path fill-rule="evenodd" clip-rule="evenodd" d="M12.7172 22.1336C17.8003 22.1336 21.9212 18.0127 21.9212 12.9296C21.9212 7.84656 17.8003 3.72567 12.7172 3.72567C7.63416 3.72567 3.51327 7.84656 3.51327 12.9296C3.51327 18.0127 7.63416 22.1336 12.7172 22.1336ZM12.7172 24.2576C18.9734 24.2576 24.0452 19.1858 24.0452 12.9296C24.0452 6.67341 18.9734 1.60168 12.7172 1.60168C6.46101 1.60168 1.38928 6.67341 1.38928 12.9296C1.38928 19.1858 6.46101 24.2576 12.7172 24.2576Z" fill="#8ECA00"/>
<path d="M6.60481 8.20193H8.60206C9.39219 8.20193 9.96283 8.34825 10.314 8.64089C10.6725 8.93353 10.8517 9.3798 10.8517 9.97971C10.8517 10.2577 10.8115 10.4991 10.731 10.704C10.6578 10.9088 10.5737 11.0808 10.4786 11.2198C10.3689 11.3807 10.2482 11.5197 10.1165 11.6368C10.292 11.7026 10.4567 11.7868 10.6103 11.8892C10.7639 11.9916 10.8993 12.116 11.0163 12.2623C11.1334 12.4086 11.2248 12.5842 11.2907 12.789C11.3638 12.9866 11.4004 13.2207 11.4004 13.4914C11.4004 13.7913 11.3602 14.0766 11.2797 14.3473C11.1992 14.6107 11.0639 14.8412 10.8737 15.0387C10.6835 15.2362 10.4311 15.3935 10.1165 15.5106C9.80188 15.6276 9.41048 15.6862 8.94225 15.6862H6.60481V8.20193ZM7.52662 11.4502H9.35926C9.46169 11.3697 9.55314 11.2637 9.63361 11.132C9.70677 11.0222 9.77262 10.8869 9.83114 10.7259C9.88967 10.5577 9.91893 10.3565 9.91893 10.1224C9.91893 9.69073 9.80554 9.40175 9.57874 9.25543C9.35926 9.1018 9.04834 9.02498 8.64596 9.02498H7.52662V11.4502ZM7.52662 14.8631H9.01907C9.50192 14.8631 9.86406 14.7387 10.1055 14.49C10.3469 14.2413 10.4676 13.9084 10.4676 13.4914C10.4676 13.3085 10.442 13.1402 10.3908 12.9866C10.3469 12.8329 10.2664 12.7012 10.1494 12.5915C10.0323 12.4745 9.87504 12.383 9.67751 12.3172C9.47998 12.2513 9.23489 12.2184 8.94225 12.2184H7.52662V14.8631ZM13.8388 14.8412H15.3203C15.7226 14.8412 16.0994 14.79 16.4506 14.6875C16.8091 14.5851 17.12 14.4205 17.3834 14.1937C17.654 13.9596 17.8662 13.656 18.0198 13.2829C18.1735 12.9098 18.2503 12.4562 18.2503 11.9221C18.2503 11.4246 18.1808 10.9966 18.0418 10.6381C17.9028 10.2723 17.7053 9.97239 17.4492 9.73828C17.2005 9.50417 16.8932 9.33225 16.5274 9.22251C16.1689 9.10545 15.7665 9.04693 15.3203 9.04693H13.8388V14.8412ZM12.917 8.20193H15.3203C15.9128 8.20193 16.4469 8.27509 16.9224 8.42141C17.4053 8.56773 17.8187 8.79453 18.1625 9.1018C18.5064 9.40907 18.7697 9.79681 18.9526 10.265C19.1428 10.7333 19.2379 11.2856 19.2379 11.9221C19.2379 12.5659 19.1355 13.1256 18.9307 13.6011C18.7258 14.0693 18.4478 14.4607 18.0967 14.7753C17.7455 15.0826 17.3321 15.313 16.8566 15.4667C16.3811 15.613 15.869 15.6862 15.3203 15.6862H12.917V8.20193Z" fill="white"/>
<path d="M6.60481 8.20193V8.02493H6.42781V8.20193H6.60481ZM10.314 8.64089L10.2007 8.77687L10.2021 8.778L10.314 8.64089ZM10.731 10.704L10.5662 10.6392L10.5643 10.6445L10.731 10.704ZM10.4786 11.2198L10.3325 11.1198L10.3324 11.1201L10.4786 11.2198ZM10.1165 11.6368L9.99887 11.5045L9.77953 11.6995L10.0543 11.8025L10.1165 11.6368ZM10.6103 11.8892L10.5121 12.0364H10.5121L10.6103 11.8892ZM11.0163 12.2623L10.8781 12.3729H10.8781L11.0163 12.2623ZM11.2907 12.789L11.122 12.8433L11.1247 12.8505L11.2907 12.789ZM11.2797 14.3473L11.449 14.3991L11.4494 14.3978L11.2797 14.3473ZM10.8737 15.0387L10.7462 14.9159L10.8737 15.0387ZM10.1165 15.5106L10.1782 15.6765L10.1165 15.5106ZM6.60481 15.6862H6.42781V15.8632H6.60481V15.6862ZM7.52662 11.4502H7.34962V11.6272H7.52662V11.4502ZM9.35926 11.4502V11.6272H9.42048L9.46862 11.5894L9.35926 11.4502ZM9.63361 11.132L9.48623 11.0337L9.48258 11.0397L9.63361 11.132ZM9.83114 10.7259L9.9975 10.7864L9.99832 10.7841L9.83114 10.7259ZM9.57874 9.25543L9.47717 9.40054L9.48279 9.40416L9.57874 9.25543ZM7.52662 9.02498V8.84798H7.34962V9.02498H7.52662ZM7.52662 14.8631H7.34962V15.0401H7.52662V14.8631ZM10.1055 14.49L9.97848 14.3667H9.97848L10.1055 14.49ZM10.3908 12.9866L10.2205 13.0352L10.2229 13.0425L10.3908 12.9866ZM10.1494 12.5915L10.0242 12.7167L10.0283 12.7206L10.1494 12.5915ZM9.67751 12.3172L9.73348 12.1492L9.67751 12.3172ZM7.52662 12.2184V12.0414H7.34962V12.2184H7.52662ZM6.60481 8.37893H8.60206V8.02493H6.60481V8.37893ZM8.60206 8.37893C9.37814 8.37893 9.89741 8.52413 10.2007 8.77686L10.4273 8.50492C10.0283 8.17237 9.40623 8.02493 8.60206 8.02493V8.37893ZM10.2021 8.778C10.5078 9.02758 10.6747 9.41596 10.6747 9.97971H11.0287C11.0287 9.34364 10.8372 8.83948 10.4259 8.50378L10.2021 8.778ZM10.6747 9.97971C10.6747 10.2412 10.6368 10.4597 10.5663 10.6393L10.8957 10.7687C10.9861 10.5386 11.0287 10.2743 11.0287 9.97971H10.6747ZM10.5643 10.6445C10.4949 10.8389 10.417 10.9964 10.3325 11.1198L10.6247 11.3197C10.7304 11.1652 10.8208 10.9788 10.8977 10.7635L10.5643 10.6445ZM10.3324 11.1201C10.23 11.2703 10.1186 11.398 9.99887 11.5045L10.2341 11.7691C10.3777 11.6414 10.5078 11.4912 10.6248 11.3195L10.3324 11.1201ZM10.0543 11.8025C10.2174 11.8637 10.3699 11.9417 10.5121 12.0364L10.7085 11.7419C10.5434 11.6319 10.3667 11.5416 10.1786 11.471L10.0543 11.8025ZM10.5121 12.0364C10.6504 12.1286 10.7723 12.2405 10.8781 12.3729L11.1545 12.1517C11.0263 11.9914 10.8775 11.8546 10.7085 11.7419L10.5121 12.0364ZM10.8781 12.3729C10.9799 12.5001 11.0619 12.6558 11.1222 12.8432L11.4592 12.7349C11.3877 12.5125 11.2869 12.3171 11.1545 12.1517L10.8781 12.3729ZM11.1247 12.8505C11.1888 13.0237 11.2234 13.236 11.2234 13.4914H11.5774C11.5774 13.2054 11.5388 12.9495 11.4567 12.7276L11.1247 12.8505ZM11.2234 13.4914C11.2234 13.7753 11.1854 14.0436 11.11 14.2969L11.4494 14.3978C11.535 14.1097 11.5774 13.8073 11.5774 13.4914H11.2234ZM11.1104 14.2956C11.0381 14.5325 10.917 14.7385 10.7462 14.9159L11.0012 15.1615C11.2108 14.9438 11.3604 14.689 11.449 14.3991L11.1104 14.2956ZM10.7462 14.9159C10.578 15.0905 10.3499 15.2349 10.0547 15.3447L10.1782 15.6765C10.5122 15.5522 10.7889 15.3819 11.0012 15.1615L10.7462 14.9159ZM10.0547 15.3447C9.76602 15.4521 9.3971 15.5092 8.94225 15.5092V15.8632C9.42385 15.8632 9.83774 15.8031 10.1782 15.6765L10.0547 15.3447ZM8.94225 15.5092H6.60481V15.8632H8.94225V15.5092ZM6.7818 15.6862V8.20193H6.42781V15.6862H6.7818ZM7.52662 11.6272H9.35926V11.2732H7.52662V11.6272ZM9.46862 11.5894C9.59036 11.4937 9.69516 11.3707 9.78464 11.2243L9.48258 11.0397C9.41111 11.1566 9.33301 11.2457 9.24991 11.311L9.46862 11.5894ZM9.78088 11.2302C9.86381 11.1058 9.93548 10.9569 9.99749 10.7864L9.6648 10.6654C9.60975 10.8168 9.54974 10.9387 9.48634 11.0338L9.78088 11.2302ZM9.99832 10.7841C10.065 10.5923 10.0959 10.3704 10.0959 10.1224H9.74194C9.74194 10.3425 9.71431 10.5231 9.66397 10.6678L9.99832 10.7841ZM10.0959 10.1224C10.0959 9.66795 9.97693 9.30169 9.6747 9.1067L9.48279 9.40416C9.63414 9.50181 9.74194 9.71351 9.74194 10.1224H10.0959ZM9.68024 9.11043C9.4195 8.92791 9.06747 8.84798 8.64596 8.84798V9.20198C9.0292 9.20198 9.29902 9.27568 9.47724 9.40043L9.68024 9.11043ZM8.64596 8.84798H7.52662V9.20198H8.64596V8.84798ZM7.34962 9.02498V11.4502H7.70362V9.02498H7.34962ZM7.52662 15.0401H9.01907V14.6861H7.52662V15.0401ZM9.01907 15.0401C9.53057 15.0401 9.94639 14.9081 10.2325 14.6133L9.97848 14.3667C9.78174 14.5694 9.47328 14.6861 9.01907 14.6861V15.0401ZM10.2325 14.6133C10.5123 14.325 10.6446 13.9445 10.6446 13.4914H10.2906C10.2906 13.8723 10.1815 14.1575 9.97848 14.3667L10.2325 14.6133ZM10.6446 13.4914C10.6446 13.2919 10.6167 13.1044 10.5587 12.9306L10.2229 13.0425C10.2674 13.176 10.2906 13.3251 10.2906 13.4914H10.6446ZM10.561 12.9379C10.5083 12.7534 10.4108 12.5939 10.2704 12.4624L10.0283 12.7206C10.1221 12.8086 10.1856 12.9125 10.2206 13.0352L10.561 12.9379ZM10.2745 12.4664C10.1337 12.3255 9.95053 12.2216 9.73348 12.1492L9.62154 12.4851C9.79955 12.5444 9.93096 12.6234 10.0242 12.7167L10.2745 12.4664ZM9.73348 12.1492C9.51222 12.0755 9.24683 12.0414 8.94225 12.0414V12.3954C9.22296 12.3954 9.44773 12.4271 9.62154 12.4851L9.73348 12.1492ZM8.94225 12.0414H7.52662V12.3954H8.94225V12.0414ZM7.34962 12.2184V14.8631H7.70362V12.2184H7.34962ZM13.8388 14.8412H13.6618V15.0182H13.8388V14.8412ZM16.4506 14.6875L16.4019 14.5173L16.401 14.5176L16.4506 14.6875ZM17.3834 14.1937L17.4989 14.3278L17.4991 14.3276L17.3834 14.1937ZM18.0198 13.2829L18.1835 13.3503L18.0198 13.2829ZM18.0418 10.6381L17.8763 10.701L17.8768 10.7021L18.0418 10.6381ZM17.4492 9.73828L17.3279 9.86719L17.3298 9.86891L17.4492 9.73828ZM16.5274 9.22251L16.4724 9.39081L16.4765 9.39204L16.5274 9.22251ZM13.8388 9.04693V8.86993H13.6618V9.04693H13.8388ZM12.917 8.20193V8.02493H12.74V8.20193H12.917ZM16.9224 8.42141L16.8704 8.59058L16.8711 8.5908L16.9224 8.42141ZM18.9526 10.265L18.7877 10.3294L18.7886 10.3317L18.9526 10.265ZM18.9307 13.6011L19.0928 13.6721L19.0932 13.6711L18.9307 13.6011ZM18.0967 14.7753L18.2132 14.9085L18.2148 14.9072L18.0967 14.7753ZM16.8566 15.4667L16.9087 15.6359L16.911 15.6351L16.8566 15.4667ZM12.917 15.6862H12.74V15.8632H12.917V15.6862ZM13.8388 15.0182H15.3203V14.6642H13.8388V15.0182ZM15.3203 15.0182C15.7377 15.0182 16.1313 14.965 16.5001 14.8574L16.401 14.5176C16.0675 14.6149 15.7075 14.6642 15.3203 14.6642V15.0182ZM16.4992 14.8577C16.8805 14.7488 17.2147 14.5725 17.4989 14.3278L17.2679 14.0596C17.0253 14.2685 16.7376 14.4214 16.4019 14.5173L16.4992 14.8577ZM17.4991 14.3276C17.7933 14.0732 18.0207 13.7457 18.1835 13.3503L17.8562 13.2155C17.7117 13.5663 17.5148 13.846 17.2676 14.0598L17.4991 14.3276ZM18.1835 13.3503C18.3483 12.9501 18.4273 12.4722 18.4273 11.9221H18.0733C18.0733 12.4401 17.9987 12.8694 17.8562 13.2155L18.1835 13.3503ZM18.4273 11.9221C18.4273 11.4088 18.3557 10.9581 18.2068 10.5742L17.8768 10.7021C18.0059 11.0352 18.0733 11.4404 18.0733 11.9221H18.4273ZM18.2072 10.5753C18.0597 10.1869 17.8476 9.86271 17.5686 9.60765L17.3298 9.86891C17.5629 10.0821 17.7459 10.3578 17.8763 10.701L18.2072 10.5753ZM17.5705 9.60939C17.2995 9.35432 16.9672 9.16967 16.5782 9.05297L16.4765 9.39204C16.8191 9.49483 17.1014 9.65402 17.3279 9.86717L17.5705 9.60939ZM16.5823 9.05425C16.2032 8.93046 15.7819 8.86993 15.3203 8.86993V9.22392C15.7512 9.22392 16.1346 9.28045 16.4724 9.39076L16.5823 9.05425ZM15.3203 8.86993H13.8388V9.22392H15.3203V8.86993ZM13.6618 9.04693V14.8412H14.0158V9.04693H13.6618ZM12.917 8.37893H15.3203V8.02493H12.917V8.37893ZM15.3203 8.37893C15.8985 8.37893 16.4146 8.45033 16.8704 8.59058L16.9745 8.25224C16.4792 8.09985 15.9272 8.02493 15.3203 8.02493V8.37893ZM16.8711 8.5908C17.3317 8.73036 17.7217 8.94524 18.0446 9.23378L18.2804 8.96982C17.9156 8.64381 17.4789 8.4051 16.9738 8.25202L16.8711 8.5908ZM18.0446 9.23378C18.3659 9.52089 18.614 9.88473 18.7878 10.3294L19.1175 10.2006C18.9254 9.70889 18.6469 9.29724 18.2804 8.96982L18.0446 9.23378ZM18.7886 10.3317C18.9683 10.774 19.061 11.3027 19.061 11.9221H19.4149C19.4149 11.2685 19.3173 10.6925 19.1166 10.1984L18.7886 10.3317ZM19.061 11.9221C19.061 12.5475 18.9614 13.0823 18.7681 13.5311L19.0932 13.6711C19.3096 13.1688 19.4149 12.5843 19.4149 11.9221H19.061ZM18.7685 13.5302C18.573 13.9771 18.3093 14.3472 17.9786 14.6435L18.2148 14.9072C18.5863 14.5743 18.8787 14.1615 19.0928 13.6721L18.7685 13.5302ZM17.9801 14.6421C17.6483 14.9324 17.2565 15.1515 16.8022 15.2983L16.911 15.6351C17.4078 15.4746 17.8427 15.2327 18.2132 14.9085L17.9801 14.6421ZM16.8046 15.2975C16.3475 15.4381 15.8531 15.5092 15.3203 15.5092V15.8632C15.8848 15.8632 16.4146 15.7879 16.9087 15.6358L16.8046 15.2975ZM15.3203 15.5092H12.917V15.8632H15.3203V15.5092ZM13.094 15.6862V8.20193H12.74V15.6862H13.094Z" fill="#759900"/>
</svg>
