<svg width="13" height="13" viewBox="0 0 13 13" fill="none" xmlns="http://www.w3.org/2000/svg">
<g id="free-icon-check-mark-4286160 1">
<rect id="Rectangle 56" x="4" y="4" width="5" height="5" fill="white"/>
<g id="verified">
<path id="Vector" d="M11.4617 5.395C11.1528 5.0919 10.9418 4.85862 10.8333 4.74489C10.8169 4.56081 10.7899 4.17096 10.7899 3.77C10.7899 2.91412 10.0859 2.21006 9.23 2.21006C8.79677 2.21006 8.48256 2.19895 8.32546 2.19366C8.17894 2.07465 7.88641 1.82021 7.605 1.53827C7.01467 0.953227 5.98529 0.953227 5.39496 1.53827C5.09159 1.84719 4.85885 2.05825 4.74485 2.16669C4.56077 2.18309 4.17092 2.21006 3.76996 2.21006C2.91408 2.21006 2.21002 2.91412 2.21002 3.77C2.21002 4.20323 2.20447 4.51744 2.19362 4.67454C2.07461 4.82107 1.81991 5.11359 1.53823 5.395C1.24571 5.68752 1.08331 6.08319 1.08331 6.50002C1.08331 6.91685 1.24571 7.31252 1.53823 7.60504C1.84715 7.90814 2.05821 8.14142 2.16136 8.25515C2.18278 8.43923 2.21002 8.82908 2.21002 9.23004C2.21002 10.0859 2.91408 10.79 3.76996 10.79C4.20319 10.79 4.5174 10.7953 4.6745 10.8064C4.82076 10.9254 5.11328 11.1798 5.39496 11.4618C5.68748 11.7543 6.08289 11.9167 6.49998 11.9167C6.91707 11.9167 7.31248 11.7543 7.605 11.4618C7.9081 11.1529 8.14138 10.9418 8.25511 10.8334C8.43919 10.817 8.82904 10.79 9.23 10.79C10.0859 10.79 10.7899 10.0859 10.7899 9.23004C10.7899 8.79681 10.801 8.48261 10.8063 8.3255C10.9254 8.17898 11.1798 7.88645 11.4617 7.60504C11.7543 7.31252 11.9166 6.91685 11.9166 6.50002C11.9166 6.08319 11.7543 5.68752 11.4617 5.395ZM8.78038 5.53042L6.07204 8.23875C5.9636 8.3419 5.82819 8.39585 5.68748 8.39585C5.54677 8.39585 5.41136 8.3419 5.30292 8.23875L4.21958 7.15542C4.00826 6.94436 4.00826 6.59735 4.21958 6.38629C4.43091 6.17523 4.77738 6.17523 4.98871 6.38629L5.68748 7.09035L8.01125 4.76129C8.22231 4.55023 8.56932 4.55023 8.78038 4.76129C8.99144 4.97235 8.99144 5.31936 8.78038 5.53042Z" fill="#FF0036"/>
</g>
</g>
</svg>
