<svg width="28" height="27" viewBox="0 0 28 27" fill="none" xmlns="http://www.w3.org/2000/svg">
<g id="plus-18-movie 1" clip-path="url(#clip0_119_1090)">
<g id="_x34_4-18Plus_movie">
<g id="Group">
<path id="Vector" d="M9.02002 18.0979V10.7676H7.32545V8.8891H11.3583V18.0979H9.02002Z" fill="#415775"/>
</g>
<g id="Group_2">
<path id="Vector_2" d="M20.1464 11.2667C20.1464 12.068 19.7129 12.7774 18.9904 13.1715C20.0018 13.5918 20.6324 14.472 20.6324 15.4966C20.6324 17.1518 19.1611 18.2028 16.8622 18.2028C14.5633 18.2028 13.0921 17.1649 13.0921 15.5361C13.0921 14.4852 13.7752 13.5918 14.8392 13.1715C14.0641 12.738 13.565 12.0024 13.565 11.2011C13.565 9.7297 14.8524 8.79712 16.8491 8.79712C18.8721 8.79712 20.1464 9.75606 20.1464 11.2667ZM15.2989 15.2997C15.2989 16.0748 15.8507 16.5083 16.8622 16.5083C17.8737 16.5083 18.4386 16.088 18.4386 15.2997C18.4386 14.5379 17.8737 14.1042 16.8622 14.1042C15.8507 14.1042 15.2989 14.5378 15.2989 15.2997ZM15.5355 11.3981C15.5355 12.0551 16.0084 12.4227 16.8622 12.4227C17.7161 12.4227 18.189 12.055 18.189 11.3981C18.189 10.7152 17.7161 10.3341 16.8622 10.3341C16.0083 10.3341 15.5355 10.7152 15.5355 11.3981Z" fill="#415775"/>
</g>
<g id="Group_3">
<path id="Vector_3" d="M24.5234 9.92864C24.9121 11.076 25.1093 12.2761 25.1093 13.5C25.1093 19.6373 20.1163 24.6303 13.979 24.6303C7.84168 24.6303 2.84854 19.6373 2.84854 13.5C2.84854 7.36266 7.8416 2.36976 13.9789 2.36976C15.203 2.36976 16.4031 2.56681 17.5503 2.95572V0.478813C16.3915 0.161164 15.1947 0 13.979 0C6.53512 0 0.479019 6.0561 0.479019 13.5C0.479019 20.944 6.53512 27.0001 13.979 27.0001C21.4228 27.0001 27.4789 20.944 27.4789 13.5C27.4789 12.2844 27.3178 11.0875 27.0001 9.92864H24.5234Z" fill="#415775"/>
</g>
<g id="Group_4">
<path id="Vector_4" d="M23.8497 3.62158V1.03302H21.9883V3.62158H19.4153V5.48281H21.9883V8.0713H23.8497V5.48281H26.4381V3.62158H23.8497Z" fill="#415775"/>
</g>
</g>
</g>
<defs>
<clipPath id="clip0_119_1090">
<rect width="27" height="27" fill="white" transform="translate(0.478882)"/>
</clipPath>
</defs>
</svg>
