<svg width="113" height="113" viewBox="0 0 113 113" fill="none" xmlns="http://www.w3.org/2000/svg">
<path d="M103.585 41.1978H9.41785C8.81612 41.1978 8.22437 41.044 7.69877 40.751C7.17317 40.4581 6.73114 40.0357 6.41465 39.5239C6.09815 39.0121 5.91768 38.428 5.89036 37.8269C5.86304 37.2258 5.98978 36.6276 6.25856 36.0893L19.0841 10.4383C19.7642 9.06667 20.815 7.91309 22.1174 7.10835C23.4198 6.30362 24.9216 5.87992 26.4526 5.88531H86.5498C88.0813 5.8798 89.5837 6.30398 90.8863 7.10964C92.1888 7.9153 93.2393 9.07015 93.9183 10.443L106.744 36.0893C107.013 36.6276 107.139 37.2258 107.112 37.8269C107.085 38.428 106.904 39.0121 106.588 39.5239C106.271 40.0357 105.829 40.4581 105.304 40.751C104.778 41.044 104.186 41.1978 103.585 41.1978ZM15.1338 34.1353H97.8686L87.5997 13.5976C87.5034 13.4016 87.3538 13.2367 87.1681 13.1218C86.9824 13.0069 86.7681 12.9466 86.5498 12.9478H26.4526C26.235 12.9473 26.0215 13.0073 25.836 13.1213C25.6506 13.2352 25.5005 13.3985 25.4026 13.5928L15.1338 34.1353Z" fill="#253041"/>
<path d="M103.585 34.1353H9.41797C8.48142 34.1353 7.58324 34.5073 6.921 35.1695C6.25876 35.8318 5.88672 36.73 5.88672 37.6665V94.1665C5.88921 97.5997 7.25417 100.892 9.68183 103.319C12.1095 105.747 15.4014 107.112 18.8346 107.114H94.168C97.6012 107.112 100.893 105.747 103.321 103.319C105.748 100.892 107.113 97.5997 107.116 94.1665V37.6665C107.116 36.73 106.744 35.8318 106.082 35.1695C105.419 34.5073 104.521 34.1353 103.585 34.1353ZM73.1217 73.1203L58.9967 87.2453C58.334 87.9054 57.4367 88.276 56.5013 88.276C55.5659 88.276 54.6686 87.9054 54.0059 87.2453L39.8809 73.1203C39.2571 72.4508 38.9175 71.5655 38.9337 70.6506C38.9498 69.7358 39.3204 68.8629 39.9674 68.216C40.6144 67.569 41.4873 67.1984 42.4021 67.1822C43.3169 67.1661 44.2023 67.5057 44.8717 68.1294L52.9701 76.223V56.4998C52.9701 55.5633 53.3421 54.6651 54.0043 54.0029C54.6666 53.3406 55.5648 52.9686 56.5013 52.9686C57.4379 52.9686 58.336 53.3406 58.9983 54.0029C59.6605 54.6651 60.0326 55.5633 60.0326 56.4998V76.223L68.1309 68.1294C68.8003 67.5057 69.6857 67.1661 70.6005 67.1822C71.5154 67.1984 72.3882 67.569 73.0352 68.216C73.6822 68.8629 74.0528 69.7358 74.0689 70.6506C74.0851 71.5655 73.7455 72.4508 73.1217 73.1203Z" fill="#253041"/>
</svg>
