<svg width="15" height="15" viewBox="0 0 15 15" fill="none" xmlns="http://www.w3.org/2000/svg">
<path fill-rule="evenodd" clip-rule="evenodd" d="M14.5827 7.50008C14.5827 11.4121 11.4113 14.5834 7.49935 14.5834C3.58733 14.5834 0.416016 11.4121 0.416016 7.50008C0.416016 3.58806 3.58733 0.416748 7.49935 0.416748C11.4113 0.416748 14.5827 3.58806 14.5827 7.50008ZM3.88186 11.1176C2.9793 10.2151 2.9793 8.75171 3.88186 7.84915L5.29856 6.43248C6.20112 5.52989 7.66446 5.52989 8.56702 6.43248L7.56529 7.43421C7.21594 7.08486 6.64963 7.08486 6.30028 7.43421L4.88359 8.85087C4.53428 9.20022 4.53428 9.76654 4.88359 10.1159C5.23291 10.4652 5.79926 10.4652 6.14856 10.1159L6.43189 9.83255C6.70857 9.55588 7.15701 9.55588 7.43362 9.83255C7.71029 10.1092 7.71029 10.5576 7.43362 10.8343L7.15028 11.1176C6.24772 12.0202 4.78442 12.0202 3.88186 11.1176ZM11.1169 7.15102C12.0194 6.24846 12.0194 4.78512 11.1169 3.88256C10.2143 2.98001 8.75097 2.98001 7.84842 3.88256L7.56508 4.1659C7.28848 4.44253 7.28848 4.89101 7.56508 5.16764C7.84169 5.44426 8.2902 5.44426 8.56681 5.16764L8.85014 4.8843C9.19949 4.53498 9.7658 4.53498 10.1152 4.8843C10.4644 5.23361 10.4644 5.79996 10.1152 6.14929L8.69842 7.56596C8.34914 7.91531 7.78275 7.91531 7.43347 7.56596L6.43175 8.56768C7.33431 9.47024 8.79765 9.47024 9.70021 8.56768L11.1169 7.15102Z" fill="#415775"/>
</svg>
