<svg width="20" height="20" viewBox="0 0 20 20" fill="none" xmlns="http://www.w3.org/2000/svg">
<g clip-path="url(#clip0_309_1384)">
<path d="M10 20C15.5228 20 20 15.5228 20 10C20 4.47715 15.5228 0 10 0C4.47715 0 0 4.47715 0 10C0 15.5228 4.47715 20 10 20Z" fill="#039BE5"/>
<path d="M4.57654 9.78351L14.2182 6.06601C14.6657 5.90434 15.0565 6.17517 14.9115 6.85184L14.9124 6.85101L13.2707 14.5852C13.149 15.1335 12.8232 15.2668 12.3674 15.0085L9.86737 13.166L8.66154 14.3277C8.52821 14.461 8.41571 14.5735 8.15737 14.5735L8.33487 12.0293L12.9682 7.84351C13.1699 7.66601 12.9232 7.56601 12.6574 7.74267L6.93154 11.3477L4.46321 10.5777C3.92737 10.4077 3.91571 10.0418 4.57654 9.78351Z" fill="white"/>
</g>
<defs>
<clipPath id="clip0_309_1384">
<rect width="20" height="20" fill="white"/>
</clipPath>
</defs>
</svg>
