<svg width="26" height="26" viewBox="0 0 26 26" fill="none" xmlns="http://www.w3.org/2000/svg">
<g id="Frame 6">
<path id="Vector" d="M13 26C20.1797 26 26 20.1797 26 13C26 5.8203 20.1797 0 13 0C5.8203 0 0 5.8203 0 13C0 20.1797 5.8203 26 13 26Z" fill="url(#paint0_linear_162_125)"/>
<g id="Group">
<path id="Vector_2" d="M15.7619 5.77783H10.2441C7.7828 5.77783 5.78369 7.77694 5.78369 10.2383V15.7561C5.78369 18.2174 7.7828 20.2165 10.2441 20.2165H15.7619C18.2232 20.2165 20.2224 18.2174 20.2224 15.7561V10.2383C20.2224 7.77694 18.2232 5.77783 15.7619 5.77783ZM18.6104 15.7618C18.6104 17.3334 17.3335 18.6161 15.7561 18.6161H10.2384C8.6668 18.6161 7.38414 17.3392 7.38414 15.7618V10.2441C7.38414 8.6725 8.66102 7.38983 10.2384 7.38983H15.7561C17.3277 7.38983 18.6104 8.66672 18.6104 10.2441V15.7618Z" fill="white"/>
<path id="Vector_3" d="M13.0001 9.30811C10.9663 9.30811 9.30811 10.9663 9.30811 13.0001C9.30811 15.0339 10.9663 16.6921 13.0001 16.6921C15.0339 16.6921 16.6921 15.0339 16.6921 13.0001C16.6921 10.9663 15.0339 9.30811 13.0001 9.30811ZM13.0001 15.2419C11.7637 15.2419 10.7583 14.2365 10.7583 13.0001C10.7583 11.7637 11.7637 10.7583 13.0001 10.7583C14.2365 10.7583 15.2419 11.7637 15.2419 13.0001C15.2419 14.2365 14.2365 15.2419 13.0001 15.2419Z" fill="white"/>
<path id="Vector_4" d="M16.9733 9.71275C17.3134 9.65761 17.5445 9.33716 17.4893 8.99702C17.4342 8.65687 17.1137 8.42583 16.7736 8.48097C16.4335 8.53611 16.2024 8.85655 16.2576 9.1967C16.3127 9.53684 16.6331 9.76789 16.9733 9.71275Z" fill="white"/>
</g>
</g>
<defs>
<linearGradient id="paint0_linear_162_125" x1="3.10145" y1="22.8985" x2="21.5759" y2="4.4241" gradientUnits="userSpaceOnUse">
<stop stop-color="#FEE411"/>
<stop offset="0.0518459" stop-color="#FEDB16"/>
<stop offset="0.1381" stop-color="#FEC125"/>
<stop offset="0.2481" stop-color="#FE983D"/>
<stop offset="0.3762" stop-color="#FE5F5E"/>
<stop offset="0.5" stop-color="#FE2181"/>
<stop offset="1" stop-color="#9000DC"/>
</linearGradient>
</defs>
</svg>
