<svg width="26" height="26" viewBox="0 0 26 26" fill="none" xmlns="http://www.w3.org/2000/svg">
<g id="free-icon-tik-tok-4782345 1" clip-path="url(#clip0_162_146)">
<g id="Group">
<path id="Vector" d="M26.0006 13C26.0006 20.1794 20.1801 26 13 26H12.9757C5.80711 25.9865 0 20.1698 0 13C0 5.83017 5.80711 0.0128136 12.9757 0H13C20.1801 0 26.0006 5.81864 26.0006 13Z" fill="black"/>
<path id="Vector_2" d="M12.9757 0V26C5.80711 25.9865 0 20.1698 0 13C0 5.83017 5.80711 0.0128136 12.9757 0Z" fill="#0C0C0C"/>
<path id="Vector_3" d="M20.0735 9.40132L20.0575 12.0646C19.5385 12.0583 19.0222 11.989 18.5199 11.8583C17.7449 11.6559 17.014 11.3121 16.364 10.8441C16.364 11.1164 16.3678 11.5226 16.3678 12.0166C16.3678 12.6739 16.3678 13.0474 16.364 13.444C16.3525 15.894 16.4133 16.3681 16.1981 17.3368C16.1533 17.5704 16.092 17.8005 16.0148 18.0255C15.6009 19.1787 14.6989 20.1026 13.7795 20.594C13.5229 20.7304 13.2536 20.8413 12.9754 20.9252C11.2379 21.4518 9.14996 20.9893 8.07234 19.7079L8.06529 19.7002L8.05696 19.6893C7.14143 18.5848 6.94154 16.8627 6.92232 16.4219C6.92232 16.3655 6.91847 16.3104 6.91847 16.3104C6.90437 15.7083 6.99099 15.108 7.17475 14.5344C7.36054 13.9412 7.97239 12.7027 9.34665 11.9506C10.2037 11.4889 11.182 11.3017 12.149 11.4143L12.1176 14.1097C12.0631 14.0956 10.7465 13.7836 9.88225 14.6805C9.09934 15.4929 9.14996 16.8018 9.70542 17.5431C9.7349 17.5828 9.76629 17.6212 9.79896 17.6571C10.1097 18.0037 10.5037 18.1338 10.7696 18.2247C11.1221 18.3409 11.4922 18.3951 11.8632 18.3849C12.2607 18.3787 12.6474 18.2545 12.9742 18.0281C13.8775 17.4143 13.9993 16.3213 14.0037 16.2591C13.9926 12.7405 13.9822 9.22193 13.9723 5.70333V5.70012L15.6657 5.67001H15.6932L15.9386 5.66553C16.1195 6.31668 16.4262 6.92611 16.8413 7.45943C16.9721 7.62624 17.1133 7.78459 17.2641 7.93353C17.834 8.48815 18.5185 8.9111 19.2695 9.1726H19.2746C19.5351 9.2678 19.8021 9.34424 20.0735 9.40132Z" fill="#FD2854"/>
<path id="Vector_4" d="M19.3083 10.6065H19.3031C18.3912 10.7526 17.4577 10.6817 16.5783 10.3995C15.9643 10.1999 15.3879 9.89912 14.8729 9.50964C15.1817 11.3763 15.1817 13.281 14.8729 15.1476C14.507 17.3413 14.2777 18.7162 13.0533 19.5958C13.0277 19.6144 13.0014 19.633 12.9752 19.6503C11.2844 20.7952 8.92224 20.2269 8.05668 19.6881L8.04387 19.6804L8.01952 19.665C7.73422 19.476 7.46661 19.2616 7.21996 19.0244C6.77781 18.5955 6.42499 18.0832 6.18187 17.5173C5.93874 16.9513 5.81011 16.3427 5.80342 15.7268C5.78697 15.0888 5.89288 14.4535 6.11543 13.8554C6.25958 13.471 6.79519 12.1038 8.28733 11.2715C9.2428 10.7476 10.3469 10.5607 11.4215 10.741C11.4173 10.9546 11.4132 11.1681 11.4094 11.3817V11.3862L11.3844 12.738C10.9167 12.6278 10.4333 12.6009 9.95629 12.6586C9.57189 12.706 9.19517 12.7502 8.79474 13.002C8.28192 13.3321 7.91895 13.8501 7.78376 14.4448C7.6982 14.7328 7.68065 15.0368 7.7325 15.3328C7.74788 15.4173 7.86064 16.0048 8.33474 16.4264C8.49427 16.568 8.56218 16.5738 8.79474 16.791C8.99976 16.9832 9.05102 17.0754 9.23873 17.2349C9.23873 17.2349 9.28486 17.274 9.36046 17.3291C9.36531 17.3333 9.37045 17.3372 9.37584 17.3407C9.47922 17.4163 9.58776 17.4846 9.70066 17.545C10.1703 17.791 11.0109 17.8173 11.6272 17.5181C12.4799 17.1036 12.9451 16.1503 12.9431 15.5839C12.9329 12.064 12.9224 8.54436 12.9117 5.0249H12.9707L15.5859 5.00952C15.5841 5.21352 15.6123 5.41667 15.6699 5.6124C15.6763 5.63354 15.6827 5.6534 15.6897 5.67647C15.6968 5.69953 15.7013 5.71042 15.707 5.72644C15.7476 5.83291 15.7944 5.93688 15.8473 6.03781L15.8838 6.11149V6.11725C15.8833 6.11891 15.8833 6.12072 15.8838 6.12238L15.8896 6.13455L15.8954 6.14608C15.8989 6.15354 15.9027 6.16081 15.9069 6.16787C15.9108 6.1762 15.9152 6.18452 15.9197 6.19285C15.9441 6.23962 15.9774 6.30113 16.0152 6.37032C16.0389 6.41325 16.0639 6.45617 16.0895 6.49846L16.1171 6.54395C16.1305 6.56701 16.1446 6.59007 16.1587 6.6125L16.21 6.69386C16.4092 7.00844 16.759 7.53828 17.2549 7.9387C17.952 8.50122 18.7528 8.6601 19.2551 8.70752C19.2583 8.86512 19.2621 9.02273 19.2653 9.18034C19.2841 9.65615 19.2984 10.1315 19.3083 10.6065Z" fill="#24F6FA"/>
<path id="Vector_5" d="M19.3164 11.3592C17.9963 11.4076 16.7001 10.9972 15.6485 10.1977V15.8356C15.6357 16.0515 15.4467 18.4329 13.2953 19.7438C13.189 19.8078 13.082 19.8674 12.975 19.9225C10.9511 20.9553 8.97329 20.1461 8.77788 20.0622C8.58359 19.9987 8.39738 19.9127 8.22306 19.8059C8.1686 19.772 8.11542 19.7367 8.06481 19.7002L8.01932 19.6662C6.69952 18.6642 6.64507 16.623 6.63674 16.3219C6.62263 15.7198 6.70925 15.1195 6.89301 14.5459C7.11084 13.8508 7.76113 12.679 9.06491 11.9621C9.78431 11.5706 10.5928 11.3719 11.4117 11.3855V11.39C11.401 12.0669 11.3904 12.7441 11.3797 13.4215C11.2419 13.3844 10.3975 13.1717 9.57232 13.6913C9.0595 14.0214 8.69653 14.5394 8.56133 15.1341C8.48044 15.4227 8.46296 15.7254 8.51008 16.0214C8.58324 16.3869 8.7557 16.7252 9.00853 16.9991C9.11481 17.1215 9.23355 17.2325 9.36282 17.3303C9.36767 17.3345 9.37281 17.3384 9.3782 17.3419C9.47971 17.4202 9.58848 17.4886 9.70302 17.5462L9.70687 17.5494C9.93581 17.8952 10.2661 18.1616 10.6524 18.3123C11.0386 18.463 11.4621 18.4906 11.8647 18.3913C12.0522 18.3521 12.2344 18.2906 12.4073 18.2081C12.6167 18.1085 12.8087 17.9756 12.9756 17.8147C13.624 17.1913 13.7188 16.3289 13.7233 16.2771L13.6951 5.71291L13.977 5.70714L15.6703 5.67383H15.6946C15.701 5.69049 15.7081 5.70714 15.7151 5.7238C15.7542 5.81798 15.801 5.92241 15.8555 6.03517L15.892 6.10885V6.11461C15.8914 6.11627 15.8914 6.11808 15.892 6.11974L15.8977 6.13191L15.9035 6.14345C15.907 6.1509 15.9108 6.15817 15.915 6.16523C15.9189 6.17356 15.9234 6.18189 15.9278 6.19021C15.9573 6.24788 15.9919 6.30746 16.0233 6.36768C16.047 6.41061 16.072 6.45353 16.0976 6.49582L16.1252 6.54131L16.1668 6.60986L16.2181 6.69123C16.5111 7.14958 16.8624 7.56801 17.263 7.93606C17.8477 8.47137 18.528 8.89173 19.2683 9.17513H19.2735C19.2818 9.64988 19.2901 10.1259 19.2978 10.6006L19.3164 11.3592Z" fill="white"/>
<path id="Vector_6" opacity="0.17" d="M20.0737 9.40137L20.0576 12.0647C19.5386 12.0583 19.0223 11.989 18.52 11.8584C17.7451 11.6559 17.0142 11.3121 16.3641 10.8442C16.3641 11.1165 16.368 11.5227 16.368 12.0166C16.368 12.674 16.368 13.0475 16.3641 13.444C16.3526 15.894 16.4135 16.3681 16.1982 17.3368C16.1534 17.5704 16.0922 17.8006 16.015 18.0255C15.6011 19.1788 14.699 20.1026 13.7796 20.594C13.5231 20.7304 13.2538 20.8413 12.9756 20.9252V5.0249L15.5908 5.00952C15.589 5.21352 15.6172 5.41667 15.6748 5.6124C15.6812 5.63354 15.6876 5.6534 15.6946 5.67647L15.94 5.67198C16.1209 6.32314 16.4276 6.93256 16.8427 7.46588C16.9735 7.63269 17.1147 7.79104 17.2656 7.93998C17.9626 8.5025 18.7635 8.66139 19.2658 8.7088C19.269 8.8664 19.2728 9.02401 19.276 9.18162C19.5363 9.27372 19.8029 9.34716 20.0737 9.40137Z" fill="black"/>
</g>
</g>
<defs>
<clipPath id="clip0_162_146">
<rect width="26" height="26" fill="white"/>
</clipPath>
</defs>
</svg>
