<svg width="220" height="220" viewBox="0 0 220 220" fill="none" xmlns="http://www.w3.org/2000/svg">
<path d="M219.958 146.824C219.486 126.414 213.255 99.1717 203.286 73.9491C198.732 62.3905 193.79 52.4647 189.021 45.2889C182.661 35.6639 176.947 31.1951 170.931 31.1951C167.536 31.1951 164.486 31.0662 161.564 30.9373C154.173 30.6366 147.771 30.3787 142.228 32.6561C136.513 35.0194 133.204 39.4451 131.185 43.8709H88.8176C86.7981 39.4022 83.4895 34.9764 77.7746 32.6131C72.1887 30.3358 65.8293 30.5936 58.4387 30.8944C55.4739 31.0233 52.4231 31.1522 49.0715 31.1522C43.0559 31.1522 37.341 35.6209 30.9817 45.2459C26.2121 52.4647 21.3137 62.3905 16.716 73.9491C6.74729 99.1287 0.516826 126.371 0.0441695 146.824C-0.772237 182.66 16.1145 188.762 26.2551 189.234H27.1575C37.2981 189.234 48.427 181.457 61.1028 165.558C67.0754 158.082 71.8879 150.605 74.509 146.394H145.493C148.072 150.605 152.927 158.039 158.9 165.558C172.005 181.93 183.392 189.707 193.747 189.234C203.888 188.805 220.775 182.66 219.958 146.824ZM153.872 98.828C153.872 102.609 150.779 105.703 146.997 105.703H145.322C141.54 105.703 138.447 102.609 138.447 98.828C138.447 95.0467 141.54 91.953 145.322 91.953H146.997C150.779 91.9959 153.872 95.0037 153.872 98.828ZM81.5559 98.828C81.5559 102.609 78.4621 105.703 74.6809 105.703H66.0012V114.383C66.0012 118.164 62.9075 121.258 59.1262 121.258C55.345 121.258 52.2512 118.164 52.2512 114.383V105.703H43.5715C39.7903 105.703 36.6965 102.609 36.6965 98.828C36.6965 95.0467 39.7903 91.953 43.5715 91.953H52.2512V83.2733C52.2512 79.492 55.345 76.3983 59.1262 76.3983C62.9075 76.3983 66.0012 79.492 66.0012 83.2733V91.953H74.6809C78.5051 91.9959 81.5559 95.0037 81.5559 98.828ZM167.751 83.2303V84.9491C167.751 88.7303 164.657 91.8241 160.876 91.8241C157.095 91.8241 154.001 88.7303 154.001 84.9491V83.2303C154.001 79.4491 157.095 76.3553 160.876 76.3553C164.657 76.3553 167.751 79.4491 167.751 83.2303ZM167.751 112.75V114.426C167.751 118.207 164.657 121.301 160.876 121.301C157.095 121.301 154.001 118.207 154.001 114.426V112.75C154.001 108.969 157.095 105.875 160.876 105.875C164.657 105.832 167.751 108.926 167.751 112.75ZM183.306 98.828C183.306 102.609 180.212 105.703 176.431 105.703H174.712C170.931 105.703 167.837 102.609 167.837 98.828C167.837 95.0467 170.931 91.953 174.712 91.953H176.431C180.255 91.9959 183.306 95.0037 183.306 98.828ZM125.642 57.578C121.388 64.41 115.2 66.9881 110.001 66.9881C104.802 66.9881 98.6145 64.367 94.3606 57.578H125.642Z" fill="#415775"/>
</svg>
