<svg width="23" height="23" viewBox="0 0 23 23" fill="none" xmlns="http://www.w3.org/2000/svg">
<g clip-path="url(#clip0_309_1341)">
<path d="M19.8299 3.5726L18.6402 4.36574L16.6573 3.96917L15.4675 3.5726L13.8812 3.96917L12.6914 3.5726L13.4845 1.98627H15.0709L16.6255 1.20898C17.8244 1.80186 18.9091 2.60215 19.8299 3.5726Z" fill="#03AA6F"/>
<path d="M10.7078 1.98603L10.3113 3.17579L9.12152 3.57236L7.93176 5.55526L5.94886 6.74502L3.17281 7.14159V8.33135L3.96596 9.12449V10.7108L2.77629 9.91763L1.58653 9.12449L0.896484 7.0504C2.08422 4.21995 4.35467 1.98244 7.20209 0.835938L8.32837 1.58946L10.7078 1.98603Z" fill="#03AA6F"/>
<path d="M11.5 13.0902L11.1035 15.0731L9.51715 16.6595V17.8492L7.93082 19.0389V21.0218L6.74111 20.6253L5.94792 18.6424V14.6766L3.96502 14.28L3.17188 12.6937V11.5039L3.96502 10.7108L5.15478 9.521L5.94792 11.1073H8.72396L9.91372 13.0902H11.5Z" fill="#03AA6F"/>
<path d="M21.5352 5.8845C23.7001 9.7468 23.4534 14.5093 20.9007 18.1269L19.8299 17.0561V15.4698L19.0368 13.8835L18.2436 12.2972V10.7108L17.0539 9.91768L15.4675 10.3143L12.6915 9.12449L12.2949 6.34845L13.4847 5.15869H15.8642L16.6573 6.34845L19.0368 6.74502L21.4162 5.95188L21.5352 5.8845Z" fill="#03AA6F"/>
<path d="M13.8787 3.96866L15.465 3.57209L16.6548 3.96866L18.6377 4.36523L19.8274 3.57209C20.4917 4.2673 21.0648 5.04418 21.5327 5.88413L21.4138 5.95156L19.0343 6.7447L16.6548 6.34813L15.8617 5.15837H13.4822L12.2924 6.34813L12.689 9.12418L15.4651 10.3139L17.0514 9.91736L18.2411 10.7105V12.2968L19.0343 13.8832L19.8274 15.4695V17.0558L20.8982 18.1266C17.2358 23.3162 10.0596 24.554 4.87039 20.8915C0.463189 17.7807 -1.19016 12.0251 0.894664 7.05008L1.58471 9.12418L2.77447 9.91732L3.96423 10.7105L3.17104 11.5036V12.6934L3.96418 14.2797L5.94708 14.6763V18.6421L6.74022 20.625L7.92998 21.0216V19.0387L9.51631 17.8489V16.6592L11.1026 15.0728L11.4992 13.0899H9.91288L8.72313 11.107H5.94708L5.15394 9.5207L3.96423 10.7105L3.96418 9.12413L3.17104 8.33103V7.14127L5.94708 6.7447L7.92998 5.55495L9.11974 3.57205L10.3095 3.17547L10.7061 1.98572L8.3266 1.58914L7.20032 0.835623C10.25 -0.392588 13.6796 -0.256969 16.6231 1.20843L15.0684 1.98572H13.4821L12.689 3.57205L13.8787 3.96866Z" fill="#86DAF1"/>
</g>
<defs>
<clipPath id="clip0_309_1341">
<rect width="23" height="23" fill="white"/>
</clipPath>
</defs>
</svg>
