<svg width="15" height="15" viewBox="0 0 15 15" fill="none" xmlns="http://www.w3.org/2000/svg">
<g id="fire 1" clip-path="url(#clip0_71_990)">
<g id="_x30_5_Popular">
<path id="Vector" d="M11.6197 5.69317C11.5792 5.64249 11.5302 5.65245 11.5045 5.66279C11.483 5.67152 11.4336 5.69941 11.4405 5.76932C11.4487 5.85325 11.4533 5.93883 11.4541 6.0237C11.4578 6.37579 11.3166 6.72073 11.0667 6.97008C10.8183 7.21781 10.4917 7.35129 10.144 7.34742C9.66896 7.34136 9.27498 7.09359 9.0046 6.63091C8.78103 6.24832 8.8793 5.75487 8.98333 5.23242C9.04421 4.92662 9.10717 4.61039 9.10717 4.30942C9.10717 1.966 7.53176 0.614004 6.59268 0.0166699C6.57325 0.00433594 6.55477 0 6.53839 0C6.51176 0 6.49066 0.0114844 6.48026 0.0185156C6.46011 0.032168 6.42785 0.0632812 6.43822 0.118359C6.79717 2.02447 5.72654 3.17089 4.59305 4.3846C3.42469 5.63566 2.10044 7.05366 2.10044 9.61104C2.10044 12.5826 4.51793 15.0001 7.48945 15.0001C9.93609 15.0001 12.0933 13.2943 12.7352 10.8519C13.173 9.18659 12.7142 7.06526 11.6197 5.69317ZM7.6239 13.8498C6.87981 13.8837 6.17218 13.6168 5.63168 13.1C5.09698 12.5887 4.7903 11.8752 4.7903 11.1424C4.7903 9.76717 5.31612 8.7576 6.7304 7.41732C6.75355 7.39538 6.77725 7.38844 6.7979 7.38844C6.81662 7.38844 6.83285 7.39415 6.84401 7.39951C6.86754 7.41085 6.90621 7.43892 6.901 7.49962C6.85043 8.08805 6.85131 8.57646 6.90357 8.95134C7.03717 9.90891 7.73815 10.5523 8.64797 10.5523C9.09404 10.5523 9.51894 10.3844 9.84439 10.0796C9.88216 10.0442 9.92435 10.0487 9.94052 10.0521C9.96193 10.0568 9.99062 10.0699 10.0056 10.1061C10.1406 10.4319 10.2096 10.7778 10.2106 11.134C10.2149 12.5674 9.05452 13.7857 7.6239 13.8498Z" fill="white"/>
</g>
</g>
<defs>
<clipPath id="clip0_71_990">
<rect width="15" height="15" fill="white"/>
</clipPath>
</defs>
</svg>
