<svg width="256" height="39" viewBox="0 0 256 39" fill="none" xmlns="http://www.w3.org/2000/svg">
<g clip-path="url(#clip0_267_6)">
<path d="M12.1366 31.5334C10.4931 31.5483 8.86102 31.2608 7.32167 30.6851C5.88344 30.1527 4.5698 29.3307 3.46211 28.27C2.37133 27.2286 1.50523 25.975 0.917118 24.5863C-0.305706 21.6118 -0.305706 18.275 0.917118 15.3005C1.51007 13.9129 2.38149 12.6616 3.47741 11.6243C4.59447 10.5682 5.91208 9.74696 7.35224 9.20923C10.6237 8.02757 14.2141 8.08193 17.4483 9.36208C18.995 10.0117 20.3593 11.0298 21.4225 12.3274L18.0597 15.3998C17.3604 14.5659 16.4933 13.8889 15.5147 13.4128C14.5479 12.963 13.4933 12.7332 12.427 12.7401C11.4408 12.7272 10.4617 12.909 9.54578 13.2752C8.69147 13.6066 7.91539 14.1121 7.26677 14.7594C6.61815 15.4067 6.11114 16.1817 5.77795 17.0353C5.07482 18.9129 5.07482 20.9815 5.77795 22.8591C6.11426 23.7109 6.62234 24.4843 7.27057 25.1312C7.9188 25.7781 8.69328 26.2846 9.54578 26.6192C10.4632 26.9792 11.4416 27.1582 12.427 27.1466C13.4953 27.1558 14.5514 26.9206 15.5147 26.4588C16.492 25.9772 17.3586 25.2979 18.0597 24.464L21.4224 27.5364C20.3575 28.8341 18.9938 29.8543 17.4482 30.5094C15.7678 31.2154 13.959 31.5641 12.1366 31.5334Z" fill="white"/>
<path d="M35.2853 31.5335C33.6127 31.5542 31.9511 31.2613 30.3864 30.6699C28.9367 30.126 27.6093 29.3 26.481 28.2396C25.3779 27.2022 24.501 25.948 23.9054 24.5558C22.6826 21.5998 22.6826 18.2794 23.9054 15.3235C24.5032 13.9369 25.3799 12.6882 26.481 11.655C27.6061 10.5981 28.9278 9.77236 30.3711 9.22462C31.9303 8.63255 33.5871 8.33952 35.2548 8.36096C36.9208 8.34347 38.5759 8.63098 40.1384 9.20929C41.58 9.74875 42.8998 10.5697 44.0209 11.6244C45.1261 12.6586 46.0055 13.9102 46.6041 15.3005C47.8167 18.2717 47.8167 21.5998 46.6041 24.5711C46.0098 25.9704 45.13 27.2303 44.0209 28.2701C42.8997 29.3247 41.58 30.1457 40.1384 30.6852C38.5861 31.2622 36.9413 31.5497 35.2853 31.5335ZM35.2546 27.1467C36.2028 27.1571 37.1435 26.9778 38.0213 26.6193C38.8571 26.2736 39.6138 25.7613 40.2453 25.1137C40.8877 24.4634 41.3943 23.6918 41.7356 22.8438C42.4387 20.9768 42.4387 18.9177 41.7356 17.0507C41.3926 16.2013 40.8863 15.4276 40.2453 14.7732C39.6115 14.1303 38.8553 13.621 38.0213 13.2752C37.1451 12.9106 36.2036 12.7285 35.2546 12.7402C34.2983 12.7293 33.3496 12.9113 32.4651 13.2752C31.6281 13.6153 30.8708 14.1254 30.241 14.7732C29.6123 15.4343 29.1121 16.2065 28.766 17.0507C28.0629 18.9177 28.0629 20.9768 28.766 22.8438C29.1104 23.6866 29.6108 24.4567 30.241 25.1137C30.8684 25.7662 31.6262 26.2793 32.4651 26.6193C33.3512 26.9771 34.2991 27.1563 35.2546 27.1467Z" fill="white"/>
<path d="M51.4199 31.1509V8.74268H56.6322V31.1509H51.4199Z" fill="white"/>
<path d="M61.9199 31.1509V8.74268H66.2074L79.4293 24.8763H77.3505V8.74268H82.471V31.1509H78.1835L64.9617 15.0173H67.0405V31.1509H61.9199Z" fill="white"/>
<path d="M95.1735 31.5334C93.4259 31.5407 91.6863 31.2988 90.0071 30.815C88.5745 30.4383 87.2226 29.8038 86.0176 28.9425L87.783 25.0371C88.8209 25.7688 89.9655 26.3359 91.1763 26.7185C92.4649 27.1501 93.8145 27.372 95.1734 27.3758C96.0132 27.4015 96.8517 27.2932 97.6573 27.0548C98.1884 26.9014 98.6688 26.6085 99.0483 26.2065C99.3435 25.8649 99.5038 25.4274 99.4992 24.976C99.508 24.6984 99.4485 24.4229 99.3259 24.1737C99.2033 23.9245 99.0213 23.7092 98.7961 23.5468C98.2288 23.1488 97.5945 22.8563 96.9236 22.6832C96.1441 22.4616 95.2958 22.2476 94.3786 22.0412C93.4539 21.8425 92.5367 21.5979 91.6043 21.3075C90.7062 21.031 89.8461 20.6434 89.044 20.1536C88.2784 19.6876 87.6403 19.0389 87.1869 18.2658C86.6998 17.3692 86.4623 16.3584 86.499 15.3387C86.4887 14.0942 86.8449 12.8742 87.5231 11.8307C88.297 10.7015 89.3832 9.82238 90.649 9.301C92.319 8.62202 94.113 8.30173 95.9148 8.36094C97.3215 8.35972 98.723 8.53172 100.088 8.87303C101.361 9.16619 102.579 9.66158 103.695 10.3404L102.06 14.2458C101.086 13.6825 100.043 13.2483 98.9566 12.9542C97.9538 12.673 96.9181 12.5265 95.8767 12.5185C95.0433 12.4922 94.2115 12.6059 93.4157 12.8548C92.8835 13.0193 92.4107 13.3353 92.0554 13.7643C91.7723 14.1324 91.619 14.5839 91.6197 15.0483C91.6123 15.3275 91.6732 15.6044 91.797 15.8548C91.9209 16.1052 92.104 16.3215 92.3305 16.4851C92.8824 16.8915 93.5119 17.1802 94.18 17.3334C94.9519 17.5398 95.8079 17.7461 96.7479 17.9449C97.6877 18.1488 98.6163 18.4013 99.5299 18.7016C100.412 18.9835 101.261 19.3628 102.06 19.8327C102.825 20.291 103.467 20.9283 103.932 21.6898C104.438 22.5689 104.687 23.5726 104.65 24.5864C104.66 25.8187 104.298 27.0254 103.611 28.0485C102.82 29.1742 101.725 30.0516 100.455 30.5782C98.7811 31.2649 96.9815 31.5904 95.1735 31.5334Z" fill="white"/>
<path d="M169.691 31.5334C168.02 31.5515 166.36 31.264 164.792 30.6851C163.348 30.1547 162.029 29.3326 160.917 28.27C159.826 27.2286 158.96 25.9749 158.372 24.5862C157.149 21.6117 157.149 18.2749 158.372 15.3004C158.968 13.9105 159.845 12.6589 160.948 11.6243C162.075 10.566 163.403 9.74473 164.853 9.20919C168.192 8.03251 171.841 8.0813 175.148 9.34678C176.692 9.98035 178.066 10.9672 179.16 12.2281L175.866 15.3004C175.108 14.4827 174.193 13.8252 173.176 13.3669C172.173 12.9432 171.093 12.7298 170.004 12.74C168.998 12.7279 167.999 12.9096 167.062 13.275C166.196 13.6083 165.406 14.1125 164.739 14.7577C164.086 15.406 163.574 16.1811 163.233 17.0352C162.53 18.8969 162.53 20.9513 163.233 22.813C163.57 23.6714 164.083 24.4497 164.739 25.0982C165.4 25.7485 166.185 26.2603 167.047 26.6038C167.977 26.9761 168.972 27.1605 169.974 27.1464C170.994 27.1485 172.008 26.9754 172.97 26.6344C174.015 26.255 174.977 25.6791 175.805 24.9377L178.747 28.6826C177.468 29.6429 176.026 30.3652 174.491 30.8149C172.934 31.2881 171.317 31.5301 169.691 31.5334ZM174.009 28.0101V19.5956H178.747V28.6826L174.009 28.0101Z" fill="#FA0140"/>
<path d="M180.605 31.1509L190.564 8.74268H195.684L205.742 31.1509H200.293L192.069 11.3641H194.148L185.925 31.1509H180.605ZM185.634 26.3513L186.949 22.4077H198.535L199.88 26.3513H185.634Z" fill="#FA0140"/>
<path d="M208.072 31.1509V8.74268H212.36L221.898 24.5553H219.628L228.975 8.74268H233.301V31.1509H228.463L228.402 16.2019H229.357L221.806 28.7511H219.498L211.848 16.2019H212.902V31.1509H208.072Z" fill="#FA0140"/>
<path d="M243.802 26.9857H255.999V31.151H238.65V8.74268H255.587V12.9003H243.802V26.9857ZM243.419 17.7381H254.203V21.804H243.419V17.7381Z" fill="#FA0140"/>
<path d="M149.575 19.0674L146.533 22.1088C146.641 23.7108 146.257 25.3075 145.433 26.6854C144.609 28.0633 143.384 29.1568 141.921 29.8197C140.459 30.4827 138.829 30.6834 137.25 30.3951C135.67 30.1068 134.216 29.3431 133.083 28.2063L136.375 34.6552H125.163L128.463 28.2063C126.983 29.683 124.978 30.5118 122.887 30.5107C120.797 30.5096 118.792 29.6787 117.314 28.2005C115.836 26.7223 115.005 24.7177 115.004 22.6272C115.003 20.5367 115.832 18.5313 117.308 17.0516L130.773 3.58678L134.994 7.80773L122.762 20.0453C122.255 20.07 121.766 20.2433 121.356 20.5434C120.946 20.8436 120.633 21.2575 120.456 21.7339C120.279 22.2102 120.246 22.728 120.36 23.2231C120.475 23.7182 120.732 24.1687 121.101 24.5189C121.469 24.869 121.932 25.1033 122.432 25.1928C122.932 25.2822 123.448 25.2229 123.915 25.0221C124.381 24.8213 124.779 24.4879 125.058 24.0632C125.337 23.6386 125.485 23.1413 125.485 22.6331C125.485 22.5572 125.469 22.4857 125.462 22.4118L137.533 10.3472L142.846 15.6598L138.456 20.05L138.451 20.0551C137.904 20.0794 137.378 20.2691 136.942 20.5991C136.506 20.929 136.18 21.3836 136.008 21.9027C135.836 22.4218 135.825 22.981 135.978 23.5062C136.131 24.0314 136.439 24.4978 136.863 24.8438C137.286 25.1898 137.805 25.3991 138.35 25.4438C138.895 25.4886 139.441 25.3668 139.915 25.0945C140.39 24.8222 140.77 24.4122 141.006 23.919C141.243 23.4257 141.323 22.8724 141.238 22.3321L141.246 22.3239L142.301 21.2765L145.263 18.3137L147.832 15.746V15.7388L147.925 15.6526L146.784 14.5261L145.378 13.1273L140.066 7.8147L140.068 7.81236L137.528 5.2728L137.526 5.2752L133.305 1.05459C132.973 0.720384 132.578 0.455157 132.143 0.274178C131.707 0.0932001 131.241 0 130.769 0C130.298 0 129.831 0.0932001 129.396 0.274178C128.961 0.455157 128.566 0.720384 128.233 1.05459L114.769 14.519C113.241 16.0495 112.176 17.9805 111.697 20.0896C111.218 22.1987 111.345 24.4002 112.062 26.4406C112.779 28.481 114.058 30.2773 115.752 31.6226C117.445 32.968 119.484 33.8078 121.634 34.0452C121.537 34.6082 121.576 35.1862 121.746 35.7313C121.917 36.2765 122.216 36.7731 122.617 37.1799C122.967 37.5253 123.383 37.7971 123.84 37.9795C124.297 38.1618 124.786 38.2509 125.278 38.2416H136.375C136.989 38.2422 137.593 38.0848 138.128 37.7845C138.663 37.4843 139.112 37.0512 139.432 36.5271C139.89 35.7865 140.059 34.9026 139.905 34.0452C141.575 33.8633 143.185 33.3175 144.621 32.4462C146.058 31.5749 147.286 30.3994 148.219 29.0022C149.032 27.8085 149.601 26.4649 149.89 25.0497C150.304 23.0618 150.196 21.0007 149.575 19.0674Z" fill="#FA0140"/>
</g>
<defs>
<clipPath id="clip0_267_6">
<rect width="256" height="38.2416" fill="white"/>
</clipPath>
</defs>
</svg>
