<svg width="63" height="63" viewBox="0 0 63 63" fill="none" xmlns="http://www.w3.org/2000/svg">
<g id="TUR 1" clip-path="url(#clip0_420_3464)">
<g id="tr">
<g id="Group">
<path id="Oval" d="M31.5 63C48.897 63 63 48.897 63 31.5C63 14.103 48.897 0 31.5 0C14.103 0 0 14.103 0 31.5C0 48.897 14.103 63 31.5 63Z" fill="#D80027"/>
<g id="Group_2">
<path id="Path" fill-rule="evenodd" clip-rule="evenodd" d="M30.212 25.7397L32.7966 29.3013L36.9822 27.9441L34.3936 31.5026L36.9778 35.0641L32.7936 33.7017L30.2051 37.2603L30.2078 32.86L26.0234 31.4976L30.2092 30.1404L30.212 25.7397Z" fill="#F0F0F0"/>
<path id="Path_2" fill-rule="evenodd" clip-rule="evenodd" d="M23.1577 40.4022C18.2412 40.4022 14.2555 36.4165 14.2555 31.5C14.2555 26.5836 18.2412 22.5978 23.1577 22.5978C24.6906 22.5978 26.133 22.9856 27.3922 23.6679C25.4167 21.7358 22.715 20.5435 19.7338 20.5435C13.6826 20.5435 8.77734 25.4488 8.77734 31.4999C8.77734 37.551 13.6827 42.4564 19.7338 42.4564C22.7152 42.4564 25.4169 41.2639 27.3922 39.332C26.133 40.0145 24.6906 40.4022 23.1577 40.4022Z" fill="#F0F0F0"/>
</g>
</g>
</g>
</g>
<defs>
<clipPath id="clip0_420_3464">
<rect width="63" height="63" fill="white"/>
</clipPath>
</defs>
</svg>
